<mxfile host="app.diagrams.net" modified="2023-04-01T22:06:42.715Z" agent="Mozilla/5.0 (Windows NT 10.0; Win64; x64) AppleWebKit/537.36 (KHTML, like Gecko) Chrome/111.0.0.0 Safari/537.36" etag="YL6x8ZKpXbKZjqXB-1u5" version="21.1.2" type="device" pages="2">
  <diagram name="Proposta 1" id="XKhgayITm7B1ENBTclrD">
    <mxGraphModel dx="1434" dy="788" grid="1" gridSize="10" guides="1" tooltips="1" connect="1" arrows="1" fold="1" page="1" pageScale="1" pageWidth="827" pageHeight="1169" math="0" shadow="0">
      <root>
        <mxCell id="0" />
        <mxCell id="1" parent="0" />
        <mxCell id="FOwUjEchJwJAMd38yOZP-58" value="" style="rounded=0;whiteSpace=wrap;html=1;" vertex="1" parent="1">
          <mxGeometry x="105" y="832" width="559" height="310" as="geometry" />
        </mxCell>
        <mxCell id="FOwUjEchJwJAMd38yOZP-22" value="" style="rounded=0;whiteSpace=wrap;html=1;" vertex="1" parent="1">
          <mxGeometry x="334" y="40" width="376" height="150" as="geometry" />
        </mxCell>
        <mxCell id="FOwUjEchJwJAMd38yOZP-18" value="" style="rounded=0;whiteSpace=wrap;html=1;" vertex="1" parent="1">
          <mxGeometry x="20" y="40" width="310" height="150" as="geometry" />
        </mxCell>
        <mxCell id="FOwUjEchJwJAMd38yOZP-5" style="edgeStyle=orthogonalEdgeStyle;rounded=0;orthogonalLoop=1;jettySize=auto;html=1;" edge="1" parent="1" source="FOwUjEchJwJAMd38yOZP-1" target="FOwUjEchJwJAMd38yOZP-9">
          <mxGeometry relative="1" as="geometry">
            <mxPoint x="310.00418869644477" y="125" as="targetPoint" />
          </mxGeometry>
        </mxCell>
        <mxCell id="FOwUjEchJwJAMd38yOZP-1" value="" style="image;aspect=fixed;html=1;points=[];align=center;fontSize=12;image=img/lib/azure2/general/Management_Portal.svg;" vertex="1" parent="1">
          <mxGeometry x="172" y="101" width="60" height="48" as="geometry" />
        </mxCell>
        <mxCell id="FOwUjEchJwJAMd38yOZP-3" style="edgeStyle=orthogonalEdgeStyle;rounded=0;orthogonalLoop=1;jettySize=auto;html=1;" edge="1" parent="1" source="FOwUjEchJwJAMd38yOZP-2" target="FOwUjEchJwJAMd38yOZP-1">
          <mxGeometry relative="1" as="geometry" />
        </mxCell>
        <mxCell id="FOwUjEchJwJAMd38yOZP-2" value="" style="sketch=0;pointerEvents=1;shadow=0;dashed=0;html=1;strokeColor=none;labelPosition=center;verticalLabelPosition=bottom;verticalAlign=top;align=center;fillColor=#505050;shape=mxgraph.mscae.intune.account_portal" vertex="1" parent="1">
          <mxGeometry x="40" y="100" width="43" height="50" as="geometry" />
        </mxCell>
        <mxCell id="FOwUjEchJwJAMd38yOZP-7" style="edgeStyle=orthogonalEdgeStyle;rounded=0;orthogonalLoop=1;jettySize=auto;html=1;" edge="1" parent="1" target="FOwUjEchJwJAMd38yOZP-6">
          <mxGeometry relative="1" as="geometry">
            <mxPoint x="361.9158113035551" y="125" as="sourcePoint" />
          </mxGeometry>
        </mxCell>
        <mxCell id="FOwUjEchJwJAMd38yOZP-10" style="edgeStyle=orthogonalEdgeStyle;rounded=0;orthogonalLoop=1;jettySize=auto;html=1;exitX=1;exitY=0.5;exitDx=0;exitDy=0;exitPerimeter=0;" edge="1" parent="1" source="FOwUjEchJwJAMd38yOZP-6">
          <mxGeometry relative="1" as="geometry">
            <mxPoint x="580" y="125" as="targetPoint" />
          </mxGeometry>
        </mxCell>
        <mxCell id="FOwUjEchJwJAMd38yOZP-25" style="edgeStyle=orthogonalEdgeStyle;rounded=0;orthogonalLoop=1;jettySize=auto;html=1;entryX=0.5;entryY=0;entryDx=0;entryDy=0;entryPerimeter=0;" edge="1" parent="1" source="FOwUjEchJwJAMd38yOZP-6" target="FOwUjEchJwJAMd38yOZP-1">
          <mxGeometry relative="1" as="geometry">
            <Array as="points">
              <mxPoint x="475" y="73" />
              <mxPoint x="202" y="73" />
            </Array>
          </mxGeometry>
        </mxCell>
        <mxCell id="FOwUjEchJwJAMd38yOZP-6" value="" style="outlineConnect=0;dashed=0;verticalLabelPosition=bottom;verticalAlign=top;align=center;html=1;shape=mxgraph.aws3.worker;fillColor=#D9A741;gradientColor=none;" vertex="1" parent="1">
          <mxGeometry x="450" y="100" width="50" height="50" as="geometry" />
        </mxCell>
        <mxCell id="FOwUjEchJwJAMd38yOZP-9" value="" style="sketch=0;points=[[0,0,0],[0.25,0,0],[0.5,0,0],[0.75,0,0],[1,0,0],[0,1,0],[0.25,1,0],[0.5,1,0],[0.75,1,0],[1,1,0],[0,0.25,0],[0,0.5,0],[0,0.75,0],[1,0.25,0],[1,0.5,0],[1,0.75,0]];outlineConnect=0;fontColor=#232F3E;gradientColor=#60A337;gradientDirection=north;fillColor=#277116;strokeColor=#ffffff;dashed=0;verticalLabelPosition=bottom;verticalAlign=top;align=center;html=1;fontSize=12;fontStyle=0;aspect=fixed;shape=mxgraph.aws4.resourceIcon;resIcon=mxgraph.aws4.s3;" vertex="1" parent="1">
          <mxGeometry x="310" y="100" width="50" height="50" as="geometry" />
        </mxCell>
        <mxCell id="FOwUjEchJwJAMd38yOZP-11" value="Operadaor" style="text;html=1;align=center;verticalAlign=middle;resizable=0;points=[];autosize=1;strokeColor=none;fillColor=none;" vertex="1" parent="1">
          <mxGeometry x="21.5" y="150" width="80" height="30" as="geometry" />
        </mxCell>
        <mxCell id="FOwUjEchJwJAMd38yOZP-12" value="Portal Parcerias" style="text;html=1;align=center;verticalAlign=middle;resizable=0;points=[];autosize=1;strokeColor=none;fillColor=none;" vertex="1" parent="1">
          <mxGeometry x="147" y="150" width="110" height="30" as="geometry" />
        </mxCell>
        <mxCell id="FOwUjEchJwJAMd38yOZP-13" value="&lt;span style=&quot;font-weight: normal;&quot;&gt;Bucket Upload&lt;/span&gt;" style="text;html=1;align=center;verticalAlign=middle;resizable=0;points=[];autosize=1;strokeColor=none;fillColor=none;fontStyle=1" vertex="1" parent="1">
          <mxGeometry x="285" y="150" width="100" height="30" as="geometry" />
        </mxCell>
        <mxCell id="FOwUjEchJwJAMd38yOZP-14" value="&lt;span style=&quot;font-weight: 400;&quot;&gt;Processo de Carga&lt;/span&gt;" style="text;html=1;align=center;verticalAlign=middle;resizable=0;points=[];autosize=1;strokeColor=none;fillColor=none;fontStyle=1" vertex="1" parent="1">
          <mxGeometry x="410" y="150" width="130" height="30" as="geometry" />
        </mxCell>
        <mxCell id="FOwUjEchJwJAMd38yOZP-17" value="" style="shape=image;verticalLabelPosition=bottom;labelBackgroundColor=default;verticalAlign=top;aspect=fixed;imageAspect=0;image=data:image/png,iVBORw0KGgoAAAANSUhEUgAAAwAAAAFtCAYAAACwdA0jAAAAAXNSR0IArs4c6QAAAARnQU1BAACxjwv8YQUAAAAJcEhZcwAADsMAAA7DAcdvqGQAANYeSURBVHhe7J0HYFTFFob/9F5IAiEh9NB7770LiIqoqAiKINgRu0/Fhl1QVBApCkiR3nvvvUMCIZRAeu89b/7ZXQgICBIgyZ7Pdx+7t+3N7r0z5z9zzhmLPAUEQRAEQRAEQTALLI3/CoIgCIIgCIJgBogAEARBEARBEAQzQgSAIAiCIAiCIJgRIgAEQRAEQRAEwYwQASAIgiAIgiAIZoQIAEEQBEEQBEEwI0QACIIgCIIgCIIZIQJAEARBEARBEMwIEQCCIAiCIAiCYEaIABAEQRAEQRAEM0IEgCAIgiAIgiCYESIABEEQBEEQBMGMEAEgCIIgCIIgCGaECABBEARBEARBMCNEAAiCIAiCIAiCGSECQBAEQRAEQRDMCBEAgiAIgiAIgmBGiAAQBEEQBEEQBDPCIk9hfC0IxY5zFy7i0JETxncFjTw6giAIgiDce2pWr4qq/hWN724fEQBCsWbOgmX44NNvje8KlpeGDDC+EgRBEARBuDccP3kKjRrUwfDB/90OEQEgFGvupgAIOrTZ+EoQBEEQBOHeMGveEsQnJNyRAJAcAEEQBEEQBEEwI0QACIIgCIIgCIIZIQJAEARBEARBEMwIEQCCWaFTXiyuvOZbUxqM4b3pdb7teo3i8gtBEARBEISiiwgAwSygMe/oYI/ePTpj5MtD8NqwZ1Gvdg3UrVUNTRvVg7WVFdq1aoZWzRohJycHtWpUQfdO7VDNvyKGPPMEXh46EE0a1YW1tZXxjIIgCIIgCEUTEQCCWUAB4OzsBHc3Vxw7eQr29vYYPvhp1KtTE907t4OvT2n0e7gnnnmyL2BhgcfU62ZNG+DRhx5AGV9vnD5zVp/D0lIeGUEQBEEQijZizQhmgYUy6mPjEnD46AlkZGTg7PkLcHF2RkxsHHJz89Cgbk1ERcfCxtoaZcv4oIp/RWzetgupaWn62OSUVJw5ewGZmVnGMwqCIAiCIBRNRAAIZkFubq6eNGPQ0/3g411KjwTk5uUiNCwCScnJaNq4vjLwz+NiaDg6tm2JnOwc7DtwFAuXrlZiIQQ9u3XUowKurs56JEAQBEEQBKGoIgJAMAvo5a9fpybs7eywdNV6xMTF65Cg1LR0xKrXdWtVR2RUjJ5d74lHe+PwsZNITknRwmHV2s04EXAaVatUgrOTk/GMgiAIgiAIRRMRAIJZYGFpgd17D8LGxgbvj3wJfj6lceDQMe3NPxV0DgGnzuBSWDgOHDmOpKQUrNu0DXZ2tujZvSPeG/kimjWuj13qeIoF5gjcTUaMGIFmzZrhzJkzxjXAli1b8Pzzz+P48ePGNQYeeeQRveRn1apVePvttxEREaHfnzx5Up/PtPA8gYGBetvNmDNnDjp16qSPadGihT6niYSEBLz22mtYvHgxsrOzjWsLhkOHDuGNN97AkSNHjGsEQRAEQShIRAAIZoGVpSUOHD6G9z7+Cr9Omo7xU/7CNz/+huBzF7D/0FF8PPoHBCoRwDCgoa++iyPHAnS8//RZC/D12An48Isf8PeCZUhKTjGe8e5w+PBhbZxHRkZi4cKFxrWAi4sLkpOTrzLcL168qI3kPXv2aCPfxM6dO5GSkgIrKyvs27cPPXv2xBdffKGNdS5lypTRIiMoKMh4xD8ZOXIk5s6di3HjxuljZsyYgeDgYC0eCI3+U6dOISoqqsBDopKSkvS5+fcKgiAIglDwiAAQij00UEuUcIN3KS9EREXj3PkQZdxn6oUhPiz7mZKajhz1Oi83D4lJyZeNWiYBs3xo/0d74/svPsDjD/eE9V2sBLRp0yZ4e3tj6NChmDRpkr4+wnWOjo44ffq0fk/27t2Lbt26oWnTpjhw4IBeFxcXp0WCv78/nJyctOHeqFEjdO7cGaVLl9bLs88+q/9mjibw32uZPn26FiCff/45atasqY+pXLkyRo0apUXDggULjHteDUUBE6y58LXpO+TfwHUmuJ7b8392/mOvd02CIAiCIBQcIgAEs4CGPct9Dh3UHzWq+WujniU9aaMaDFXDJGAmo9X4D6ytbXTY0Jng87gUFgH/yhW1Z/1uQKN7165d2mB/4oknEBsbi9WrV+ttJUqU0Eb9+fPn9X6EhnqPHj3QuHFj7aWn4XzhwgXEx8ejbt26cHBwgLu7O9avX6+FQ0hIiDawK1SooM/bp0+ff/wtPHb37t2oWLEifH19jWsN1K5dGytXrkTHjh2Na67AkYBXXnkFderU0aLhySefxMGDB/U1rVixAs7OzsY9DSMXFCE///yzfs+/h38vj23evDl++eUXEQGCIAiCcBcRASAUe1jGMy4+AXMWLEdCUjJeH/4c3n3jRe3Vb92iMWpUrYxyZX3h6+Otl/Ll/FCrehW0b90M/fv2xkM9u8KjhDviExKxZ/9hZGffHeOU4T8clWjSpIk2wPv27Ytvv/1WG+005qtUqaL/FobImMKBevXqpb37ly5d0gvDdLhfuXLl9DmHDRuGevXqoXXr1nq/qVOnakFw7ty56xrZHEFg7kD58uXh6upqXHsFk6i4lvfee08LDIbuMOyoatWq+Omnn/S6m8G/l+FIHOHgsbw2Ly8vLX4EQRAEQbg7iAAQzAJ6+2lIz1mwDF+NHY8LIZfQomkjvDRkAD585zV88t4bGPXe63r5+N3X8PaIF9C/Xx+U8S2NrTv3YsWajTh09ASOHDupy4cWNOnp6TqWn/H5NL7J4MGDdZgPhQGh5z4rKwthYWHYunUr2rRpo9f7+fnpMB3mA1AU0HD38PDQ27ieScEM36EI4Plef/11nWTLcB7TiIcJa2trPeJxO1CMcDSC5yQcrXjwwQf1ddLbfzMoRPbv349XX31Vv+d1P/roo3qiNkEQBEEQ7g4iAASzgd5zaysrnDt/Cb9Pm41PvhqLsb9OwYKlq7B730Fd6vPo8UBs2b4bM/9ejG9/nIgffpms3zMvgInBugrQXYChOzTOGZfP0Bga7MuWLdOiZf78+XqfSpUqwdbWVhvNy5cv1yMFhLkB9Prv2LEDMTExKFu27FXeezs7OwwfPhyTJ0/Wy/fff6+FAvMNKCjyw7wBevjpgacoyU9aWpoOHTKFJZngZxI3Nzf9L+E18drp4b8ZHG3gPp6ensY10H8jk54FQRAEQbg7iAAQzA4rK0tYqP8iIqOxc88BzFu0Ar//ORu//D4d4yfPwJ8z52Plus0IPB2sjWBTnPzdjEunQU4Du0uXLtrQZwgPl6effhobNmxAaGioNpK5jZ77EydO6PKchGE5XM9RARrTfG3y4tPwNyUIm+jatasu68l4/2v/Jhre1apV059hKiNqgnH+DCEyjUiYMBnvLA1qIjU1VQsPGvP5hQHhNXI7YegP9zGJCMLtDHMSBEEQBOHuIAJAMFsYFkTjniMDrFRDbzir0RCWDdVC4S7X/Cc0rNesWYMaNWro2vrPPffc5eWdd97RYTScB4Bwn82bN2sPuylJlwY0Y+7Pnj2rjXaOAJjg3/fyyy9fVfKTdfajo6N19SAa6fmhcGDZUBrzP/74oxYJhGE+n376qX7fu3dvvc4EE3wHDBiAb775Ro8cMI9gyZIl8PHx0eFJvE5+j9u3b9f7M9bf9PcwrIlJz8whIDx+3rx5/xh9EARBEASh4BABIAhGaKTeC4P/Wpgoe+zYMbRs2VJ78/NDA9pU5YewEhDj9uvXr385Tp7XzFh/Jg4zfIevTXz22Wc6l4ATelEkcGG8/aBBg/TnUQRdC0cQxowZo8/LvAEe07BhQy0uGELE99fy5Zdf6s/ntXKhkc/PoRhhTsN3332Hfv366WOZHNyqVSt9HMULP4sjEdzG66Q4MeUwCIIgCIJQ8FgoY+LqLEBBKEYw6feDT781vitYgg5tNr66M0xzEdBbfz2D3BSnT+88H1eOUtA4Z8KuiRutJ6bRDRPch+fivzfj2lr9vDZTaJHp8/Jfc/79ud40ukLyXwPX8Rj+y31I/mNN5+Pf8W/XKAiCIAjmxqx5SxCfkIDhgwcY19w+IgCEYg0FwBff/QynazzrBcHO9Vdm6hUEQRAEQbgXiAAQhH9hzoKliI6OxUtDBxrXCIIgCIIgFF0KQgBIDoAgCIIgCIIgmBEiAARBEARBEATBjBABIAiCIAiCIAhmhAgAQRAEQRAEQTAjRAAIgiAIgiAIghkhAkAQBEEQBEEQzAgRAIIgCIIgCIJgRogAEARBEARBEAQzQgSAIAiCIAiCIJgRIgAEQRAEQRAEwYwQASAIgiAIgiAIZoQIAEEQBEEQBEEwI0QACIIgCIIgCIIZIQJAEARBEARBEMwIEQCCIAiCIAiCYEaIABAEQRAEQRAEM0IEgCAIgiAIgiCYESIABEEQBEEQBMGMEAEgCIIgCIIgCGaECABBEARBEARBMCMs8hTG14JQ7JizYCmio2Px0tCBxjVCgZGRAaSkAP+lCeExNjaAszNgZWVcKZglOenqPgpVSwiQFglkJgK5WYCluj9sXQEHb3WflAMcS6t7xd54kCAIxRmaplm5GUjLSkZ6Vqr+N1O1FVm5mWpbrtpBNREWlrC2soOdtQMcbJxgrxYHaye1zhYW6r/izKx5SxCfkIDhgwcY19w+910A3M7HW1gU7x9UKHhEANwl4uOBxYuBw4eB7GzjytvEyQno1Qto2tQgBgTzIScNiD0KhKwBIrYr4z9YGfdKCKjOHbnqfmK/wPbe0lottuoeU4a/sz9QujVQtitQopaIAUEoRmTmZCA2JRzhSecQppao5ItISI9CckYCcixUu2CZhzwLZfhbsG0wHpSnXtCEzLOERa4lbGAHZzt3lHAohZLOfvBxqQgft4pwV++tLIqXo6lIC4D8H2t6faNLMRn+1/4rCP+GCIC7QGIisHAhsGED4OYGuLgYN9wGOTlQPwxgrQy8554DGjWSkQBzIDsVCN0EnPhVicidythPBrKUIV+iDuBRV91PlQF7L9XZ2xlGBpQBgCQlDqIPqf1PqPtFrbNyVfsqIVBjGODTVq1zMJ5cKC6ER0Th9Xc/QeDpM/q9s5MTXn9pMPo+2EO/J8dOBOCtD0frfR0cHDDu20/QqL66j4o4X435Fe+OeNH4rniTlZOJ83EncCxsB4KiDyM2Iwy5NnQo5SIrMxs5mXlwtHaBo50LnGxdtYff2tIWVpaGviI3NxsZqp1Iy0pBihIKKZlJyMpLh5WtBaxt1D5KFCDTGj7OFVCtVCPULN0Cvq4V9DmKOkVOAOQ39POys5GXmYm8iAhgxw71NB8DYmJgoYwLi6QkWvnIc3XVC0qVAurXB1q0gIUyOCztVYdhqRSfCAIhH++O+horVm9QduSV1JasrGw0bVxPN6hVKlcslPdKbm4u9uw/jJjYOPTs1tG4tpCiGhwsXw6sXQvUqgUMGgR4KYPtv7B3r2rFZikDTz3vw4cbnnH1XAvFENXRI0618Ye/UtbdStVo2ygjvjlQuT/g2wlw8lE73ezZVH1HcghwUd13wbOVGFD3Tp4SkT691X3zHuBeXd07MopUHDh95ixGfTkGDerWwotDnoGjMu7DwiPx2MAXMWRQfwx44hGcCDiNDz//Do893Av9Hu6JGX8vxF9zFuH3cV+jfNkyxjMVPTr26o8nHu2NoYOeNK4pfuSo5zY5Iw6HLm3GjvPLEZ12ATb21rDItoGLtSfKuPmjnHs1+LhWhKdTaWX4u+kQH0sLqxuG9SiLEtk5WTpMKEmdOzrlEi4lBiMkPhAX44OQaZmi2occZXNaoqxrdbSo0BPVSzbWosLComj2OQUhAKxGKYyv7yra6OeSlYW88HDkbd4Mi0mTYDl7NiyUIWARGgqL+HhYpKUZvINqsUhNhUVcHCwuXoTFvn3AunXIO3wYeVbqRnBxQZ6tUnFGg6Gwi4BsJXgSEpMQG5eARPVvWkaGUrGWsLGxNu7x79BQTE5JVeeIV3ZYIlJS1XelsLWxMXsRREN/5txF6N65Hf6c8AOGPfe0Xjw9S2DqjLnw8vRA7RrVYGtb+IyEi6FhmPTnbLg4O6G+6vQKJRTvNP5XrQLWrwdq1waeeAIoXdq4w3+gjOqoOYJw5gywbZsyBH0NYl9GAooX6THKqpsG7HldvT6nfuMuQIPPlIB8EShRU/3eqh3Pybh6YRgQvXyXO2fVvilDAF4NgYp9lXhoCmQo4Ri7RQmCeYC1C+BSUUYDigHHlXF/MvA0Bj75KHxLe+t1dqrddndzxamgYNSvUxP7Dh1VbbktHnukF5ycHFG5YnksXr4Wpb1LokZVf31MfgJPB8Pa2grnQi4iLS0dDvZ2uh+9FBqOqJhY3Td7lHA37g3Vt6bqbRFR0chSfXd6egZiY+Pg5uqCVNXv6lEHe3vVVFkhLT0dF0IuaaFibW2t+/qwiEiEhkcgWh1Du4f7so9mM3opLPzyNp7LTl0LP+P8hYv4bepMdO/UDn5lfGCv1hcnaKTTS3/g0nrMPTIWx2O3wlrZP2WcqqGp7wPo4j8Anas+iUZlO6GiRy14OflqA93Gyk7H+t8spp/bOCpAoeBq74HSLuVRxas+Gvl1QtOyXVG5RF04WrgjOzcTsVmXcCRsC87FntDhQm4OXurYW7fDCgvHTgQiXdmRTRrWM665fe66ALhs+KslVxn+ubt2AX/+CUtlSFhERtJyM+7571hkZsJCncNi927knj2LXNUA5DGJUD14JgqjIZyUnIKduw8qxbZYL0tXrceefYcRF5+gDVQ2Kv9GZmYWjh4PxPwlK/HX34uwcNkqbNm+VzdSNBw9PdyVFjJf7+mZs+cxWynih3p2g3+lCsa1qjM5eQobNu9Azer+aFi/jm6ITwYG6eHjc+dDlBhLVg2/m27ISbwSVnv2H0Kw2sbfh6LrwsVQuLu7IjwyChcvhamOiPtbIkPdj4eOHNcdCzshirOjx0/qYWuem5RwV0aLgh1IgFrP6+E2erTK+vnqc2zcsgP7VYfGfStVKKuHuwsdDPtZvdoQ9lNTGW19lRFWtqxx4x3g53dFBLBt8PQEvFWnz9AgoeiTqH7Xw18AJ8aoh6E6UOMtdd88oAz3w0DYRiBy+/WX2CPK4FcGGcOBrvXQcfjeTRl5ZTqrfXyUtXZaCYw/VV+iBIFrNWUtljDuKBRF2F+yzaZzzMbGBt4llYGm2udaNaqifZsWug2vUc0fbVo21UY3oYG/YfN29OjaAWWV8ZwfOsra9uhHCxTLVm9AhGrHed6ZcxdjuXq/e98hLFi6SvUb5VHGp7TuAxaq9+xnd+45gMPHTmLDlu3YumsPuinjfNO2nRg38U80VYYX++6Dh4/h1bc+Rsd2LVVf7Iwd6pjJ0+Zg8/bdWLdxmxItZ1Vb76Pb95CLl/DBp99g74Ej2Lp9D7bu2ANXdY481c98+Pn3SmTEq9vdEh6qP69QTrWNxYj4tChsPDMHW87Ph621HWp5tEKnyv3R0b8fqpRsAHeHksrYL9jkXZ7L1tpeiYkyqFayIWp6N4envR9y83IRmhKEo+HbYWflCF/XypfDiooKhV4AaKNf3di5OTnIDQqCxd9/w3LePFiGhRk8iv8VdU49YnD0KJScRy69hi4ul43/wiQCaLgvWLIK46f8pY0+ejQ8S7irRiYJqzdswdlzIahetfJV3odr4Xe4ffcBjP11Mg4og9PTo4RuFLl+i2pE9h08Cp/SpfTQp7mOBNCA3r5rH55+/BH9/Zigwc0GvkuHNqhXpyZ2K+N+0rTZiIqORcCpM9i594D2tPj5+iAyKhp/zVmI9arziY6J1cft2ncQJ08FoVWzxpi7aLnqCHaieZMG+piYmDiMfP8zVKtaSTf8S1eu0w1+iBIJF1RDv2r9FlStXEGPPhxQncTvf8xG8LkL+j7gPVFO/V7sFCZOnak7MIrBSuXLwbtUSePVFxJo/DPsx2T8P/QQUL48HzTDdobwqOdRG+12N/Fa8ZmPjQXi4pThpow4k5HPkQAPD2XEKUOOScXMKaAIkMTgok3sMeCQ6l7OzQHKPQLU+1gJPmW0X1gKHFSvkwKVdXZe3V+n8i3qHohX7XrYOsM5vBqr+8TR8Ppa6O33aqDEQG2lsNV9df5v1R+Eq/c1lHAoZM+QcMuUKukJR0cH3ZauXLtJe9TDIyK1l/9a6IBhm0zvf8tmjfBwr+7GLVc4ePi4NvApIL7/4n/wV20yc8McHOx0aOjjj/RGfHwCfpwwFb26d8a2nXuwbNV6DBn0JF4a8ow22mfNXaL3q+JfEWs2bEW2smm6d2mvR5TZp5w5ewHPPv2YdkSN+WUSOrVrhfdGvqRFCvsFjjA0rFdLCZD1WLtxOz5+9zUMevJR44h0HurVrokY1S5yRGDq+O+KnfGflZOBfRfXYdfFZSjjUgVdKg9A20oP6URd63sUukfbyF61JWXcKqOyRx04WrkiLOUMTkTtRnm3mvDUYYhFh0ItAC57/dUF5h44AIvZs2G1e7f24hcUFunpqtE/j7zoaOTSc+juDgujJ7ewGMI0zr8f9zt8vEti+OCn8WifHujUvpVuDDgMuXDpGqSkpaJF00Y6lOd6cDhx9Pe/qEYqUTUy/fD0Yw+ha6c2aN64Pnx9vLFp6y4EKAOyScO6lz3O5sbmbbv0sDA97buV0b599z697N57CFVUgz+gf19ld8bjk6/Gol+fBzBM/RatmzfRXn0ey+SxFWs2Ys+Bw3j7tRfQV+1Dz/7seUvRsW0rNFPf9cKlq7VQa960gf6tOIrAY5/o+yAOqo5o9brNeLLfQ0qEPIyOqgOYrIRGqhKorZo3xia13/pN2/Sw9sD+j+pOjgKuUsVyOiSMQnHUeyNQvrA1/Kz2s2gRsHGjIeznEWXIVahwxfhnDs+SJYYQHj6P1aoZ1l8P1RZg/nyDp5+hfhTuFAw8F0VASWW0UQQcPw5lARjCi0QEFE3ilXF/5HMlDFcDVYYo4/8DwwhAbo66Z3YA4WqpqtZXfV799spo8+1mXNTrkq3VvRQFRO9T90hLwEk9Ezdsz9V6bvdqAmSreypkoTo2Wn2WulftlKgUiiRss2vXrAY7WztcCLmonTYMr6lUoZxqMq4kcJ6/GIpLl8KwZftuPNC1w1WjvyaWrliLi2Hh+GH0h9pxs2vPQcyYs0Ab33TIsJ+g4X466Cxat2is2untKF/WDw/17Ko/097eHktWrsVzAx6Dq4sL1mzcCt/SpdBWGfdk1bpNsLC0QNcObTBt1gLt+Xdzc8Heg0dw6OgJna/gqNozigE7W1scPn4SG5VoYShSY9VnN2vcwDAi8fci1KpeRQuZ4kZiRiz2ha5FbGoEelR9FjW8m9zXsBs7LQT8EZscgfMpR2ELR3VNzYxbiwYFIQAKPGbksuGvjJvsrCxkHzoEy5kzYUXP3m2E+9wqzBOw2rkTFrNmITs4WHsL+Nmm67jfLFq+Rj3oaXiqXx90aNNce+ppRNZUD/pzyphv2awhtu3cr73RN4JGbFDwedXAtdeNUoXyfvocNBYf6d0d/fv11olT23buNR5hfpxU31/F8mV1A1q9qr+6D3KwWH33jOWsXqWyHhZepwzws6rBZ+PLChPvffK1HmrmEPGZs+d0R9C5fWtUVp0Iw6l4nooVyuq4Uo4OcOjYz7c0bKwNRil/s1IlvbRQ2LZrLwKDgvHnrHkY+cHn+vz0+jDOkzC237uUF8ZN+ANvvP+Zfmg7tm2pHoksHQ/Kz2GMa6GCxv+CBQbPPxN++/UzeP5NnDtnSOJlTgCT+AMCjBtuAJ9/jtrt328oIcp8An6GiXqqIXv8cYPxv2wZoJ5rLSqEokVquHogfwEuKuO/8iCg7ruAc75wMbbLLMnHqj9lOhlCeS4v6n353kC5h5RYSFHnWGGoHPRvuCjDj59TXt0/IUvVvTjRMKeAUKTYp4xmGsJR0TG6PR/01KN4dfhzOtFx0dLVekQ3P80a1cfzA/trB82MOYuMa68mSBn3NKrZvjLkkqOz7D+bqmNrVKuil66d2mH0x+/ASbU9EdHRum81xeDHJSQow99ZF5Fge83cAcbom6CIqFHFX2lUSxwPOIUmjeqp5cq5hzz7JB5/pJfOWahTqzo+ePMVPNijC9Zv3o7xk2do8cECEOxP+BnFkdy8HGTnMkk3BefjApCalWzccv+ITglFRNIF5ObkIiun4G3TosBdCRqn4Z2Tk4OcM2dguXAhLOnVU4b5XUM91JYUGvPnIycyUn82RcD9JlM1FkePB8DHp5SOPzfFmZtwd3dDt05tkZySgsCbCACG/TDWkR5rJ8erk9zoDXmgc3vtkaYRzL/d3GBiNQ30Fk0a6iHcB3t01l54DvmeNcbikzNKRLVr3RxPP/GwriTB5e3Xh+F/b72iPTBshOl1sjb+Tmzs6cGn0c9kMN5TlSuVV/saPBdBwedQo7o/0tIzEKeugcPPrN5gOjeHm180ZuhX86+kO5iXXxikE9yeHT5Sr8/IyNTX6ONdSr8vNJiMf3r269QBnnnGEK9PaMAFBgJK2GuDvmVLg4f2VgQ392F4D73769YZPoMhQYQ5LBxlePRRqN7XMLKwZ49h5EAoGrDaD0N8QtTv6tsVqPkq4HBNOA7vFdNyPRgS4NNBGfU1gLPzoav/3ApOvkqovqbur7bA+TlKPCiByXkFhCIDHSbbdu9DWESUcQ208d2lQ2vd7rJNXrhstR5d5cipCTdl3FtaXv9+Yh9MoUBysnN0e00PPp09vbt3urywgISDg73exzZfcY7tO/eiqmq/eR1sr5l3xxBcQkHC9pv5XPx89vlVlRGf/7xcmLi8ZMVajHj3U9RVIuDJfn3w7IDHdMw/BURoWITOfSiO3n9iZ+UAe0tnpGWkYHvIIsw59B2OhG5FWrYS+fcQTiAWmxqOLcELMefI9wiKPaR+71x4cpJBM6TABEB+zz+N0Cwm6yrj3/pOJgq6DSzUg2e9YwfyFi1CljKoTSLgfo4C5OXmaU80DcobVZ9hwievMTvnxt9RhmqwGNJkY3v9ITMOURI2jrnqM80NDhEzYbdMGR+dnEtotD/a5wHtrTHBSguMx29Yr7YO+TEt9LpQAPB+sbez0981R5LWbNgCZ0dHPVoTGhapnhYLPQRsCi9bu3GbThoziU16rPKfl5/DnI/5i1fivVFf6Wtjp/P9Fx/ikmrwmbPA+yMhIUmP6hQaWO2HhvnWrQbP/5AhhvAcwr/1yBFg+nRD4i6N9d69DetvBT6PNP779zecmwLjzz+vjAQwL4CCg6MNDA+aPdswYnAP2hChAGCpzwtKGDooQVt7hGEG3/yYbDSW8Ey9pO6102o5pZYgQ/UfE/To+7Hmu7ovzs0zrPtX1Mld/ZXoUCLAzk0dN0MdroSqUGSorgxtS9W+MgmXDhnCJuOHXyZrBxrzrxyVkb5u03acDj6nt+/aewB/L1iGPg900e/zc+TYSd03dO2oRKGCBj5z7hg6dPSE4d5gEm/HXk/o0Vtu58LcLyYDz1u8AktWrlNNVindT5+9cFG394aE3lD8OmmaNuKrVamk+wWG5TJ3IeCUup8Vf/w1D48OGK69/CWUSFm7aavqN7Zqx52Dat9s1b/MH+PfQoFBIVMcYSUfZ1t3XcozLSMVAXF7MOfEtxi39XUsOT4RgVH7kZwRr5NzCxqeMy4tEodCN2P2oR8wYdc7WBU8GSEJAZftLi/nols69k4o0BEAkwDIZtz/0aOwZuf+Xz3SNLKMhtYtowxgmxUr9MhDfgFwv0QAH/IK5cogLCJah/BcC69r6669emiwQrkbV1ShV5qe6CPHrt+ZMQE2PT1TJ5XeTlnR4sK5kEu68WWoj2mUhSE8jONk6I3p12csPkOyGJPJe4PfW7OOfXQ1iHJ+ZVQD7aY7AX7Xq9dvxk8TpqKkF0N8rHW9XXtbO/398tgOPR/X/7IzoQjgkPDiFWv078z1H3z2Leq37qFLvjFPg6Xt9h88qm/p8MhIvQ+vh2FDDBViYnihgAm9DM/ZtMlgoA8ebKjSQ/gsHzgATJ0KREUBTz8NdOpk8NbfLiz5OXCgYQIwnvO77wwJwoQigHMCMByIVT4mTzYkB9+n51i4RViFJ2QFEKoEW0X12zIO/3o1tinSLdKU5fYqMLcG8Hc1YH5N4NBXxh0UDBEq10vtq4RxwCToUqK3Aj/PS91T5Z4ALu00hCHdSgiRUCioUL4sPn53hC6k0KLzw6jasD2qNWqvjeNZU8bpvpKVeOjcee2dUXr7My+8ge+/+EDnbV0Lc7wYpmnKG2A/wdBLTij2zkdf6uMff/ZljPnyI52bVbpUSbz4/DO6ck/TDg/qCm05ObmoX7uGPrZmtSqqT/DEw08NxYAXRsDV1RV169S4HC40+JknULtWNTz4xPP63Bu37cCXo97WCcwd1Oe+8/owvDTyQ73t069/RL+HHtCipmI5PyQlJ6NW0856ZLm4weo+LLnJijwdKvdDN9U+2Oe5IDz9DLaG/Y2J+97G6PUD8fO2EVh47BfsOr8SZ2KOIDI5BKmqXcnMSddhRMqa++d/ql/I4YRg2WlaRHAW4YDIfdrLP+vgt/h+83B8oc497fAnOBC9CnEZEfCxr4J+td/Q5UKpATwcDeVmzY0CmwiMBg1PlZmZiazQUNj+8ANs/i0m+Eaoh9zyvfdgUa8ecqdPRx5nHb0NMho0QNa778JOKWsabzQG71eJzFXrNquG5iudXPT6i4O1Mcj6/0zeoKfg/U+/RYumDfHzt5/CxeX65R/PKwN34LCRerTg3RHDdDUbw3Botq6LPPL9L/T3P2HsF9pbbW6wwgOTrRhuw3h9E/Tg0EPD4dV3Xh+uh2n5fu6iFfpe5TDwGy8/j8YNDEk09NqwUQ4Nj9Sxmkwapsd+0FP9dJ3nH36ZpD+HjP7oLXz300SMU79bGd/Selh43G9TsWvfIb2doo2/qQnmI4z5VRmyRv7+81eUUh0Jqw0NffU9nTT24vMD7iih546hl33zZmDGDEO1nwEDrtT5ZxgOk3fnzjUY5awE1LSpIUmXM/q++CLQuDHw9tuG/a8HxcWHHxqSf195xVDtJyXFkBi8ZQtUbwq88ALg768MP2O43O7dwF9/GXIBvvzSUCZUKISobiRGibRdw1X7rX7HRt+rXlUJgOsRtQ84re4xJvqaCFeC09YZ6LhAHZdvLgxOHHbyC6D6B0oUvqNW3KJTKFqJyv1vGERry4mAuxIagnCbsMrQ20oozJz8kx49Fv47rAK0LPA3NPTtjC7+T+nRgODYozgRvhvn404iMSsauZaZyEE2srKzkJWRBcs8a9jZOGrh4GDtDHtbR1hzEkHVDrAloADIys1EWmYy0rNSkJGTpoRAOiyscnXUhbWVjfocZQNm28LLoQwqe9VFDe+mKONaGQnpMfhlx0gkpcfjwy7T4caSw0WIQjMTME9BA5Re9/S0NGDlSjhOmQKL/+j9t2jVSgsAxvb/FwHAicKS3ngDNq0ZN2ijF6p3LvcSJpcyU/u9T77RE4dUq1JRx/Gz7u+RYwE6cZS145998lE8P/AJXRnmetAj8K0yNjdt240ySkC0bdUU5cr4amHARKKIqFg0a1QXH73zmi4Fmr9KgrnDcm/R0bF4aehA45pbIzomDoOGvYF33hiONi0M1R7uJXwqWWrOxvrqvJG7Co38FSsMC8N+mjRRD6PxmaEhPmmSQRD06QMokX3ZSL8TAUBYGYyfqdoNLQI4K3ClSoZt/CImKgOOIxLffFMwcw8UI7Ky7/E9ciMYvhM0TfXy/wNqjVAK+DVDmc5b5agSDCeUoe+vjmvwviEPgCQGAWsfBHJVv/LAVkPFn1uBXn+Kh4DxQLMx6n56/Mo5BeEW+XvhMh3COWHs6PteYY92Vk5OHqyt748z8045EbELS0//hjLOVfBQjRf1iAChEU/vfWxKOCKSzyMq+aKuFpSQHo3kzEQlCDKRx1l8LWiq5uqQHh7DnomJ15wiTO2gFgtY5lrD1tJBn9vV3lPPJFzKqRxKuZRFCT3PwJUy1cGxxzDt4CewyrPDOx0mwzbftqJAoZgJ2KQfaPxrAZCaCvs//oA1jYL/gEX9+rAYORIWDDtQBkke441vcyRBqRrkpaQgUwkJhoTQ+3+vBQBLdzJZ6ZdJ03XiEJNA89Tnc1IR1iVOTU/Xkz5xaPPYyVPwVsY/hwkjo2J0jfr4RHXjq+/Tzs5O14nnpCGsQezq7KyHJ/fsP6wM/xg9ouDrXVLHJrK8GIciWW3GNCRp7jBJi7WVWfHhduD8AJxYhrWa70dcZo4S1CfORqr71xJO9vdI0FGwM2E/ONhgzDNMx8TateqmDjN4/ps3Z4yVcYNCPfN6ngDur565G0JDn+VEOdFZs2aGGH9CIcHyocw9OHXKYORXNFbD4DPLNoDX1KXLlXAkQbe9J85Fws7GCvZ299m4zYwDAieo30sJgSoMG7vNkUga9meXAukhQMmWhhwCwlKeDP8JWwTYKvFZqoXhnvg3aOwzATh2uxID6pp8O6n77D+EqglmDWdp5wgv6/QzmuB+kpGZg5Pno+BgZw37G+QDFmZSlDEfHHcYmVkZqO3dEvY2hogH+vI5F4CLfQn4uFZEZa96qOXTArV9WqF+mbZq3xao7tUUNbyaoZpHY1TxaISqaqnm0RTVPZuhdqnWeqnv0x5NynZD03Jd0civozq+JSp51NbGP2cUvrbsKGcCDojbBQ/bMmhZoadxbdGh0MwDYFCmOToJNeP8eTgvXAiL203aY/JlmzaweOEFWLBKCA2M/ygACMuDpjZtCksXl8siQK+/ByKAZR0n/TlblyWrpoz2Z57oi34P90TrZo1Qp2Y1NG1cD906tkWfnl3QpEFdODs7quuz0BOKLFu1QU9ssn33fhw+elKXQ2NiaoN6tXT9/45tW+gqAo0a1Ebndi114lPb1k1R0tNDlxHbsmO3HgFgQiqPM3f+qwDgxDA+PqXRrtX9qQ3MZyo0OglnLsVqA8/V2V57PO4qJgHA5F7G5ucXAEzEjVGGWLt2VxKCTdypACB8LlkNiM87w49MIwDk4EERADfgQngCLkUlagFAoXgPmrfrw0o9R8cA7uq3q/w0YGMc3fk3Inep++oQ4Kmez+xk1XiuVPeFMv45AZhpZk6Kg3NKACSr+5JzBtzqTL80+DnnQMxRJSgfVQKikOTZCEUGzitQr3aN+278kxzVJ5wPj1fPfBycHW3h5FC0Rvozs9NxOuYg4lOj0KBMezgyVPAGmESBnbWDMt7d9CzBjNP3cvJFKeey8HYpp5dSzn7wdPRBCbXNzd5TndNFhwvR2DcECd2YwKi9CE44jAputVG7dEvj2qJDoZgHgIaKKfyHAsB6505Y3mbtbosKFWD51FOwHDIEFsq4yGMowB1iqYwSywMH9DXx2niN9wKG9DDGnIZ8+9bNddLPQ726oqoSAowr79HFUMufOQEM16lVs6pObFq4bA3mLFimRwBY6tNGNTj8gX/67U9s2blXJ5lWr+ava9NzIrGHe3XTU49zwhQmvz79+EN4ZehAnfDEWQt3KAHByaWE/wbLtg7s39f47t5Dz3+9Kj4oX9odJ89FISgkBrnqWRMEE3Rm8B7xcHPE8bMRCImMV+3cfbhHWLkj+SyQEQ24VAVuNZY2NcwQprPvTSX+jgNleyrj3keJgg1AUr6yyK5KDFZ+Vn1GkBICDAe9xb/RwRtwVtfD2YGTil9ipWBe0BHUqHoZeJVwwqFTYQiJSLjVJ6FQ4GDrDFsLJyRlJOj5AG75Ob6G+PRoHAvfidPRh5CT+99tnIS0GF3/nyLCXLljAUBoXLNsIhOA/1Pib8uWsHj4YeSxjOWvvyKXSX93iIW6JqszZ64SAKZwpbsJK8us2bBNG/s0yFli8kajDryeabPmY8bfi3Wd/7deHYpR772Ot157Ae+MGKarBwwe8BjOBJ/Db1NnYduOG0/0RRHRollDPPsUpxe3xZKV63UYklB0sVYioEpZT1Qr74VzYXFKCEQiO+feCFmhaGCrjIKq5bzgV8oNpy5E6/uE4WP3FtWuJiqDnSM6zhVVr3KL4UghK4GYnco4DwRO/GIo/ckJwKIOAuFbVMdi6txV+1ntOcCmFHBh0a0b87wOigeGSySeNq4UhKILRUCtit6o6Ouh+4PgS7FFxjFka2WvQ3Eys9OUCIhT9o9xw3VIzUxCTGqo8d0VmBewIWg2Fgf8igUnf8TukNXGLbcHJyXj7MRZmVnwcjTPEqDkjpKATd5/Gv+pqalISkqCxwcfwCH0nz/czbBkOcGyZZG3YAHyONSvzmu1Wv2wCQn/KQlYo4zu5Nq1kThyJFxcXOCgDGwO4107GVdBkpiUjB9+nqTrw3/x4Zs6Wfdm1YdYB/7Vdz7RuQCffTASlSuW0wnL+eF04QwH+nj0D7rW8CfvjdDVbG5EcnIKJk//W48msGIQRxyuPeedkJaRhb0nL+JcqHHypkIOfxMKwPudwHUn0Kubqr53BzsbtKpbHlWUwXdXIj1MScB89pgEzDAgE0wA5qRfTNCtXt240sidJgGbMFUgYvnPzp2NKxVTphhyEO5BEvCxM+E4EHh77VdhIDsnD+mqM3NxsEOX5v4o7XGLITgFQW42cOB/wKX5QIOxyoi/hXjalEvA1qFArDL2mSycnQB0WmrYtnMY4F4VaPilMuD9DevYTR34GDgzAag9Cqip7rdbgSMGB19X18SSs1eqct1tilo7KRQtctgnpGfB081R9wllvQt//8ZJuFYHTsemc3/joZovo2nZrroS0LVk5WRi6YmJCIjcg2cafQg/9yv5RIFR+7D45HhEJIYgJy8L3s7lMbjJZzos6HZgPsIfez9FUMwhvNH2V5Rle1PEuO9VgHioKfQnOTkZiYmJ8H3zTdiqf28LxtfRS868AV4ODfU7FQCK1MqVEfXuu3B3d9cCgJ5xU0Lw3YAz8Y7+/he4ODnh43df08m4N4Lf28gPvsDy1Rsw5ddv0bp54xteF6cv/23KTG3UvzZ8EB57uJdxy/Vh+M9XYyagScO6eHXYILi5FqwxQA9jUZlwjBUcomNj8cKzTxnXFD3Y0O86dkE9FlZoUbscHO0LTtBdxZ0KAO7PicEuXgTKlAHCwwEPD6XwlQgOCgLq1QPGjAG81HNRSAUA7+t770G/c2IT07D7eAi8SzijflUf2N3LJEF66ne8BMTvUCJwPFC6jXHDTTg9HTjyvvo91W/t0QDYNUgZ6c8Azb4DDn1h2N5yHFCxr+objEZCQiCwqhvgpu6/1r8BqvP/V0I3AvuU0PDqqs73i3HlvaEotZNC0SIxJQNbD59DqRJOOizIrojM/7Pt7GKsPTcNLXx7o0uVp/+RmEsOh23RHn5O3lXFvRFeaP7l5f2YuLso8BecizGU47a0soSjhRsal+mMlhV6oaQSArdi30WlXMK0/Z8hOjkM73WcoisGFTUKQgAUfA4AEwJvFxr+6lht/BcgzAPg6MS9CgEKj4jU5T6rV6sMJydH49rrw9r0B48cR4O6tdCqWaOb3rS2Njbo0r6VNgCZ1Eov/80oW8ZHi4/A08F6BKGg4TwGLD1YFBYLizxdFep624rCkp6VjR1Hz8NBGf1t6le4e8Z/QUDDmVV81q8HTqgGevt24NgxZdAdApYuBSIjDUK/EMNk/Ov9DoV1YZhYXFKaHrUoW8rNYAzc8wohql1lxR1OwmVxC59N7/8FdT9kqOMq9AMqqcW1MRCxRikZJTL9lJHvrDrkS8uU+lUi0gSH6isrwZByEgjbpD72FoSaNhzUPZdz7/OhilI7KUvRWKytrJCSlonNB8+ibElXNKtVtsgY/8TZzg121vbauGcpz2vh+j0hq5TAiYOdhROC4vdjb8iay7Zb2RLV0K5cP1Qt0Qj1SrVDfa8OUNYndoYvxk87XsPfh8fgrBIJzDHgxGE3Qs86bJkFFzv3q0qDmht3JABMP0p+EZB3k5CXew3LbvKauNwLWO4zKzMTzg4O2vDmDK/XLpycKiUlFbHxCcjMykGtGlVuGiZEKA7c3F3h410KMbHx+jycNfDac5sW/ip2tjY6LIu/i1D04KMVFZeCjXuD4eXmpId5bVUHUKjhfVy7NtC7t2EmX1btadjQMGFY//6GOQSMbYZQMLAC0IGAUJTzdtMJwfenRrgysFlxhx3uvyXlcZ8IJQwTDirD/yFDiI+lLVDnTSA7BQieDbhVBUq2BUKVkR+nBKSpI7d2VBZAH2XMK4Pn4iolBC4a1t+MHCVMKBSU0SEIRRmOJl2MSsC6vUGoVr4kGiqxT5FZlHCx9YCNpR1ilLBnSFB+GJd/NHwbLiUHopZPczxS6yWdN7Dl7HxEGZ91KwsrXUHohRZfY1DTj/FMk/9heLNv0aRUTy0uDkdvxKS97+PvI9/jaNg2RKeE6jkGVCOgjzfBHAROGBafHolNwfP1fjm598ZOLEzc8d1D4z+/AMjkLKGFhCx7+8ve/3sxAqC9+Gph1Z7f/5yFXyfNUMv0q5fJM7Bg2WptqPOmzMm+9ZuO3klLSyucOXse02Yv0nMMXO/8f/w1D0HB5/W1CEUTNkb7Ay+hkp8HGtcoIg097zeG6HACsXLlDMY/Z/VlSc/27ZWx52oYJRAKBBoEAeej4V/WEzUreev24f6gPpdD6Ky3nxFvXHcD6NEPVcZ7jmqLy7Dqj7E0p19XoERzIFIZ/YnBals3wMYOOD9fNeRsKxUcYeD8AuXVcXH7lELeo76Efyk3rTp6PTpRxGb5FIRrSc/MxvHgCDSu7odaFUsZ7I0iBifo4sRbCWnRqo+78uxyNOBSQhAOh21WbYMVmvk9gEZlu6BeqfaIzQzDjnNLjYa8AStlB5nKfJYtURUP13kRT9X/AK3L9IWva0WcTTiCmYe+xqzD32Db2UU4E3ME8WlRWmSQpPQ4ZGal6ZzQ9Wf+wuwj3yIgci8ycwo+YqIwUyBWRX4RkOV489CXe4Z6OCgATNdmWu4mDLtpVL8OMjKVkj1xCkeOB6gl8KrlqFpOBZ2Do4M9nB0dcDzgFFI5e/JN4HWzPGhoeCS8PEvo8wecCtLnuvb8nGGYuQjMe2hUr7ZMCFZEsVTGDhv62sqwK4oNvXAPULdFw2q+8PfzNHaF9wnen05K8GWkGEpu3gh2+NH7DSMAZToBnvXUscZRLSsHw7r0SCD2sGpMW6jtzYBLa5Sxb4j31XBiMB8lFnLVZ4aqbdz/ZrDUaIZqX50rGFcIQtGE4X4t65RDBd9bnAejEMI6/TZwUAZ4vE7ENZGqXh+N2IbI1Ato6NcJ5UvU0N7+Tv794WpdEsejdyIo5rAWCteDOQJl3augW7Wn0bf26+hc8Rld2z8lOw4rAqdgztHvsOLUZOw8vxzBMUcRmRyijP0M1PFuixZleyM6LQRLAybgeMSuq4RJcafARgBMxnUavXyFAF5N+rVJhncZVul5acgAvP/Gi2oZft3lPbUM7P+I2rcyGioD/dSZ89h6k/KeJDMrC2s3bNXfce2aVdG4QR28OPhpfa7rfYZeRg7HoKceLfAE4OtBTyTjEoWCg95cL/dCIqbNGD5zGZnZhbL8qqUyvD1cC8GIKz3zrpWBLNVxJgUbPO7XIyNWGfSc40W1zjTi7Y2z/ZK8LCDmoDLwlXHDsCDW8Pfrqc6dAwRN5w9h2I+CgZOGMdGY3sJLG5RAOGko83lt+JHq4JEUBGSrY03VhO4j0k4KdwJL/ro6Fe1QNjtrRx13n5Wbrstwkpy8HJxTzzCTf11tvVC5RD1lhGchMT1Wzx3QwLejeh2DA5fWIS715oKfQqC0S3m0qtALvWu8gN7VhqOjEhGcROxExB4tBhYH/opjkduRkZUOVzsPNC3bHY1Kd0dCRjT2ha5CXFqE8WzFnzsWAPRO5vdQxlRWHUFhQF1T/F2uGHItDvb2qFShHOrUqqbnAbjewll8/SuVh4uzE/o99IAeCfhtyl/Ys//QZRGVHyYxz1+yUk8sVrtmNTRrVF+XtKxRzV+f63qfwYXbOIX53Sx7SrKyc3DkTDgCzkcZ1wjCHZKvPbmfGGJuE3H4dJiuuiHcCI4AlAccSwPJp4DU63SgjONnPP/F1UDJZkApteSvABK5Gwhfp4z75oA3Z5NW51QdP0o0MNT+j1XHmnBQn+PTWe2iznliNLBzKLB9iDp+m3EHI/T+JythwJmEncsZV94fpJ0UBMDGyhau9h6wUmKGITmE3v/D4RsRmxaqJ+daHzQLfx34CjMOjMaM/aNxPGInMpWxfibuME5F779hci/tp/SsFJ1InJKVpCv71PJujs5KAPSp/hIerfUampfrAYs8Ky0ocnKycTByPZYoQXAm5rD6jEw9KpE/1Ki4UyAhQBQATGTlElOtGjKUIXy/SXNyQlzFivqarhUphYV6dWrgib69cSLwND77ZhwmTp2JEwGnERkZjbDwSOxWouDj0WPx04Q/dUz4Qw90gU/pfF6z+0xGVo6uPhITn4oKPkV3WFK4Bfj8sFJXrMFrc1fg/CGFyPi/EBGPE8ERcHdxgItj0Zp2/57D0BxvZdTT4I4/aVyZj+xU4Nw8gDa/b3clFnwM6wkdH8fHcUgDKP/olbwAjhDwvUU6EJCvhCeFg097wP95wKWWaojUuaO3qs/NFypEKDhSgoHSSlDY3r866dJOCoIBxu272XvpkuzRqZf0OiYD52Tnws7CGbk5uQhLPIcLcacQEnda/xuTEgYHK1edO3CjoiYpmQnYHDwfk/d8jAk738XEne9h0bHxiEgOgZ21A3xcK6Kub2t08X8aD1R9DmXc/PXogrdjRT0ZWFpmEsq5VUfzMr1Qkg4DM6FABYD2NtPw5kQ/95lYHx9YODpeFiaFTQRExcRi4h8zsWjZamXc5+m8gF8m/YVnX3ob/Qe/iieeewUvjfwYC5etQYzaNy4+EVP/mofV67cgNfX+K1Q90c2JEP0vk1Q5IYlQTGDVLNOcHCZq1AA4v8eiRcCBA1dvu1PYqPO8nIOAOURKuF+G2zLvbdgEPUnnw+Nw6HSYrrZR2c9Tl+ATboKtixIAHYAEJeIidqj755pSxfGBwNn5ymCva/Dsm2L/SdgWtajfvoQSEH5d1ApjO832ulxvwLkmcGraP0cBar0GtJ4MVBsM2CiBlr+KR1YyEK5EQVKUEgCdDDkG9wFpJwXhauiZt7ay1oY9cbErgb51XsGbbX/DyPYT8Ga73/Bm+6sXrn+l1Rg0Ltv5H5OHpalnff7RcVgVPAXnEo4hMS0GYclnsSd8KSbt+QAX44P0fjyOOQj2No6wsraAl7Mv+tQchqHNv8QrrX/EkGZfqPN3ga0ZVQy7IwFgMqpNRraeaVct5+vWRc5dDj25Gfzs4EaNtCDhkl8E3G9oXOzZdwgvjvifNvjZ2b32wiBM/PELPPloL5Qu5alj/tWeqF6lIt55fSimjv8OfR7orCv7fPDZd/jyh19x8ZLh4bkfMI51z/GL6jpzdBKis6OdFjGFccnLszCUg73OtqK4XC9MrMDgM1uihEEArFplmNDL9Hks5fn884YRgGnKGNu92yAS7pT0dMPkXwsWGD771VcNVYMIjf8tyjjkPAKcUMzZ2bD+LnM6JAY7j4agiTLYynobvNHX+y0K63JX75EbwVKeXg2BUsrAj9qgDP4A4wairueUMtTtVXdT/qF/ev+PjVH3nmqbqypDnqU+88OcgKrqvrPjKMBEtcL4t7Et5wzCtq7XN+45n0CMundKN1bXVd8wanCP0e3kiaLRTspSdJf78rzfASUcSsIKNrr0JrGwsFSGuSs8nErD01Et/Df/wnVqcVfHsSzotWwOnocjUZtQyq4CBjf+DB93nanFRC2PtkjMidSVgDI4AmmEYT7pOalwt/eCo42LXlhClOLA2rIQz7NzFyjQmYCTkpIQGRmJBGU4VFMGhN/ZsyZfzu1xBzMB09gLqloVwb16oWTJkvDy8oKbm9s9mQn430hTxs6a9VvB8qDJKcno+2APDHyqLzxp+Cj4feqJy4zDXDb8HoxCKlt9zwwPmjpjLrbs2KMTgUe8NBhVKxvCnO4VvLbA89HYfOAstQvsba0LhbC6EZwvgcOKbm6FIzn9TqlT2dtQ793qLv3mKSmGmYApAFjKc+BAwM/PYHBRmO7dC8xnaUb1uk8foEULgJP/cSbgxsrYevtt44mug2of8OGHykgsBbz8MvTMwzT89+0zfMawYYC3t2Ffev137jRs5/1N8VGrlmHbXSQhJQN/rz2iS+5x0jWru/U930U4YVxF3xI6SfieQq//SWWkH/4CqP0aUFMtNNAZirO8HeBeD+gwHVAduQF1fZypd9MjgGdLoMsS1fZfx/uWmQAsbaPuOSU+uyxTFgTvA1O3pc5x6g8lEpVwrP21WtS/LP155Fsg8Heg0adKQDyrRMK99eoVtXZSKJrYqPapYXVf1KhQeEKD/43wpAv4fc+7sMi1xLudpiij+0p4pbaBcrPU022wga6FIUQ00ikaSGpWMr7e+BxsbGzweJ23UIVi3whHBibt/ggXUo+if6330LBMR71+f8g6rDgzCdU9m6Jn9SFaABRFCmIm4DsSAIQCgEYrJ52iAIiJiUF0RARsjh9Hg02b4PxfZgam1/5r1Zgr4y1v3TrkbbsmuesmJLq4YGePHrDz99fGv6enJ1zUOnt7e8MIhdGgvtdkZmZh49adGPfbH/omHjb4KXTp0EaJkttTnCwHyh9+7qLlOin43deHo0L5exuzlpqehSNB4XpYu2bFUijp7qRstMLZuc1ZsBTR0bF4aagyZIVbg4Y6RYB69rRh/swzBjFA6PU/cgRYvBiIigIeeMBgmL/7rjK2Gt2aAFDPJR5+GNiwwTBjMCcP40Rh9PITjgrs2WP4DPXM4okngLp1DSMU94CgizG63nbNit4oX9pdV98QbpG448ABdS8kn1OCcAzg0xbYocTe+T+Bkj2BisrYN5XZYyd+dhYQux1oNVPdY70M669H4BTg4OvqfA+ppYuyFIzhPlaq/aSIuDhN3SPfKdEx3DBJ2IF3lOCoCTQYbZhY7D7AdvKoaidTi0A7KQj3Cs7C++v2NxGVGor/dZ6mcwJMxKZGIDBqH5IzlYi/DvbWTqhWsjFKOvtpO+piwml8t2Uoqnk2xvPNPv/HrL4bTs/B6guT0drnUfSuOVQJjFxsPbsIq05PRbuK/dC+Uj+dI1AUKQgBYDVKYXx9R5gm2+JoQJYyEpLVumzVkbvHxcGaIQW3g9IkeWvWIE8JCFy4YFz576QqI/9EvXpIUca/a4kScHV1hZOT02Xj/355//m9sDb/+MkzkJ6WgReHPINO7VvCzu72EwudnBx1uVEKr9UbtmoPd/MmDZQCvndD3IyHZixrclomLoQn6PcuTnb35bv9N46fPKVzJpo2uuIZEP4FO9WIsoIWfQOM9z9zxvCeI1U0wuml5xIZCezaZTDs+Zz6+ChDjhVcbgC9+huVscb9zykDMSTEMILwiDIKTcY/RwUYXrR0qeE6+vY1GP8UAveIEi4OcHKww+mQaGRkZet7W3IAbhGG7DDTN3QtoDpnuCtxyNl9GZOfHKqMc7U+VAnL0PXAJfVvZri6lzopEfgGcLPhd5cKQPhOJTrVctF4PJeLawyfY+sMVHjMIAwOf67Oq+6xGkowlGpuEBr3geu2k46Fs50UhHsFJzM9Fr5LCYAQNCzTSQkAT+MWqPU7tXEeoETApcTTOB8foJaTajmB09GHEBC5H15OvjqJlzH9nNF3d8hKuDt4o0GZDv8I4eEEYGcSD6G8S20lHBoiOzcTJyP3IijqCOqXaY+y7lX/kVNQVDh2IhDpqr9s0rCecc3tU6ACgIMJFAAcEUhX72NtbWGVkgK3xERYqfd3kwwbGwRWrYpLylhw9PTUYT/Ozs5wdHTUoT/3UwAkJadgzvxl2H/4OJ56rA8e6NIejncwYzLLjZYv54eQi2HYsHUnKpb3Q5XK93aiG925uToqsZeLM5di9Ey1NJwKGyIA/iM0vun15/PCsB8a66VLG7z3XFeyJODrq8P0tMFOkV+mzL8LgM2blSGnjD6eo5My/LpyBlhDCJyO+d+xA1iyxPD5Dz0E1Fe/m3p+7yVsI2j0OzvYIiQiEUmpGXBzthcRcCuwM1UdNLLS1D2jfkfO/FteCTyW7fRVvzeH4Tnhl2nxUUul/oCzunduBr10rtXUvaLEYBl1rvzn4FK6ixIJFdUD/wMQre7XqkOAiv1UQ3V/k27/0U5aFc52UhDuFTS4g5QxH5ERjKoejeHtUt64BbigjP1TsQdQ0b0OWpTrhapejVDVsxH8PerDxtJOVwiq7FkX5dyr6Zr/1la2OHRxE9JyEuHtVAElVdtjsvGYZLw+aLau79+2/MN6foD07BQci9iJ8KTzaOLXVX12ucv7FzUKlQAwRRLRM00xoMOC1HuKANvkZLgoIWB1Z9FGN4TGf1D58giuXRs2pUpp45/efwoAev8ZH8bQH/7Q9/rH5vcSeDoYE6bORO0aVfD0Ew/r2XzvFGcnJ32eDZt34lTQWXTr1Bb2NJruIezMOBERO7m0zCw9xF3YEAFwB9DwpgjgfUUjn2U6afhz4XNEw109d0pZK0vHxmCsV6liPPg68PmPjlaGnKvB+G/dGuphvbKN4oDVgPh5HBW4D8a/CbYTTkoAuCohkJmVrV8zjlu4BbSx7m+Ixb+4UP226v7wHwD4KcPdq8E/F0dj3se/wfJ81zueC+OID48GIjcoQaE+q8aL+XIN7i9XtZMZqp0sUfjaSUG4l1xKCMKF5GPwcfRHRY/axrWquUg4jeD4Q6hVqiVaV3gIFUrUgJ97Ffi4VtLzBQRGHoC/V33DTMGWVnpegaycTATE7EFMWqjOlczMTseFuEBsPbsQZxIOooJrXXT0fxy2VnY6/OhE1E6kZiWiSdmueoKwokpBCIACGRtlZ0nvOr3sdqrzptedoTfOLi7IKl0ah1RHHqgMiay7EMObqj7vqL8/TjJMQBkmNPr52Uz65bXk9/zfa+OfUBBt27UPGRmZaNOyCXy8Cy5ZhxN+tVXnPBEYhENHr6mBfY9g58Y46Uq+xhAOoXihniV06QI8+qghzIcJwIzbN4l5jgowGXjwYKBNG8O6G0HD/sEHDYnFHCkwzdTNc61fD8ydaxATjz9+X41/E2wvPNwc4e/nqUcDhNuAxnrd95RA7A+ELAB2vaR6/Y1qQwE7gXjvMCRo5zBDKdEKyvivPfLqSkOFgMvtZBlpJwWhhIO3juE3lQK9E5qW64ZmZXogLPEs1p6bhgWBY7H8zG84GrkV5d1q4eHaw+HEYgSK9KxUpOUkwcXeXQkCGYm7YwFgMqrzCwAa3zTEmXzr5OqKXG9vHGrQAPuqVkU6PYUFALuRBCU09tSogcDatWGhjH8X9Vn6M40CgJ5/kwC4X1CR7txzAJ4l3NGgTi3dERQUturv69a5HTIzM7F1xx7j2nsP7wHxjhZjGK7Wvr0hHv/8eWDePODUqSsigIY8w39MBv2NYFvBUQPmD1AMEJ6DycY8J3nuOaVs6xhGFAoBbN3ouWWIm3CbOKl7otHnQK13gcidwB5lpB8Zo3rhaOMOd0h6FHD4G8N5o/cpw/9/QMOPCp3xb0LaSUEwwJKfuTkWl0uB3gnOdu7oWnUAnqj7Fqq6N4ED3FHaoTL6VH8RT9Z/R48emGAIEEcSXOxLmFW9/xtRIL0aGzYuNLRpdFME0AinMa7DcdRi6+GBgLp1Ma9tW5wqXRo5d9ChZqtjj5Urh8WtWuG8EgB2xoRfLiYBUBi8/yQ2LgEhF0NRoXwZlPEtbVxbcNSpUQ3ubi4IPH1WlxkVhLuCSQQwNOfsWWD2bIMYuBNo/DMpmKMKjP8fOdJQUUg9t0IxgUnBDT8E2v5Fbwhw7H1g/aPq3lms3l8zWditwoTiYCUY1z4MnPhY3TtWQAd1D9V7G7A1ziIsCEKhhYm/uRnQ8fmZOf+0WywtlN1mfP1vcCTBydYNdXxa44l6I/Fii28xqPEotK744OWRBhPp2alIyUyCi63HdecUMDcKzK1lMrIZa28aBTAJAHd3d724qNc5yvjf2KIFFjdtigAfH8Q7OiJTdfgUBLnqeNbxN8HXXEeDP0PtE+PsjGN+fpirDP8dTZpoTyLPaTo/P+ta7//9MvxNJCQmIj4hEX6+Pup7KfgwAicnB1SsUBah4RFISfkPJVcF4VaxVw0mRQCTczlJ2PTpBjGQzAovt7mwEhCNf87xwVAfGv+VK7MhMX6YUGxgYnD5PkBXzi3xnPr9TwHbngZWdAGOfA/EHAQyYpRhr+4JTthDgyBHWQf8l++zEg3bo/cbPP7LOwE7nwXSzgEVhwHd1wJluxk+Ryg2JKv+LDomFlHRsfrfxCTVbuQjJTVVrzMNRN4rWOgkITFJh/deS666mLj4BB3yey0xsXE6H43wHPy7rreYzsv8QX4H/BuZV1mc4Oy/DMtJTI9FKit2mVC/ZV5uHk5G7sHKwD+x9MREvawImIIj4VvV95ttNOf/+aPT0LdUbQCTg63Uv6a5Akzk5uUq4z8BKelJcLJx0zkB5s4dzwOQH56KNyoXhqWkp6crozRF9fVJeklUxjAnDOM6bsvIyICteu0bGYmSCQlwVO/t1INhn52tf16GC3FhnH+EhwdCvbyQZ6zqQyPfNMpg8vxzYf7B/U78zc/xgNN4cvBreO7pfhj23JMFHQGrH4aX3xqlJwmbN+1X+JQuOhOC3AtkHoC7AA14zhOwZg2Dmw15ArfTjPB5ZCfHCkIs/zmAcdu1GUdo3EEotmQroz5qDxA0E4jbqRr5cLrlAOfy6l6opu6lsoZRAwsb1WMrI4r1wJMvALGByuILUSJUrXfwUfu2Bvz7A16N1D0oHXlxIzQsAmMnTMGZ4PParuDiW9ob74wYhnJ+hopR02bP1wbzKy8M0uGw9wLaNhu37MT0OQvwyftvoHzZq6tXhYVH4vlX3sGLQwagZ1fDxFOEzrkOvZ7A8wOfwJCB/bFp60688f5n8PUpfZVjMDwiCp9/+CY6tm2pRQbnDaKgePOVocWqb8/Ny8GPW15FeNpZvNx8rC7HSQ6HbcH6szOQoAS/wWy7YrvxHrCxsENX/2fQyLezNvRvh6ycDGw7uwTLT07GA9WfQ5tKD+kk4qJKoZgI7Fp4Oj4kVLFUuTT009LStOFvWigAOHGYSQSwYhAXHsfj818SQ3hoyHMxhRfRwKehzzwD00IxwHXczv14nCn8535Cw/yxgS+hWZP6aNOiqfrbuLaAvnKKG/XP3wuXK3GVjLnTfhEBcA0iAO4S9OAzcTcgQBl1xomdbgc+lwwr6tDBEPMvYT/mBT38CUGG3ICo/cpCClYrlSCkxz9bbcvLNQhCGvdWSmBauCmR4A+UVAa/dwuAcb35ZhAVig/0nn/85Q/6XxrZri7O2hP+4/gpShiE63VenvcnmZrXMWHyDG3oj3rvdbioa8vP6vWb8fWY8fjuiw/QsJ5q14xs2LIDb7z3Kf6a9BMqVSyHGbMXYv+ho/j0gzdQquSVibCmzvhb9+cr5/+JS6Hh+PbHCahYoTxeePZJZfcUL6E748CXOB63Fb0rv6gTeVnDn3X9g2OOaU/9tSjLEA7WTqjkWRfuDle+s1uBx8amhGP16ek4Fr4dj9R+Rc8MzFCjokqhFQAkvwjgaABFABeT8c+F7ykAuA8X7m8SAYTGO414hvJwoeffFF5kqjTEf01ef243Gf+mY+83Z89fxPARH+hyTXdLjPD7oldk7FcfwqNE4Y6B5RDpufMhelZkExXK+aFFk4bqd3TQf0vIpTAcUI1j21bN7vjvuR0BcJGfe/gYundur+6lqz1KDOPasXsf/CtVVEv5y/dWqrqH9x88ql83aVQPUdEx2LZzn16fH8770FRtr1zRUPP4yPGT2HvgCAYPeFy/L5Kwrr+6r42q9vbh6AHDivivYL7k8D6KBtIigPQ4JQBS1D2lRKWFEoU2yvi381RisZS6V1Snf7PJwoRiAdvQd0d9jZZNG+Hpxx++7CFnmCu97y2aqr7CwV61x/vRsV0ruLu5IjwyCstXb9D7Va5QTtsInPW1Xu2a2LFnP9xcXVRzlYWTp4Lg4uyEpg3roUL5snp/etoXLVutC3bYKRuift1aqF3jyuzR21W7z1LbDE0p7V0Sy1avR5XKFTHixcHGPa5AkbJ91z78Pu5r/Zkmfv9jljLYFmPDstnaoz/6+5/h7OiEj5WIyM/yVevx+bfjsHP9It1HfD12Ah7q2RX9Hupp3KP4cCh0E+afHAsPOx80KdMNFUrU0pN82dk46nCegoAjDQwzupRwBgFRe3A0chs8HEqjT43hupRoUaZQCgATJkOeRj0XigBTWBANf/5rGgHgepMA4GK6JBrM9PzT+KdhbxIANPb5gPPf/IY/9ysMYT/5SUtLx54Dh/XfePcEAHQicAPVcPE7KMwcOXYSU2b8rb06JmN4z/7DaFivtp4jgQ0wBcChI8fRqnnjeyoA5i9ZiXmLVmDiT1/pTiI/B5Uw+PSbn/CKOk/7Ni0uCwB6adiYVyhXFq8OexbrN2/HmF8m4bGHe10lIoKCzynB6ohnn3oM3qW88P24iVixZiPWL51l3EMQBEFgnznxz1nYu/+Q7iPo8b+WLdt3Y8LUvzD6o7e1c+WrMb/CRvV93J9CgY4chtE8N+BxvDTyQ50v0KZFE20vHD56QpfQfm7AY4iNjceU6XO0g66qfyUtBs5duIhBT/VDXbXP5m27MFv1Iazgx/acjiuGHQ166lHdxl/LK29/jBJKkHz6wUjjGgPvfvwVYpXhP/HHLxERGY33PjEIHIYEmaBjjCMfbq6u+OmbT7Bt515M/GMmhj77JFo3b2Lcq/iQkZ2G7ecWY++l1UjKiIePWwV4O1ZAaecKSgiUQQkl+p3t3GBn5QBrK/alN7efaOwzzCctK1kb/bGp4YhIDkFY0hlEpJ1HXEoU/NyqoFW5Pqjp3Qx2nK+kCFOoBQDhqbnkHw0wLSbD32T8XxsGZDLiaWiZwn9MIsAkBEzrTIa/yfNfWIx/4Z/8/PufegKLLz58C54ehgnRlq5cpxu6rz95DzWr32Qiqf/A7QiAL777GXHx8fjsgzeVwLy6QsDiFWswffZCjHr3ddSuWc24FjgZGISPR/+Axx7phUf7PIBfJ01Tnc9xjFMNeP5z0HO1aPka3enUq10Dg19+W3VGdvjlu8+MewiCIAiEHv3TQWd1nHzjBnXh7OyE4c89hUpGp9HMeYu1gfzhW6/ij5nztINl9EfsUzywcu1GfPPjBLw+fLB2Ij3x7MvK4K+GN18dClcXF91Gp6am463XXsCf6lh69z9482X4+njjYmi49sA3ql8bnZSA+OL7X9C9czvthaeNQefOCnX+Ue+OQJuWTfW15KdV1766jc8/shujRMaQV95GS3UtjOW/EHIJ/Qa+qB1BZXyuVAaMjYvXo8SPPNhDr6dDatW6TXj79WGoVf3KiERxgiLgQnwgAqP34XTUAUQmX4SNElou9m6wtXSCXZ4jXOzcdZUfexsnXbmHYoDJvoykzlH/ZSujP12dh+U9OdFXanYiMpGKtOxkJKTEKSPXChU8q6OaV2NU8WoIb+eysCkGeUMFIQDuaoyMyRg3GfA02k2hO0zcZeUeD/XAenp6wsvLCyVLlvzHwvVcuF+JEiX0MTyW5+EogEkIFDbPv3B94uMTkZCQdNn4J507tMYPoz9E+XJ+SgTm4MMvvtONHzl87CRee2cU+vR/Hm/+73Ps3nsQA4e9oeNDFy1bg7G/TsHEqTPxmGpQuQ89NiboCdql9v9r7mK9jd59U3UGClJ6c7ieC2MtDx45hlJenrC8zlwNMTFxKF2q5D9iPjmKlaWEazk/X/2egoAzNF8bfsYKBJlZmfpzGT/Kzq1BnZrGrYIgCIIJtrU0sBkzT+dNwKkgfPD5d9i2a6/eHhx8Hh7ubohRRjPDdx7p1U0Z1CVhbW2lDXk6aWhgRyghQe//gCf6onxZP91WJyen6LChmJhYHa6z98BhDBvxvu4Hhr76rh6l5ijEgSPHdTveqH4dbWPQtqhTqwZcnJxR7prkX7Lv4BH9WdX8KxrXGAgKPqu9/zwPQ2A5aSfDg14Y9CReVn8bQ11PBJxCjy4ddIJwxfJl9XlOBZ1BCfU3llT2UXGFXnh/z3roVPkJPN3gfTzT8H9oW74vvB0qIjMzAyEJp3AwdDO2hyzBlpB52BgyC+svTMe6C3/qha83hszGtpD52H1xJU5E7EZk0iVY5tqgsnsD9Ko2BEObfYHH64xEq/IPws+tcrEw/guKuyoAiMkgNwkBUyy/KYyHhrxp0jAa9qayoXr+AON7/mtK9DUZ/TwHz5Xf62/6LKHwQs/IhYuh6P34c1i5dpNe56DuBcZUOjk66BGgI8cC4OrspI1pelyaNa6PP8Z/r70/w0f+Tw/FZmRm6oaVIweMz6eAaNa4Af6YZZhQisO0X/0wXk/C9kjv7njvjRfx198LtXeII0z7Dh7VRv+w557CmC8/wqWwCBw9Hoga1arAWt2n+eGwcPC5EPh4l9ShSyYoJg6qTsJe3Y8MVYqMitHenupVKqt7/cqjFRgUrIeZ2amxcQ+PiER6RjqaN2lk3EMQBEHg6PD/lKG/Z/8h/b6qMqYZjz9h7Jfw8y2t86s4t06kat8ZshOnBAAr7Pir/sMEPelOyq7w9CyBgNPKiFY2BD36hMY/y2qW9fPR4oGvJ4wdjT8n/KD7mL8m/Yjlc6diqDLOo1R7zlBQ9k+E/Qb7HGdnR5Qt88/J5oLPntfViJo3aWhcY+DUmXNwsLNHnZrVdR7B+ZBLOpege5f2qKX+tn4PPYD2bVti8/Zd2h4iDElKTErRIU0lvYr37NG02xxsnFHS2Q/VSzVG+0r98HjdN/FSyx8wsv0EvNr6RzzX6FM8UuNVdK2oBJPfY2jp8zBa+j6CdmUeQ7eKz6JvzRF4vskXeL3tOLzR9hdl9H+Fh2u9hJYVeqGiZ22UcPQ2TvwlNmJ+7roAICbjnMY6FxruphEBkwigcZ+/qo9puVGir8n4NwkAoWjAKkVL50zWw7pvfzgaTTs8iLUbt2rPODkReFrXfObvvmbDFnh5lEDHtq20J+TFwQOQnp6hGl9f3ejTKO/dvROGDOoPP9Ug29vZIisrGzlKRKxShj4rRjAsx8raSieDcVj1yPEAvf3HCVPQs1sn7XWpVKEc2rVurj1G/pUqaKGaH3qRLqlzsfIEjX0TDF9jmVdf9TfxuLPnQ5CgxMh3P01EgzYPoE7zrqjasD0eH/iS7hQ+fvd1/XecOBWkRzpq1yyew7qCIAj/BYZFhoVF6NwqOoNMMOmX/T8952zXmSjM4hFl/Xz1iK1p38TEJF2UgXmGTsq2YFnNunVqXG7T2X8og0H3IQa7xFCgge0yF+ZpMXTT1ph4nKsMdv5H6HTavH2PdhLR7rgW0zoeY4IjDjt27UPDBrWVDWNITKZjy7uk1+Vroi3DEYxTQcGqL9yi17F/Y5/j4eFuVvYNa/ezGhBHBhyVKPBw8Ea5EtVQw7spGvt1QZuKD6OTf38982/Xqk+jU5X+at1DaltnLR7KuPnDzcFLCQpDuBBLhapf2Xh24VruiQDIj+lmzi8I+CCYRgdo3OdfuM603bR//nMIRQfGPiYlJ2tvOY3hbWvmawP9nY++xPwlq3Rjuf/QEd0Qcxg36Ox51K1dQ3tLCHNFSiojnN4cNsZs9Buq19yf0ItPLxHFxJade3UyMUOJZs1djIeeHILTwef0vicDgnQITqtmVzzw9PLQG8NG+lo4mkBvP0cp8sf18xrozalaxTDV+IWLl3QntfTvKTi6cw32bFqiq1Q81LvbVcle7AD4dwmCIAhXoCOlW+d2mLt4BTZt24Uzqg8ICj6PuQuX6SptzZvUR1hEJFxdnXVbThHQvHFDjJ88Q++7ct0mzFTtfVm/MjrMlGW4aWwTevA5OkDx4O7uiiYN6+lk4K/HjkfAqTM4HnAKH3z6Dd5V/RH7qurV/LXH//DRk/rcrMl/RvUhpv7oWh59qKfu2975+Eu9P5cffv5df+bzA57QIobigDkH1+a61atTEzWVsFi4dLV2LHFUO0KJF5apNJ3LtAhCQXHPBQCh4W5arhUBN1ryG/+mRShavDjyQ8xfbIjtJ/TmMMGpV7dOOsYzOytbV2Bg/CYTwgk9MiYOqYaY3vgGdWtrDwkbScZ1Eg6Z0oNSXzWkbOj5fvAzj+P1F5/DwP59sXrhdL1w0pjomBh9L5VwN1QYorDgsaxAxOVa0tLT4eLiBDe3K2XdCBPGOLsjG24SqToWjnCYRALP9cwTj+DI0RPYumOPXkchERYWiRqqcxEEQRCuhtV1nuj7oOorVuCLb3/G6O9+xukz5zD11+902++s+gSGhZYsaYiNn/jTlzq0h/tu3bkXjRvW1e0w+w7G6rc0OnpycgwFRlhRhzPzk7deHYaSXp74ZuwEZaxPQhkfH4z9epQWFh3atNCOGxap4Lkrli+n+ypWrLsR86aP1/9yfy5s77/65F09Wz+h2VKrRhU0uM45+j70gB6djoiK0SPZ/Ly1G7ZePpdpEYSC4q5WARKE/LDKDg1tznTIIVhyXhn8n30zDt06tdWe8p79BqHvgz3Qu3tn/Dp5Ony8S+HZp/rp2sljfp2EHbsPYOvqedi4ZQemTv8bo0e9o2djPBl4Gi+/+RF+/eFzHdJDL4yjg6OO9aSwaNmssTLYw7RH/uKlUDw5+FUd+88ELCZ9sfIDq/O8/MJAXYYtP7v2HcTkabPRtWNb9OreSY8WcBj6qzHjtTjlaAbzBkZ9NVYb/aw2YRqViFYCgRPDONjb4e3Xhulh3dff/QQDn3xUd3KCIAjCf4P5VUFKHPTs1lGP/FIAcMR34JN9dZsvCMWVgqgCZDVKYXwtCHeV8n6+Ok5+zYatWgjs2nsAO5Vx7VO6JB7q1Q1ZmVkY++tkDHvuaVQo74f0tHTs3LNfx+0z2Xb/oWPwr1wB3ZVYWLdxm/by9+7RWSdese7z0RMBePrxR3QcKUNxmFR1/ORphEVE6SFdKK1bv25NPaX8hZBQrNu0VSck8/wclmXd6Lq1a2qjPj+MEWXs6Jbte9T5AvUMjpywhSMYz6iOhhWAGArEBOPWLRrr4VzTORjCxtGKzdt262tnfsO6Tdt1+BJFC78DLhyqdnZyuqo6kiAIgnBjmCvw2Tc/6XZ1+679ev4Y5lZ1aNvqqnwtQShuMGGeNhBD2f4rMgIg3FPYULN+swl3dzfteafHPCkpWZfmpCHOus9JySn6JmfYj6sytr8f9zu6dmyNl4cO0gZ7ZlaWPpaEXArFxUvheviXE8IwPp/VhBYsWakrPQx44hE9sYspxp/hOkzOIqVKeurYTMaf3ii+k9fCCWR4/SZYY5rDx4ThSLzW652DMaesMFTFvyIsLSxwTIkIlpnLD6+LOQj560ILgiAIN2fD5h2qjU/Sr9lPsE8QR4pQ3Cn0E4EJwn8l8PQZzFu8En16dtVl4CgMGEoz+ZdvbstIvp2JwARBEARBEAo7hX4iMEH4r3BEgLNFD3nlHbTv+Tje/mg0Rn/8tg7fEQRBEARBEP47IgCEQkmpkl745P03sH3NfGxYOgu71y/W1Rek+pMgCIIgCMKdIQJAKLTkLxPLRRAEQRAEQbhzxKoSBEEQBEEQBDNCBIAgCIIgCIIgmBFSBUgo1kgVIEG4czgzd0xsPGxtbS5Pcnfs5Cns3ncQOdk5+r2XZwm0a938cgnG9Zu2w97BDi2bNrpnuTucDCrg1Bk9v0erZo0QFROLw8dOonvndno+DxMJCYl6gr9yfmX0rNxHTwTqvyU3J9e4hwEXF2e0a9UMvj6G4gN79h9CeEQ0Hnygs34vCOYK57LhnDicw4YzG7PMdlEnNTUNew8eQaBqQ0zUrlnt8mzSJD4+ATv3HkSIamNIN9W2cDLSe41UARIEQRDuKuzoOVneH3/NRUxMnF63c88BTJw6E5YWlnBycoSNjbU2qKfOmIvQsAi9j52dHTgz9r0kW4mRA4eOYf7iFXr2cIqB6bMWIDk51biHgVi1bcHSVXriKLJPdfqT/pyt/5b8C+cs+WPmPMTGxev9Nm/frWeaFQRzJzMzCzPmLMRU1S4sWrYaKalXP2NFDV7/0lXr9CSfdFiY2oAfx0/BouVr9D4UCKvWbcb6zdt1XmJIaBh+GPc7LhnbvKKGCABBEAThhnCSvJCLYXq2bRNLVqyFo4M9Hu/bG0899hCe6d8XD/bogpOngnD0ZKDeh7NiN25Qt8hU7nJydNB/S/6lT88uWhyEhhfNDl4Q7hYXLl7SArtDmxZ6Jvyz5y8atxRNOMK5adsu1KhWBYOeevRyG9Cofm38pEQAuRQWju279+l2baDa57Vhz+JcyEWs3bhVby9qiAAQhGJEqGqgPvz8ezz9/GvFymj5eux49HrsWazfvM24xsD5CxfxxvufoVe/Z69annj2Ze3hNTFhyl/4ZuwEmHPAY3hEFD775qfL39HEP2bi4aeGGrdCh8G8/OaHl7evWrtJfV95eubq78b9pof6x4yfjJOBQXrma86ObfpCrays9JT0n77/Blo0bqDXceI+fu88B6esnzJ9zuVzf/j5d3jrf6MvD6PzOmbMWXB5+2ff/Kg7WxMr1my4vO3FNz7QoQf5eWzgi3rboOEj9fUWFCW9PJCbk4OsrGzjGkEQyJoNW+HlUQIP9eqmR/oClPjPD9vrOQuWXH5uv/rhVyxesRbPv/K2fv/Wh18Y9wQiIqPx1ZhfL+/L5e+Fy/S2vQeOXLXetHAUkm1LckoKBgwdcXn9wmWr9XFk/OQZeGfUV5fbvaeHvH5DY51hjlFRMcjMyoKNjY1xLfDCc09j/JjR+nVZP1+88/pw9OzWETbW1vDy9ICToyMio6L19qKGCABBKEYEnArWhj89sVu379HhG0Wdi5fCsGL1Rjg42KsOZJ1xrYGMzEwtAp4b8DhmTPoRs6b+rJdhqtH+e8EybN62S+8XoRpoc/biRsfEKmN8hh7CHvfdp/j60/eUQf43Tp0O1tuDgs/hpwlTUa92Tf39ffv5B8ron4jZ85foGPmXhwxEtSqVMPy5p1DVvyI6tW+FQ0ePo2XXR9Ci00P6HHZ2tijjWxquri76Pb9vdozspP+asxBLVq7DD19+pM79vhYj23bu0b8fOXo8QH3WMv3Zn3/0Fs6eD1FG/0akpaVj+er1ePujL/VEgNzes1sn/PjrFOzed0gf2++Z4ahVs6re9r+3XsHWnXv1+oJgw5adsLe3Rwk3Q96DIAgGlqrnuaNqBypVKIeKFcpi09aduBByybiVfdEZTPxjtn4u33ljOHbuPYBlq9ZjxEtD9Lp1m7br0KHklFTMXbRMtwm//vC53ta+bQslCMbr8zSoW0uvMy0tmjZSwtwTFcr56dHF/s+9quP0ue3V4c9i8rQ5l418CoulSnTUql5Fb3+gawf8OWu+dmZcC3OXmjSsq739DVr3wDjVHtLJ4abaM7Z9xN7ODn5lfODi7KTfU2ycPnMWLz7/3+Pw7yciAAShmEBj/3hAIDxKuKF9m+bYogwsxkSb4Ou09HRtVLFh48I4zqysrMvvTQYZYUIlG2fTNr7OyjZ4QjMyMi+vz7+dxxCeM/+xJiGivcHpGfoaaIyajuP6G7Flxx64ujjjpeefwZ59B3Hm7AXjlivY29upRtlZN8xcaKT6eJfEicB/NvTmCGNUE5OS0UN1gBXLl0WtGlX1EDbhPbBn/2H9ukvHNvpfdnIPP9hdG+1WllbaCKaX397O8O+jfR7A9jULdEIwvfv1W/XQnebo73+5fI/kZ6MSYo8/0lv/Lhxif6BbR5Qq5WXcCu1x6/fQA/q3q1+npuqwq2pvHGcD/+OveRjx4mBlZJTT+1avWll11u44dSZYx+Lynnvz5aH6WBoFjz/SS+9Hbif8iAYI/wYudZp3RZUG7bSX8YM3X0aF8n7GvQRB2KCeu6joGHRu11o/d5ykMyYuXocC5eeVoQP1dj9fH5RW7XHHNi20Ma6f87o1ceFSmPakP9K7B8Z8+ZGeAJRUqVQeearPYL9hbW2l92cS/8q1GxEYdAYjXx0Kn9KlMHveYkRGReGd14fpfbp2bKuN/JVrNyEsPFKfq4xPaTzyYA+9vUrlCiilxAP7nWuhof/OiBcx9uuP9XVMmfE3Wnftq9uBg4cNuUIm6HQa9vp7+PSrsToJ+CbdV6FGBIAgFBPoxWUYB6uu0NhigiM93yZ27T2AF9/4H159+2MdMtH9kQH49qcJOomr/7Mva0/ql9/9og1zDoeu27QNTw5+RYfTPD7oRTz05BDV4C7R26bNnq+PMS2tujyMh9X2oDPntEE/bfYCDBj6ut7W9aGnsXLNJi0uwiOj8N4nX2PYiPcx4v3P9Pbejz2nvSjXg8blViUA6BFq27q5avS9sWbDFuPWG8PP4rF2tnbGNeYNQ3aYFMs4dxOlPD30v9k52TrJlTH+L4/88PJvunL1Rtj/y/e3cdlsHNy2EtvWzNOjMDTIF+YLvTJx4uQpLUxNUNAxSdiEpTLUTdWDTCQkJurheI4iTFf3k+m6Xnt7lLpfzikDIU978pxVx25haTD0rZUx4eHurl8TN1dnnaB8PayumWCQBgr/Fi4Tf/oK/spY6N29k/5XEIQrLFq+FlWUmE/LSEfA6TO6Ehj7BYbmXc+4vhF8tllZjKO7+w4c0aGBfZ9+AT/8PAkpqh86FWToF3junXv3Y/nqDXii74OoXaOqXh+hRIh3yZL6tQlX9cyz7acTipQuffV29k+paWnGd/+kS4c2WL1wum4HVs7/E3VqVsPTQ17T/aKJ8uX8MGHsl3ofChT2dUUREQCCUAygF/S0EgA0aCpVLI+mjeqjQrmyGPvrZOMeBs6dD0HTxg2wYMZvePu1YZi7cLkylrOwbO5UfPPZ+wi5FKqTHqNi4nSDPPLlIVj69xTMV/uzHCKHVmksDhnYXx/DhWEd7AyYEFqpYjmsXr9Ze04/euc1vf2T90fg029+1OsIG2d6kd9+7QW9vWmjeuo6DUlW10IREx4RqT67uTYSO7dvjVXrNl2uymLiuDIwOQS9ccsOvazdsFUZj9k6gUugh91ae9mzjSM0xDTaQy+5rdrWrmVT/D3t18u/K5ep47/T++SHJTT3Hjh8VUfv7OSExx7uicbq+6bn/lpYTpPGvAl26NeW3LwRFAqvDX/uquviwsRjxuDqUS6jB44jSfk/h15DehFTVKefHxoHtra2WjxcD3onH3+4lx7iZyUgXq8gCAajffP2XUrEu+D7cb/rZe7iFcpATseBw8cRE2uoFHaraIfRrPn4aPT3OpRoxu8/4k3VN5icFTkc2VbtO51PTRvW0/2QCeYecDQ6P9mq3ae4t8gn7v8Nthv8u1hBLH81I5b//fm7z3QbcuTYSSQkJuGg6pPoTDHRoXULnRdVFBEBIAjFADZMh4+ehI93KVQw1iTu0aWdNl7C8sW+03PRQBk39LgwXpuGeNcOhrAPVnWhQcRQESf1+i0lEFjXfc78pfhbCYWIyCgtNBgyYoKVID7/9ifUr10Lzz/zBOITVAN5+BgqKyHAUA3CYdn6dWvpmG5CLy1DPCoroUIYv5l/pCI/DE0pV64MKqmOgbDiBI0xdkD5OR5wSq9jFQcuicnJeHnoQNSrU9O4h3nDYW93VxecDjqrw8CS1G+8c89BvY3GP0UjfwNTXD1Zu3HbdRPmeK/9MnGaLgGY/15ITUvXxnjJkp7GNVdo1rj+5c41WQkHdpj08N8KTC5mKBKFIGE+A+8legcbN6ijjPsUHV9MktTvfuDwlQRh/l3MScifGEjhw5EDXju9/tfDwd4enZTYZEjRoqWrb3h/CoK5MVv1B+xnfv/pq6uWV14YiNi4OD0KbAoFvRWYxBt87oJOJn7x+We0R52Jv3RMkUTV3lAguLu76X1YmtMEY/aT1PGcw4Mw7Oe4eraZl8BRxluFAoChpd/8OEE7j/KLChYjYLiit1qYj8ayoByFNrV9W3fu0XlSRRERAIJQDGA8JicpYmjEb3/M1A3ZvoNHdejHyrWbjXv9O/Se0kNPo2nR8tX6PCvWbkRqSqpq8DJ1NRQakIQx06yyUEoZfC8NfUavYzgJt9MjTCPKBOMraZwRxnw62F8dWsJG/lrYmB8+dgIXLlzC+EnT9bXMW7xCC5Tdew9pz5GJxx7uhY/fHYFP3n9DL2++MlQnjwkGfEt7o3WLJth34LCuzvPV2PHaAKcXjyKwYb1aaN6kIRYsWam/Zy6sd89heEtLC9358b5YtGKN9oYx3IeJu9+Pm3h5/7/+XqTDZVo3b2L81CswZ4D3qP5stXBeAYrN/CE4N4Il+Zjj8eUPv+rPYXIyRR6FYJXKFTHgib56BInbfps6Uyf+meB999yAx7TgMF3nN+pv37ZrL7p1aotq/obkvutRtoyPDgHipGL0PjJvhVwMDbtyLuOyY/e+q0YeBKE4wjaZE/z17tHJuOYKzANg7PymbTsvPyu3Ap9RttU7du3XzxKrBXFEz1q1S5fUs7Zhyw6sVwuF/19zF11+5ujcalC3NoYMfAI//DJJr/vyh19ozaPPA131eW8VtkMMK2J1H7YtrDpn+hw6vzhazhwk5kZ16dBaj2ab9gk+F4J3Rgw3nqloYTVKYXwtCMUODh0ydo8hMcUVGh5btu3WZdgefKALyvj66CoJ9ILExsfjyLEA9H/0QW3IMM6b3wWHNlmlhVUZ+irjjLO4MqyGDRuPoyE/ceosnZDJ0J5O7Vrp8CCeg6/pxf9dCQ16R954acjlmVKZtElPL43ERg3qXC6nNnfRcp0w2rxJA2Us7YdHCXc0aVRPb+PQKmdrZUhHfrbv2qd/P1acqVypgv6bvJXYYEIqPf51alXX3mt2SOx8/NU+NFavBydwSlfCpHvn9riNvNBiA3+HsmV8Ubp0KS3u2JGxas/5kIv6e+eIEL8/Ly8PLQr4XXdo0xwd27bUnaO7m6ue7ZJCwte3NGpWr6J+k/Kws7WBp6eH3p8JdtyfYoFQGNapVU29L6k97QwPc3Bw0J9NAZiYlKST1XluJibTCGCoEGG+AJOFOUrlrYyK2jWqacGg72u1b7eOyng3VubgtXB/D48S6hp90VUZ9rwfmLjL+4Oz/fKzec/y+NLepdBMPQMUKo7GMAMaC3Vr19DXkR+OnBgSykvp87AsaA31eTxP/qWcn6/+/FsRNIJQVMlRorucagfatGh6+Vk1Qc88y2SyreYz7q/EOUMw2Z7wOeS26tX89fNO+Eyxf2GCMPdnH+RRQj3D5fzQSxniDerV0gLfxckJDevXUc9hpX88czyGI8jsT0q4u+tR5Qe6dNDPO/FU2zkKTDFPWMSAYUZVVVuVfySBsD2soq6dfZmpreFCx0j71s31PqwCxP6R7Rn/fm7nLOONVHtzr+c7OXYiUDtlOEL6n8kThGLM7PlL8n7+7Q/ju+JJdExs3tDX3s375scJeUoMGNcaWLh0VV69lt3yduzZn7d1x568gcPeyNt74LDexn8btnkgL+DUGf3+9JmzecNGvJ+njPW8bTv35PXo+0ze2fMhetuR4wF5rbo8ktfvmeF5p4KC82bNXZw3aPjIvN37DuXl5OTofUiW+vxFy9fkPT7oJf15ZMnKdfpzlOGfp0RH3oj3Ps37ZeKfehuZNmt+XucHnzS+MxAVHZP3v8++zfvoi+/zIqOijWvz8pSwyDt09ERe78efy/vjr7l5gafP5D3y1NC85as35GVnX7mOaxn11di8194ZpY43rjAzgoLP5X2ivoP1m7cb1+Tl9Xrs2bwP1fd7L/ho9A95v/85S79OSEzK+/Dz7/Pe/mi0/p0FQRCE22Om6oN/nTTN+O6/Ie4KQSjisN4y66YzmZbhNfnp0aUD3FxdsXr9v1fOyU+ThvW1h37QsDfQultfKKMdwwY/jYSkJLDOOmPD9+w7hNfe+Rhte/TT+zzw6ECsWr8Z3Tu10+UmP/36R71eGfH4YfRHt+WpOHfhoh5a5YyL+avD0MvC8p70/nI0w1TqTbg59F4znn3U6DH6N+HCEZS3X33BuMfd5clH++Cn8VP157L6FMOPnnv6Me25EwRBEO49FlQBxteCUOyYs2ApoqNj8dLQgcY1giAIgiAIRZdZ85YgPiEBwwf/90nIZARAEARBEARBEMwIEQCCIAiCIAiCYEaIABAEQRD+Exu37MSi5Wt0xaa7CXNcCOca4ER1N5o5WhCEwgvLPbPMJivQFWT0OWf2ZRls1vL/L3COm/xlpc0FEQCCIAjCbRMUfA4ff/kDzp67gDDjJF13A9b7/nPWPP2atf8jo2L0/BaCIBQt2E6M/WUSjh0PLFABEBuXgD9nzldtxR7jmlvn/IWLGPfbH3qeAXNDBIAgCIJw29ALT0N8xEvP64m+7hb0GAaeDtavObvnA1073Fnta0EQBCMcXVy57tYnyyxOyERgQrHGHCYC+6/sP3QEX3w7DvMXr8Ti5WuxcetOPXsvy0XeKvsOHoaXl6eeTVYwH3bs2Y8p0+foieE4kVtWdraeRI5T+nNiLsLJ1yb9OVtP9pWQmISPRv+gp9IfN+EPfb9xHScTs7W11RPHbdyyA599M05vO3DkuJ68Z/vu/Zi7cJk+joKjUf06mD57gR4F4CRB5MPPv8eM2QuxZOU6BJ05h5bNGun1FA6c6G7Ljj34Y+ZcLFy2WocK1KlZXW8XBOHeEhMbh3Ubt8HO3g5//DUXi5atwUH1rLdv00JvZx+0fPUGPRmYs5OjHiX49qffEBefoCcC4yzwk6bNxoTJM3Q7cTzwtJ6UjOs5UsiJAzm52LpN2zD218nquERd7pjHcybx6bMW6OMACz1RIGfO58zkl0LDER4RqcslczbjokBBTAQmIwCCYIZMmz0f7476Gs8NeBwfvPWyXrp1aosxv0zGwqWrjHvdHE7RPu63P29r2neheEAjmjPu2tpY4703XtKz+J46HYyz5wyx+oQd6v5DR3UnnpGRiaUr1uoZn3mv9enZBUvU+70Hjmjjf6sy0seOn4K+fbrr7W4uLsrQXwh/JRDqq3Nz9tFXXnhWd3ic9yJECQLy0Rc/ICU1FW+99oIeidi9/xB++HmS3sZwA85AbaPE6Rtq2xN9H8TEqTOxY/fdzVcQBOHmrF63Ga+/NBgjXxmC8yGXMOrLMXo953U5oYz6dGOfwrbjyPEA7WhITk7RoiEo+CyGPNtftxNsCxi+kx+KiJ8mTNVCoFO7lsjJycEnX41FTnaOPmbgk32xYu0GzFNtQ2lvL/Tr00PPTP5kv4cuzyBsLogAEAQz49DR41i0dDU+/99baFivtp4+nUu3Tu3Q/9EHsXLdJu3J/TfYIMfHJ2oDTjAvXDhVvqcHLCwtdafpZpze/2aUKOGODm1a6Hutd4/OehKwENWx8/6h169F00Z64jpuf2XYICVOH9MeOYb92KsOurwSAflhR08DYNhzT6FGNX/Uql4FH739qhKm2/XoFvEpXUoJlXaoXtUfndu3gp+f72XxIAjC/eG14YNRvYo/alavihEvDtaJ/QcOHTVuvT58bikEHujaEc0bN9DtxO8/fqWe69bGPQwjk9+Pm4ieap/HH+kN71IlsUm1E0dPBGLUe6/rY9q2aoZ2rZqrfvCkEge5SgSUgqWVFXx9vOHo4GA8k3kgAkAQzIxtO/cpo628Nqg4s64JS2XMPd63NyaqRrVShXLaMFu/aRsat+uFJu17o5H6t0ffgVi9YYv22HIoNuD0GXTp85ROCE1JTcPUv+aiQeseev/ejz+HPfsP6/MMfvltfPDpt/pzGPrxxXc/471RX+tQDsLh2iGvvqv35SzD9Vt11+do2OYB9HrsWd348zOadXwQy1av18dw3+/H/Y53R32FKDNM4Cpq2NnaXJ7Vmfca772o6Bj1O+bpkYLS3iX1esIZrXl/OjneuEOOjYuHk5ODDlsjPJ+j2p+dOIf+CUUGvXuE2+lRjI6J0+8FQbg/VKtSEVZWbAMANzcXlFXCPO5fEvuZpJuYlAQXF+fL/Zadna0W/yQuIQHbVd8WExuPCuXLwsHB0C5cCgvXIT4tuzyi+5SmHR7EmF8m6XU5qg8xZ0QACIIZweFQxkN6l/RUhpKhgaRRxFwJ03Lm7HltzLOB5GyD4779BHs3LcXK+X+ietXKWLN+C2rVqIrnn3kC1atUxtrFf2nBsHr9ZqxauwnTJo7R+788dBBGK0OfcZYP9uik4zKZj8E4UA71MkQjLj4emZlZeki4d/dOCI+I0t7g8WNH63PMmz4BlqqxX7x8tfbedGjbElu2Gyo9MHnrVFAwGtatrUNGhPsHu2Mr66vzQLLVvaZuLuO7m2OtDH5W+LkdmHdCEcj71wRfc53kpAhC4SVDtfkm6ADIzMzUgoCLpcXVZqmpXeBoI+HzfT2s1TM/4IlH8PTjD+nwHuYMsT2wsbFB7RrVsH3NAt2nmJZZU8apfrBoxPvfLUQACIIZkZaeoZarY/bZoP488U+9jPpqDN7+6EscOxmoPSgTlCHO0Ax65XftOYAs1XBTRHDJDz0pazZs1Z4cGvHc39LSAlnZWdi99wAa1q+rPbGs1Uyvr72drfbc0ot79ESA9v40blAXpZQw+d9br8K/YgVs3blXixEakhmqg6CZ16JJQwSeCtIiIuRiGGzVeapXqwxbWxvDhQj3BXrsPdzdkJScrEVeurrPmJCbv6O/GfXr1kRAYJAeHSIUnwwLYJjZjahYvqw2Dk6o4ziUz3vy6PEA1eFbw8+3tHEvQRAKG0zY5bPL5/Z4wGmdR+bn6wM3V1fd1mdmGdoNjvyGhRlKDHt5lNB9xrkLF3UuEDmhjt2196B+7eLsrEcRe3Ruj1xl+M+ev1T3dXRSJSQmXjVXCY/jqCM/y5wRASAIZgQrK3iWKKE9/KzcQugtHT/mC73Qa+/p4a7Xe3l66Moqf86ch9//mKUTNi+FRWjjjstVqAY3PiFBG/dskE1Lc2WwV6hQVhtk9evVwv7Dx3Tcd0ll6JdTYuHchUt6ZICVYxiDmZ6Rie279+G3P/7SXhyegxUeEhKT9We0atFEe3SYp0Dh4OLEWHRP40UI9ws7OzsdZ88Oe8KUvzBt1nyd3JffO38znnniEd1Z/6JEKO+3XydPx1p1X6SkpelqQBGR0fh7wTIkJV0RBPVq10DvHl30Z039628dfvb3wuU6mc9UIUgQhMLHngOHMG32Akyd8bcuDsBn1r9SBfXcVoCVpaWu2MV2YP6SFZdHFlmdjjlEu1WfwGR+bv967Hgt+vPD8NZHHuyOHbv369HkenVq4qFe3fRcIjyGy8Q/ZmL3vkPIUkLDT7UvHD3g6PWt5L4VJ6QMqFCskTKg/4RhN/SGsHyYKSbbBI02NqhMDqaX/esx41HVvyKeePRBPNC1vTbek5JT0LZlU+3pP3j4uG5cWcqRyVaNGtTByFeGop1OtDIs5cv66ZjNUCUe1m/epsuGVq1cSf3rgZOBQfpa6LVhQ83GfYIy/mjcPd73QXRq1wobtuxESbVv+9bN1RVaKCMzFHtU452Tm6NLvDVpWFdCPu4DDNuhsOPvxu+fCXcl3N20V41x+Cz/yaH3GkrcsVNnrG/dWjV0Ui9hYi9FA4VfyZJeqFyxnB4JoveO4pAhYT7epVBK3S8cjeJnVKtSSQu+qspQ4OfVrlkNFpYW2iPIULHWLZqiZ7eO+vx6JMDHR5catVcChfcgP7NW9araUygIwr2FOT7My2nVvDHi4hLUGgs0b9JAJ/8TbmN7wBEBOqj4rDZpVE8n+NNQZ3lQti0s58t2gtufebKvHm1mu8JSoRxF9i1dSo9Isl9i2GrtGlVVe2WlHQo8rrHqp5hMzFEDfib/5b4sI8r3RYGCKANqkXerLhpBKILMWbAU0dGxeGnoQOMagTkA4yfP0Mb86y8O1kYVORV0Fh998b02trn+1JmzOoZ/3ZKZOsRj976DeP+Tb9T+lfHBmy/r+s2Tp83BHxO+h5urC2bOXYylq9bpspAswcb4/DkLlqFj25a6NjvPP2j4SL1t+PMD9HDutz9NwJGjAZgxaazOI1ixZiMmT5+D7z7/QMf885w/jp+Cbp3bYdS7r+vr5PAxr6OSMuxeHDxAdyCCIAiCYC4wP4+j7sNVH/hfkRAgQTAz6KUdOuhJ7V1/75Ov8cjTL+jlf59/h8YN6+KtV1/QHthWzRprD23/Z1/GowOG6dCOTu1bawERqxZuY4z/oGEj9UgAvTg8ZuQHn+vzvfzmR/qzWMud3lef0iX15Ct56j+OKnBIl8m71apWgi7FZmmpPf/epbzwylsf6XMwzIcChWKFcB96gkp6eaKEm6s+nyAIgiAIt4eMAAjFGhkBuDFZWdm6rBqrMBAOozo5OuowCRNM6uQkTmwlOITKUAqGeHA/SytLJCYmITs7R48AMOSC+zJEyATrxZvOx6aG8fwUA6YwkOSUFJ2EzCFYrufr5JRUfR5ib2+rP5vr3Y215hlK9ONvU1FTCZAB/fvq0A9BEARBMBdkBEAQhP8MDXbmADDkhwtf5zf+CQ1zJgNzO735jMWmIc5jGdfNddzGKjymGGvT+bjkPx+3UyiYjH/i7OSk3rvobYQefm43Hc/P53uT8c9KL0w0jo6K0aMFYvwLgiAIwu0jAkAQhCIDq8N8+MX3aNu6OerXrWVcKwiCIAjC7SACQBCEIsMrQwdhyezJGNi/r3GNIAiCIAi3iwgAQRAEQRAEQTAjRAAIgiAIgiAIghkhAkAQBEEQBEEQzAgRAIIgCIIgCIJgRogAEARBEARBEAQzQgSAIAiCIAiCIJgRIgAEQRAEQRAEwYwQASAIgiAIgiAIZoQIAEEQBEEQBEEwI0QACIIgCIIgCIIZIQJAEARBEARBEMwIEQCCIAiCIAiCYEaIABAEQRAEQRAEM0IEgCAIgiAIgiCYESIABEEQBEEQBMGMEAEgCIIgCIIgCGaECABBEARBEARBMCNEAAiCIAiCIAiCGSECQBAEQRAEQRDMCBEAgiAIgiAIgmBGiAAQBEEQBEEQBDNCBIAgCIIgCIIgmBEiAARBEARBEATBjBABIAiCIAiCIAhmhEWewvhaEIodcxYsxZFjAXjkwe7GNYIgCIIgCEWXdZu2wdXFGcMHDzCuuX1EAAjFmp17DmgRIAiCIAiCUFzo2a0junRoY3x3+4gAEARBEARBEAQzQnIABEEQBEEQBMGMEAEgCIIgCIIgCGaECABBEARBEARBMCNEAAiCIAiCIAiCGSECQBAEQRAEQRDMCBEAgiAIgiAIgmBGiAAQBEEQBEEQBDNCBIAgCIIgCIIgmBEiAARBEARBEATBjBABIAiCIAiCIAhmhAgAQRAEQRAEQTAjRAAIgiAIgiAIghkhAkAQBEEQBEEQzAgRAIIgCIIgCIJgRogAEARBEARBEAQzQgSAIAiCIAiCIJgRIgAEQRAEQRAEwYwQASAIgiAIgiAIZoQIAEEQBEEQBEEwI0QACIIgCIIgCIIZIQJAEARBEARBEMwIEQCCIAiCIAiCYEZY5CmMrwWh2BEXn4DQsAjjO0EQBEEQhKJPqZJeKOnlYXx3+4gAEIo1cxYswweffmt8V7B06dDa+EoQBEEQBOHecDE0DA907YDhgwcY19w+IgCEYs3dFABBhzYbXwmCIAiCINwbZs1bgviEhDsSAJIDIAiCIAiCIAhmhAgAQRAEQRAEQTAjRAAIgiAIgiAIghkhAkAwK3Jzc5GVlYWs7Gww/YXvc41pMPzXlBJj2sZ/s7Nz1DHZl/cTBEEQBEEoyogAEMwGGvPepbzQvlVzNK5fBzY2NnB1cYGbWmjau7u6wMXZSRv6Dg4OusSWra0NatWoihZNG8DLowQsLCwMJxMEQRAEQSiiiAAQzIKcnFz4+frgnRHD0e/hnnj/zZcw8pUh6NWjE54b8JgWAW+/NgxvvvoCsrOy8WS/B/HGS4Px5KN98O6IYXii74O67Ke9ne3lUQJBEARBEISiiAgAwSywtLJEdGwsfhj3O0Z9NRYTJv+FurWqIzs7G26uLqhWpRKcnBxQqUJZuLo6o2mj+jh15iyq+FfA1h178MnXP2Lx8rVIz8iUUQBBEARBEIo0IgAEs4Bee2cnJ3Tp2AZP9euDurWrIycnB+ERUUhPT0fjhnVw5ux5xCckoo4SBp4l3LB5+27s2X8YdWrXwNBB/VG7ZjVYWVkZzygIgiAIglA0EQEgmAU09ju2a4lWzRpj2659CLkUro35yOgYxCcmoVH9OmpdmBYBDz7QBaHhkTh7LgSr1m3B73/MgqWFBR7q1RUeShhICJAgCIIgCEUZEQCC2WBrawtbGxvY29vBt3Qp/drSwhJRUTHw8S6J2LgEHD0RiPatm2HX3oNaIHRSoqFsGR9t9OuqQMZz3U3GjBmDwYMH4+LFi8Y1wKFDhzB69GgEBwcb1xh499139ZKfXbt24eeff0ZsbKx+f/78eX0+08LzcN2/sX79erz88sv6mOeff16f00RycrK+zq1bt2pxVZCcOnUKP/74I4KCgoxrBEEQBEEoSEQACGaBlaUl1m7Yil37DqJ5kwY4GRiESdNmIyY2DgePHMeUGXNx+sxZHD56AtNnLcDGrTvBSP+c3BxdBSglNQ1/L1yOmJi4u5oDEBgYiLVr12LVqlVYvny5cS2QmZmJ/fv34/jx48Y1QGRkJObNm4e//voLZ8+eNa4FNmzYgCNHjuj8Bu7/7LPPolmzZnjyySf1EhMTg08++QQXLlwwHvFPvvvuO0yfPh1dunTRxzz88MPYtGkTRo0apbdnZGRgzZo1+nopjAqSiIgI/R3w7xMEQRAEoeARASCYBTTaQ8PCtdE/8Y+ZysDfgTUbtyJaGcPnL1zCwqWrdT5ATGw8Jk//G+GRUcjOycH6TTswYfIMLFi6CrHxCXoU4W6yZcsWeHp64umnn8bkyZONa4HSpUvD1dX1Kq/4gQMH0KpVK9SuXRsHDx7U6xITE3Hy5ElUrlwZTk5OmD17NhwdHTFw4EB06tRJL3xNwXD06NHreu+XLFmCw4cPa69/r1699DE9evTAK6+8osUFxYkgCIIgCEUXEQBCsYce6nJ+vujQtiWsLK0QH5+kjPtc5OVy4i9A/f9VXmxtFBtjfRj6U7N6VZ0EPOaLDzDixWdhY21j2FjAxMfHY/Pmzahbty4GDRqkDfk9e/bobRQF5cuX1wIgOjpar5s5cya6deuGhg0bYuHChXodw4ZCQ0NRr149LQCSkpKwd+9e2NnZ6e2kTp062nvfvXv3fyQ1M7SHnv4yZcqgVq1al7dbWlqibdu2Whw0atRIr8sPRxvee+892Nvb66V///44d+6c3rZixQo4Ozvr1yQkJESPSuQPKXrqqaf0cRQ6v/76q3GtIAiCIAh3AxEAQrHHQhmvoWERcHVxxucfvYl+Dz8Aby9PZdyq258CQBn511uItbU1EpURvWX7Hixfs0nnCeRZ3J1MAHrkabC3aNECNWrUQO/evfH5559rQUJjvmrVqno/Guk0uBl/z/AceucpDMLCwnSOQPXq1VGhQgW97xtvvKFHPzixWf369XVoDUNsGMJDo/5aoqKitIFepUoVlChRwrjWAM/j7u6OkiVLGtdc4aOPPtLnZkUlHu/h4aFzDShGKK74efnh9fPv4rahQ4fq7TyWoUtcx+sQBEEQBOHuIAJAKPYwYp/hPIuXr8G0mfPRsW0rjP36Y3z0zmvo3+9BtG3VFPVq10D1qpVRo5o/6tephQ5tW+CZ/n3x4duv4IXnnkIJd0P1nwNHjiNHGa8FDQ1ievt9fHy0p58wBIfeeMbZExr1NJrDw8Oxc+dO7ZEnFStWhJeXF06cOKETaF1cXPSIASlXrpwO9xkxYoQeBfjf//6HBg0a4M0338SlS5cuCx0TFAW3W+qUxjtzBmjwEwqEAQMG6ByD/LkJ14NiYdu2bfj444/1+1KlSum/m7M0C4IgCIJwdxABIJgF9F7Tm8+E37c//AJTpv+tDd0+D3TBO68PwxcfvYWvP3kXX416B59+MAKvDB2ok4XPng/BTxOmYvmaDdi97xBOBJxWRrPxpAUIQ3cYqpOQkKDzAObOnauTdZn8awrvoaFPaFgvW7YMTZs21e8Z41+tWjXs2LFDe9x9fX3h5uamtxF6/2mc7969Wy9ff/21TjBet26dFh75YagOvfwcZcjKyjKuNcBrYTUi5gfkh4KE369JdBCehx79az3/18K/hftR+JhgKBCvQRAEQRCEu4MIAMGsoAjIyMzC6vVb8OnXP+KdUV/jqx/G68Tfvxcuw6x5SzB+8gx88tWPeP+TbzDpzzkIPntBGcPZOHX6DJJTUo1nKljo5WfYC415JvSajPX27dvrGHqKARrJHAU4ffq0TgA2CQAazBQHppKcTAA2JStfr5zmM888oxN7abhfTwCYPuPaKjy8Ppb+ZB5AfpicTFJSUvS/hIY/vfj8vhm+lB8KC5MwYJiRDrNKTNTvCa8pLS3N+E4QBEEQhIJGBIBgdhhGA6yUEZqpjPvz2LR9N+YvWYkZcxZrAbB89QY9UhAbFw9LS4srITHquLtRAJTJvwz1Ydz9999/r8NpTMtnn32ma/bTu0+YG8A6/7ymSpUq6XUM7eGxAQEB2khn2I8JhtcwOZfhPiZo3NPAZpLvtaE2PBcTiyk4ZsyYoXMSCPefOHGizh/o2rWrXmeCRjyP+eOPP7Qhz2P493h7e+ukXo5I8DtnjgPh37Nv3z79mn9DzZo1MXbsWP2ex3P+AY5ACIIgCIJwdxABIJgtNEppSFurhfME0Ng3xcBzuV6S7N2AYTCs8d+8efN/hL7Q4Gfy79KlS/V7GvoUDCz9Sc8/4XWyag8Nbq7LH07z5Zdf6n0Zk89a/lyYB8D6/swhoPf9Wrg/k4d5XRwt4DGPP/64DlFirD5zCK6FYUUMEeJ+jz32mP57eCzzGShImIMwZMgQfS6WNzWJFI54fPrppzp3gds46RiFTP4QJkEQBEEQChaLvGuzAAWhGDFnwTJ88Om3xncFS9ChzcZXd0ZqaqrOAaABf63hy4o49JjzX4b20Mjmeyb6MmHWJFIYUkODnQKAHvfLoxYK5hWcOXPG+M4QMkQDPH9pzuvBUQOOKPCzKZZ4baZRB4bpsMwnvf+s+EOYf8ARAkIhQ1FiKj8aFxd3OSGYIUFcT+OffwPhNu7D62ZIET+TowfXhg8JgiAIgrnDaIV41bcPHzzAuOb2EQEgFGuKggAQBEEQBEG4VQpCAEgIkFDssbGxhoODfYEvgiAIgiAIRREZARCKNXMWLEV0dCxeGjrQuEYQBEEQBKHoIiMAgiAIgiAIgiDcFiIABEEQBEEQBMGMEAEgCIIgCIIgCGaECABBEARBEARBMCNEAAiCIAiCIAiCGSECQBAEQRAEQRDMCBEAgiAIgiAIgmBGiAAQBEEQBEEQBDNCBIAgCIIgCIIgmBEiAARBEARBEATBjBABIAiCIAiCIAhmhAgAQRAEQRAEQTAjRAAIgiAIgiAIghkhAkAQBEEQBEEQzAgRAIIgCIIgCIJgRogAEARBEARBEAQzQgSAIAiCIAiCIJgRIgAEQRAEQRAEwYwQASAIgiAIgiAIZoQIAEEQBEV2bhZSMxMRnxaJiKTzuBh/GudiTyA45phajqrXxxESH4iwpHOITY1ASmYCsnIykKf+EwRBEISihEWewvhaEIodcxYsRXR0LF4aOtC4RhCA3LwcJGbEIiYlDNEpodroT0iPRlJGPDJz0pBjkYVcZCvTPtdo4HOx1P9ZwArWsIGNhT2cbN3hau+BEg6l4OXkC0+1uNt7wcrSWn+OIAiCIBQ0s+YtQXxCAoYPHmBcc/uIABCKNSIABBN5ebmISA7BmZgjOB93AhEpF5Cem4SsvHSkZ6YhIz0DNpZ2sLN2gIOtM+xsHNR7W2XMWyHPQomG3Bxk52QhPSsVaVkpyFD/ZudlwtrWGg52DrC1dIB1rgNKOZVF+RLVUdmzLkq7VISNla3xCgRBEAThzhEBIAj/gggAITMnHaeiDmLfxTU4rf61sM9BZmaWMtbt4eNaAWXc/JWhXgGeDj7am29v4wRrCxtYWjJC0kL9Z/D/G8hTQiIPWTmZSM9OQVJGLGLTIhCuQ4ZOITThLDItUmFnbwvrHAeUcfZHI7/OqOHdFI42LsZzCIIgCMJ/RwSAINyEPfsP48U3PkBCYhIsLGjGGeAtv2Len6hSuQISk5Ix7rc/kJ6ejteGPwcvTw+9T05ODmbNXYx5S1bivTdexJIV6zB30XK9jcdzMRiIgH+l8mqfl9CmZVP9vijBh3/m3wtRqUI5tGjayLCymMDf6FzcSaw9PR3BiYd0jL99ritq+bRAndKtUL5EDTjbul91b9wpyRnxuBAXgKPh23Eyag+SsqPUfWKFsk410b3aQD0qIOFBgiAIwp1QLATA7Xx8QXbU95qcnFykpaUhIzNT/83W1tZwdLCHre2thwfk5uYhIyMDacpYzc3N1Qaog7097O3tivR3czfIyMjE3IXLMeqrMRjx4uCrRgA+/fpHHDh0DPOmj0fIpTB8PWY8qlf1x5BB/eHk6KD3yVS/0/8+/x6JSjxMGDtarzPx0Rc/IPj8BcyYONa4puiyedsuvDTyQy2IypX1Na4t+mTmZOBQ6CasPTMDyVlx8HXyR+MyXbTh72znbtzrbpKn8wmOR+zCvpC1uJRyCraW9uhc6Sk0K98Dtlb2xv0EQRAE4fYoCAFgNUphfH3PoAFsWpSlhbzYWORFRhqWiAjkhYcb/o2JQa7ahqQk5CmDFzY2yDMaukXJ4E1JTcP+g0cxc95iTJ+9EItXrMXu/YeRnJyiPc4uzk7GPW9MVlY2Ak+fwcJlqzFt5nzMW7xCGW+7ER4ZjRLurnBzc73skRaAdCWUtu7cg70HDqNFk4Zo2qi+cQtQ2ruU+h0WoHun9oiNj9f70Xtfu0ZV4x7qtszKwh9/zUWj+nXQrHED41oDP02YghpKMHRo08K45p9ERcfgTPAFZGVn4VTQWeTm5arb1wZBZ87hrBIPl8LC1bo8uLleCQuJiIpG4KkzuBgapgXiRSVOKBgpFLkuOTkVri7Oel8eH6oW04hFckoKjp08pQRNKCLUPeGs7ik7o7jMzs7B4WMnEXIxVB/Hv83ZyVHdO1FYu3Grup4QdGjXUt1HbupzrfQxRRl+16zas/LUFEbwoF25fnig+mDtfbe1vleGt4XOJfBzq2II/7F2RUTKeZyM2o0yrv4o6exn3E8QBEEQbo9jJwK1ndOkYT3jmtvnngoAk7c/NycHedHRyAsIQN6BA8CqVcDy5cCaNXqxWLkSWLcOeVu3Ajt3Avv3A+fOIVcJAShDB/aqE7ez0+cihVkM0NhatnIdxk38E2fOXoBHCXe4ODkhKiYOK9du0gZbzWr+2oC/EfT271GG7JhfJmHH7gNwUsabu6urNg43bd2F/YeOo2wZH/ipRUYCDNAgXr1uszLCzyvjv95VAuDwsRPYufcAnnrsYW1k03CmMe/r423cA4hRv8/MuYvRvUs7VPOvZFwLxMbFY/K0OXiyXx9UqVzRuPafzF+8Ep98NVb/dhR/2UrAnVOG9vwlK9WDewonT53Guo3bUL1qZXh6lNDXwfNu2LIDQWfP4YS6pt//nK0Nfj9fH/zy+zSEhkdefth/m/oX1mzYip5dOyJVCcy/1LUuWrYGZ86dx8YtO7W45HXb2tpg2659+PqH8QhTonrnngPqfjmKShXK47QSI+MnTYe7EpBpaemoV7uGEhuGEZCiDKv4HArbiMCY/WhT/hG0rtgHjjYG4XQ/0ELAvQoystIRknJCP7f1fNoYtwqCIAjC7VEQAuCeuIxp+NMQ4pKTkIBcGvZ//AH89BMsJk6ExcaNsDhzBhaRkbCgkZ+dTZc3LBITYREeDotTp2CxejUsf/0VGDcOedOmIXf3buQkJ18+r0lcFDaOHgswGHKuLnjj5cH47IM38MVHb+LDt19G3we7Y836rZikDL/UtDTjEf8kMjoGEybP0J7dZ59+FJ+8N0KfY9R7r2PYc0/iYlg4fp44TYezCAZoZEXFxF5l1JNTQcGYOuNv9OjcXo+80PtN0eSphFl+Dh45rsOIypW5OizmgDKe+dA1blDXuOb6BKrPcXR00KMHX456B96lvLBs9Xr07NYR33z+Pr77/H/aqz9n4TKdh7Bg6SotLv739qt6W1xCohKM59GqeROkpWcgNj4Bpb1LGs8Ofd3+Fcur+15p59UbsH3XXrz9+jB97LNP98Pi5Wv0yAOfi/mLV8DBwR5DBj2J0R+/rUc7rKys0K1TWz1SQCH0v7de0UKkOMARgPTsVKbr6pj8tKxk/fp+wmtg0nCOaqs414AgCIIg3E/uugCgAXJZABw5grzff4fFpEmwWLcOFqGhOgTolklPh8WFC7DgaIESDnl//olcJQ5MAqAwioCFyhBLSk7B04/1QdeObbWXnmEb9LYOfbY/mjWpj03bdmtj7Ubs2XcYJ0+dQY8u7dGvzwM66ZTnqKwMwCcefRCPPfSA2h6EbTv2Go8QaLzT2Od3v27TNvzvs2/1wvj/Xt06YeCTfZXhnYQTAadRulRJlCrpZTzSwL6Dh9U6T/VdVzCuMXA+JFQb86bQmxuxZ98h/Xu1btEE8cp436YMdHrcl61aj0++HKOvhddIURcWHqFDdDq2a4VyfgbB0aJpQ22QVyjnpxOUY2Lj1HUarjFeiYPQ0Ah9bSxtOX7KDC0Sp82ap8/LZOWwiEhEM7ROPRN9HuiCaCWGPlN/O8PPWjVvjKr+FXH+wkUdQ9i+dXN93uICk2ydbNyQmp6M/aHrsCJgCo6H70RKRoJxj3sDRUdqViJORu5R1/AH9l5ci7SMZHg4lDbuIQiCIAj3h7smAPIb/tnKyM/ZtEl7+y1p+IeHM67FuOd/QB1LIWDJUKEpU5Czfz+ys7IKnRDIUtd0+OhJ+HiX1MM018ZX08Dr3rmdNlIDlAF/IxiywWRfem7psc2PvZ0denXvCFsba5wIPK2r15g7/P0vhYbrGPj6dWpqQ5nii8vQQU/i8b69lRFfUnvWk1NTUbFCWR1WlZ99B46iZo2q/1gfFHwOdWpVv2moVXhElDbI27UyGNY02LmuY9uW6Ptgj8vX8tE7r+HFwQPU75+qk419S1/x8EdGxaBOzWr6nr6o/hb+Tb4+BsORIwNWVpaoW6sGQi6G6fM/1qfn5fM+9nAvfP/F/9Cgbm2dF9JWXcdXn7yL9m1aYN6iFUoozNfnP3j0OJwcnf4xSlLUsbKwhoudp56uKyktDofCN2FJ4HjMPPQN1p2eiaDoQ0jKiNMjBQUNf6eUzESdg7Ax6G/MPvQdFp38WQmRtUhMi1G/Z56eMEwQBEEQ7id3dQSAxktOSgryliyB1R9/wCJIGbkM7yko0tNhefgwLCdNQu7mzcgxVscpLLCzpwiwsbWBnd31q/24ubgooyFX1yW/EaweZKkMPlb7uR5OjjRSLbRHmZ9p7tAIY0w98y2qVamsvehtWzW7vJiMd51Yrrj2e9138AjOhVxEh2s84zSaTysB4Fv65gbzsRMB8HB310KBMNlX/U8LkfzXwaVGNX/9+zM0xMrqSnnI9Zu3o0G9WlrQMdaPycLMBSAUhLynXFyckKIEjK2NDerVrfmPc3t5lsD7n36D8ZOno2G92jrU5+nHH9bhQ5FR0VpY1MqX+FxcsLSwVALAXcfe1/Buhlbl+sAqzwaBsXux6eJs/HV0NMbveAvT9n2OVQF/4sDFDTgXe0LPCsxJvlhBiL/JjaBnP9s4D0BsagTOxwXgUOhmrAmcgen7R+OX7SMx/dBn2HBhJgJi9qgbwBJtyj+sk5At1GsPRxkBEARBEO4vBS4AaHxxoeGSRc+/Mswt582DRViY9twXOOpzLM+ehdWMGcg+cuTySIBpNOB+QqOfpRXDI6IRfC7EuPZqduw9oKvDlCtbxrjmn9SsXlUneh4/ecq45moOHTmOdGX8l/XzUeeSGuM0po8FnNKVbnx9ShnX/hN3N1cdcrNkxVodgkPOX7iky2JyZKbdNQKAYTSpKana834zjhwPQH1lkDMBl5T08tQiZPWGLQg8HazXfTVmPOq27KbvC2cnJ32/MlmY/O+z73Ay8LS+Nv4tzGXw8vDQI0hMHJ89fynK+JbWhn/VKpV0WNlfcxbpY8+HXMKw19/DWx+O1jkFJb08tMef6x2U0OFzaWWpDGQlHk6cPH1VXkFxwUIJAE665eTgCkc7R7Qq/yBebjkWAxt8jJolWsEy2wZhyWdxPG4LNl6aiTknv8Yvu0bgm01D8NXG5/D9phfw49bX8NvO9zBlz8dqGYWpez5RyyhM3PU+flLbvt00DF9vGIxvNj6PcTtew6zjo7H+4nQcjduES4mnlbi0RFW3Juhf9x281OJ7tKvUV5f+tFBNrptD8fvOBUEQhKLFXakCpD3/yhDPO3gQ1n/9BUuG/NxlmDzMnIKcatUANzcd+kBP7/2uisNJgJatWoeExERdZpLe5jzW81fiaOW6Tfjh50moW7s6hjzzxA1HCWioLlmxRlcRYvw/Q4cobTi6wGTTDz77XoeEvPLCIHhfE8tujuTm5OpqOpUrVdCJvhRP+asAmeBvUa9OTe3Z/+K7cfj9j1n4e+EyvDJsEEa+PPQf9w5FQtDZ83jqsYf+ERqUH1bn8fHxRrPGhs9kKFLF8n7a4P5+3ET9OZZWFli9YLouvUkjvXSpUvh54p96KVOmNKKiYvHRu6/pqjxlfErju59+08fR+8yEZVb4aVi/tj53u1bNMHHqLPw4YYq+fuY4vDbsWZ14zhKoFBlfj/lVH5+bm4PXXxys80dYEpRVifYdOqqTk4sTqVlJCIo7qBqGPPh71Nded2/ncqhTujWal++Jej7tUNalGlytS8I2z1GZ5ZbIzslCVl46MpGKtLx4JGRHIi4zDLGZl/TC1wlZEUjJiUN6TgoyczJhBRu42XuhtGNlVHFvhKa+3dGt2kB0r/YMGvl1go9LRdhZOyIuLQpHI7fqkYO2FR+Bo63MCiwIgiD8NwqiClCBTQRmOo02/rOzkRUcDOvff4f14cN6/b0is1Ur5AwfDhvtMbW+LATuB+npGQg4HYyRH3yukzJrVvVH+zbN4ebqigOHj+tJmJJSUjB0YH88P/BxbQxejwshl/D12N+wbvN2Xe6zY9sW2qPMUI7V67eoc0ejZdMG+PT9EdrwpGdYMDBnwVJER8deNRFYYYflRylgfv720xuGfRU0ptAxS8v7K5gLiuiUUB33H68M74drvIKKHrWMW/4JRVVGdhrSs5KRlpWCxIw4ZOWka0GQyX9zDWGL1pbWsLWyg7WVLWws7fSEYjTkHWycYWflcNN2hjkBiwJ/Rm52HoY1/0bPQCwIgiAI/4VCNxHY5dAfxv1v2ABbtVgoQXBLeHvDolIlw1K+PCzKloWFWqcsICA1VYf63Aocbcjy80OeOkd+4/9eiwBOBMWKL2PHT0GK+j4qliurDIoc7D90DHv2H0JCYjL8fEvrMBWG9nh6uusY8di4OMTExevSkBRTtja2+HXSdGzcuhMVyvrpco7HA4L0fAAhlwwTQZVSy/mQizh6gmEvTrp6zY1GE8wNfrc3GgEorNCLz9+ZQo/lOu8FsUlpCI9JhpO9jTJw70l14LtKdm4WzscHIDzxLKp6NkZJ5xuH2Fmo/6wtbWBv4wQXuxLwcvJBKeeyKO1aAWXc/FHWvape+JrruI2JvK72Hsr4d9LH/lv7EpJwGidjdsPT3kePPtgoESEIgiAI/4VCNQJAY5VLZmYmsk+fht0PP8D64kXj1ptgbQ2LGjVg0bMnULs2LLy89Iy/Sk3oSb/ygoORt3Ej8rZtU1ZKrPGgm5OlRET6Bx/ATgkIjgLQiLqXs+RyRtepM+bqiis1qldBz64dUK92dV115kJIqP7RGKpTrlwZREVGY8uOPToWmzO2slQkqwLRE0vjnpVgYmPjkZaRrss32qi/58LFUCUgknRoUMXyZbXo2rx9N1av34oMdW6WuOzVrSNcjLPGmjNFcQRg1tzF8PEphbYtm92z+zYqPgWHTytB6eaIKmU94eRQtA1UevLXB83EtrNL0K/u62hQpoNODr5dOJ9ATEqoHiXg7L309P8Xdp5bjtXBU1G7ZBv0rjFUJygLgiAIwn+h0IwAUENwoQBIZ8WaZctgt2+fwYj/Fyxq1YLF88/DomlTWChjJ+/cOeDUKSAsDBYuLoYRgapV9UiC3qYM3H/DSn0pWW5uyFXHmYx/eujuxShASmqa+mGW6kTN5k0a4o2XntMx2qwz71O6lJ75tbYy6mm4e+j4b089e+syTua0ez+ysrO195czCJ8MCML6LTu0MGjfupmOKadQ4Ay0FAZVKlcwjACU9ETdWtV1Pfvjgad1FRsmhjKJ9F55kAsrRXEEgNWDKpQre09HrRztbODqaIfQ6ETEJqbC1dkedkU4oZxfXVjieZyK3I8KHjXh51YFVpbXfxZY9YelO+nJzy8SGBZ0OHQLNp6djYCYvbDIs4K3c/kbnudG5OblIDBqH05HH0RN7+aoWKL2bZ9DEARBEEwUipmATQMINP6zlfGaqS7IZg9L391C6A/Dfnr21CMAiI9H7qRJyPvpJ+T+9htyJ0xA7i+/II9CwsMDFt274//t3QdgldXZB/B/9t57J2RAWGFvRPZQFFFrVRSRoqIV/LTWOmuttWpr3aKiiIIKggwRRJZskD1DGCGBJGSRndzs5DvPyXsRkE2AhPx/7ZF733VHbm6e50yLwAucP1s9tu26dXWtEeo5mROUq0FWkJXBvRLoT3jkAcQ2jz5rLa48p2+//wFffjtHB3uPPzQaLz0zAc9MfBh/+7/xeOWFJ3H3Hbdgb8J+fDL1W2zYtM048/fs7Oz0OgFj7r1DP978RcuQnplt7CU6N/n8ebs7ok2kH6prarHzYDoKS8qMvY2PLAYmU4Ha2NiipLJAdwk6k+qaKhXkr8Ls3e8gKXeP+p387XtLxg/sSP8FiTm7cCh7J1Ydno30omRj74WrrK7Q6w5IUu9q53VJLRFERET16bK7AMnpEvzLjDTS/aR0+3Z4v/YaLC6gz75FmzaweOYZWPj6omb6dNR+/73u9nOClRUsbrgBlo88opMAnSDMm3dBrQC19vbIfekl2LVoAXt1+2oMCC4qLsY7H32BxctW4eVnn9ALP8nsPGfz6+btmPDMPxAc5K8XhWoRHfm7vvvF6v1YtfZXvPbfD9GqZQz+ro6TKSDPRsYOTP5yBuYu+FklEY9gcP8+9To1aGl5JbbvP4ajmfnGloZNuk9VVlXDz9fL2ELnIt8G8jMur6zWXYF6xYXD3rZxtgTszdiIuQnvI8a7I4ZGj9H9+0+Xmn8QPyR8gsTcHYjx7IT7O76o+/WL7OJUzE+YhL2ZG/TMXVbqO8TbPgRxAb3QIagf/F1OXSX6bCT4n793EnYdW4sHu7yC5j4d1PcQkwAiIro09dEF6LITAHPffx38l5bC6pNP4LpihbH33CzatoXFk0/CwsEBNW+/jdqNG409J4mIgOX48bDo2BG18+ejZsoUFRUXGzvPQQX7BSNGoOauu+Do6AhbW1vdHeZKJgAyx/u/3vpQr9r78rMTEeB39jnopd/+My+9jvmLluKTd1/Djb26nbWlQGYT+mjyNMz98Wc88eiDuP3Wocae35Mf57qNW/SsQd06t8fjD92vp4OsL3L9ChVQV1VfgTUdroD5C5fq+fDHjLrT2ELnIoHuodRcHEzJQZeWQQjxd4flFfyduZJk5p35Bz6Cq603bot97HcLcEn/flmtd0XiDF1LL98PI1s+jp4Rt+j91TWV2Je1Gb8kfqdbCuysHHE4dxesHS1hU+mItgG90SV0CILdotR7dPYuPZJI/LD/Y6TlJ2Jsp1cR5BZp7CEiIrp49ZEAXHY1lLkFQLraSCuA1dGjxp7zq921CzUPPIBqFaSfMfhXJDmAU12N3EVRz8syLU13A5JgW57jZeY653UsIwsZGdlo2SIKLs7nHoCbro7dvH034lrHnjP4F9IqIAtTWVhaYHd8AopLTMae35MERxYV8/P1RsKBQzCV1W83Drm+9A13srdtFMXKogYWKng70z6WU4v8XFOyCnAkIw/d2oQgNMCj0Qb/QmryZUGworIc3c//dCn5+7EraxX8XEMxOOZ+uDh44Kf9U1FQelzvt7K0QWv/Hnisx1uY2Os9jO/xpvr3fbR2vwHl1aX4NfNHTPr1L3r13wPZW/WYgTN9x5gqi/UYA1NVEXZnrNEDlNUXVN1OIiKia+CyEgDzHzsJriXIllYAy8JCva1eyABWGSfg66unAZWEAaWlxs7zk8XBJDE5OQG4kkmAvP6KinK4qeBfkqESFaifXiR4l9mAcvMLUFFZhTatmp8z+BcSdLt7uCLQ3xfHc/JQqF6XSb0Pcq0zPYa1et8c7e30bVkUi+h8ytVnMT4pC4fTctGlVQhCfN3QeEP/OvbWzrC3ckZhWb6ez/9khSop2Jq2DLklmWgf0A/9ou5CS6/uqLQqxsJ9U04ZMyC1++YuO8Hu0bi3w98woee76BlwG9zsvHAgfxOmbH0Jn21+AeuP/KjXIChVQb8M/hWyvoCpXH0XqSRk6aHp6rjnkJwbf9ZxCURERFfaZc8CZK79Lysrg8lkgsePP8JKBb+XTWoeQ0Nhec89sIiMRG1SEmoXLQJycowDzq/KyQlFPXvqAbI2NjYnugBdqW5AslLv2o1bUGwqRUpaup7zX1ZZPaVs36UXBbO1scbSlWvRLDwEfXt3N65wdsXFJixTxzs5OiLA3w+/rN6gZw3aetr15f62XXuxfXe8HvcwbFDfJj0d6N5GOAvQtZB+vAjJ6XnoHBsMP8/r4/NSixoczt6Do3kJaO3XHV5OAfp3X7rzJGRvwerk79HMszV6ht0KdwcfPc1nfPpmHC1KQIBzM/i6hOg1As5E1gCI9mmPGO8OcLL20MF8bnkatqWuxL7sX1FQnq0C/roFxNKLktS2TQh0iYSvYxgyyw9jZ9oaeDkGwscpiIOCiYjoojSYWYCkSC27JAJWFzBA94J4esJy6FA9TgAFBahduhTIyDB2XhhL9VxObwG4knxk3v5WLZCXX4gNm7dj/aZtvyuyfefufbpbj5ODPeITDqH0PN105Hln5+TiWEYmvDw9dM2+JBcyK9Dp11+nyuZtu/U4BJkqlAuC0YXwdHNEjzZh8Ha/hO52DZStlb1erVcC/qKKfNQYM/zklWZhXfJ8WFpaIcarswrmPWCqLNLHdgsZpo6rxJrkucgzZenjz8bKwloPBO4fdRfubvdXDIsahy7Bg+Fo74Ktx5bhm+2vY9bet7E5bSlKygsR4BKBgTH3opPfUJRWF2HJwa90awEREdHVdlmDgM21/9L1pbCwEHl5eYh+5hlYX2a/cwt/f1jcfjsshg3TM/7ULl6MmrlzgeyLm9bSFByMFPV8PFUy4ezsrFsCpFb8SrUAmErLkJqWrmfuOfu7WgsnJ0fdneeV19/DkhVr8M4bL+kZg86mvKICkyZPw5wff8aEhx9A3xu641h6pu5CdC4+Xh4IDPBXr/nKzjleU1OLsooqFfjYGFsajsa4EBjVD/lqW5M0F4sPfokBUfegd/gI2FjZYemBr/Hzoam6e1Azj7Z6ulDzr2tZpQk7jv0Ce3sH9Iu4B32j7tSB/pnIwGEZCyA1+HbWjuo4K931J6PoCFLzD+BIwT5kmY4is/AoSstL4OsWghC3KFjDDjsz1ujZye5t8zya+3Q0rkhERHR+13whMPkDa+7/LzMASRcg1w0bYHMR/fRPZxEVBYtx42DRp4/6C1uJ2p9+uqTgX0X5MPn6orBLF/2HVmYButJTgcp0m1JDLwt+SYB/5uKnF++SZES65ki3nsSkI4gMD9OLfJ3+3CTB+mHRMkyfOQ+xzaPwxzuG69mFZJDvma//W3Fzcz3v+ILLVVldg33JWXol2QCv+pttqL6wC1DTJb9LUsOeXLQbbrbeiPKK04t9bU1djuOlaaiuqsZx0zEcK0xCulGyS1L1MTbWtvCw99dTdp4+w4+sFRCftREbjixU11qGhKzN6nHS4GDjDHcHb3g6+iHEPQbhHq3g5xSGovJc5Jdlw8PRB6aKYmQXpcDB1hmtfXsiLuAGrgpMREQXpT66ANVLAmBuBZAEwHnLFtgXFRlHXBwJ+i1Gj4ZFhw51g34XLULNrFkX1e/frFb98S8KDESJupaDg8OJBOBKTwV6Mfx8vFBYVIKfl61CwsFE9f6VwdHBXr+vRcUmJBxIxBdfz8Y3s+ahqrIK4x64G+3btlJBfcN4/jJX/K6D6cgpMCE6xBtODg2vuxETgKZNBvseLtgJS1ijpW833QLg6xKK5t6d0C6wD9oH3XiG0lftuxGxvp3gZCeDoX/7fZOBvcsPzsDy5G+QmLcLOUUZyCw6gpSifUgp2A9vh0B4OPjqpMHe2lEnE8kFe1FWXYwBzUahZ/hwtA3shXYBffTzke5H6puv7uJEREQXoD4SgMvuAiSz3cgA4IKCAuTm5sJr6lQE7t5tHHHhLAYOhOV99wEBAUBFBWq+/BK1CxeeujDYRZAEIKVHDxTfeafuAuTi4qJbAmQwcENIAHJy8zBnwWLMnLMQR1LSYGVpCSdHJ7g4O8JZlaqqahSVmFBYWKTfX2kx6NS+De79wwj07NZJJwrXUml5FXYcOKa7/sRF+8PDxVG9r8bOBoRdgJq2lPwDmJfwPqorazC2y6snFgM779ee+iyfaQDwttQVmJ3wNqyqbdA/6m5EesWhrLIEW9KWYu/xdfC0DcJD3V6Ds627Pj6jMBlzEz5AWVUJRsZORJhHC72diIjoUjWIdQAkmD65ZMXGGnsunMWtt9at9hsYCJhMqHnrLdTOnn3Jwb+oVQF1TmTkiefVkGzbsQePP/13vDNpKkpNpXh07Ci8/+bLuPWmAXBwtNdTfcqqwsEBfpg4/gFMfu91DBlwA3arjO/Zf7yJ/773iV5H4FoxlVViy75UHfx3ig2Cp2vDDP6JHG1dYQ17FJTmoKqmwtj6+++t35UzBP+V1WVYdXgOSitKcHPsQ+jT7Hbd1SfKpx1ubTke0e6dkVGaiN3p64wzgHJ1TnF5vh5gbM+uPkRE1EDU6yBgaQHIyshAlw8+gOMFrtZr0akTLB96CAgPB9LSUC09kpKSjAMuXZGnJ7aNHw8/P78Tg4ClBeBKDgI+H1mUbNmq9XhPBf45ObkYeesQjBv9Rz0mQMiPom7WorrZSqxtrPWc/kJaBCQBmDz1Wz39Z69uHfHU4+MQERZyVV9PtfqZ70vOxqpt8jOqhY0eYNxwo3/5bMoYFVkNmi6Oo501bu3TEi6OdsaWxkdm95mx/S3dT39Cr3f0PP5msnBXWuEh5Jgy5JfP2PobW2t7BLlGwsspUCcEmUVH8f76J9SXphVeHDhNzzJ0ss1Hl2Bh0ieIcumIUR2eU78dtTiYvR1f7/g3Ynw64Kbmf9LTjRIREV2O+mgBqJcEQALboqIiPQtQdlYWgmfPRvi+fcZR5xAYqGv+LXr2BPLzUfPpp6iNjz/jH2NNFhmT8QXnecrS/edQhw7IHj4cPj4+8PDwODEL0LUaA1BZWYU16zfhnY+moKKyUv3QRmHowBtha3txM+dkZGVj2oy5mPPDT+jYvi3+9sQjCA4KMPZeHSWlFdhxMF29jmq0iVQJlpsjGuqKsewC1LRV11Ri7p5J2HDkRzzY+RW08u9m7AEO5+zB93vfQUbJEVhbnNo1sKamburg7iHDMbzVOB3spxclY9LGp/QsPs/2nwoby1PHvGxL/QULEj9EuGMcRnd+UY8X2JG2Gt/u+A+6hw3DkOaj4Wjb8AbKExFR43LNuwDppnJVZKYZKXqQrSpprVrBdL4aV6mJb9kSFu3b192Xa91+OyyffRaWzz13xmIxYABgf/6+7yVOTkht21Y/nys988+FkGkyDx5Owlcz5ujg/9Fx92Fw/xsuOvgX/r4+eHDUH3D7rcOwcfN2PUi4rKye1l64QDLYt0PzQF0zvCsxUy8iVXPpeSTRFWNlaaP7/dur5L+g7NSZxGTxrvLqcj1TT5fAoegVMlKV29BTlTY+vaFyAD3Np6wjIFztPOFi44Wiqlxds29eV0CUVhbhcO5ulFWUIsRoZZDziivyILMGOavnIAOQiYiIGoJ6GwMgNesywFZm2yn190dKZCRqzhV0qyDdok0bwJwouLnpFX8tmjc/ewkJUX/Rzz2nfY0K9g/FxqLK2/vEzD/XOgkoMZmweNlqJB9JxZ0jhqFf7+4qj7n0YMDL0x333HELenTpgB9/XoG1GzYbe64eBzsbtI3yh4+bE+KTMpGaWWDsIWpYZNVeW1t75JSeupCgfB3IjFqhHjEYEH03bm45VpU/6X97hN9cN/+/ymvN4wGk9r5T8AB1Ug2WJk7HzmOrkVpwCMm5e7EmaR7ij6+Hi7U3WvrXrexdpRcgy4WdnT1cbN1hbXnm9QSIiIiutnprAZAgWxIAvdiWszOORUcj16Nuxo0zKi9H7bp1qPnwwwsutatW6fPOJdPXF+ktWpyY+1+ekyQn5gTgaicB0sMq+Wgqlq5Yg9Ytm2Ng395wdr781VYDA/xw710jYKde4+fTZqGo+NIHTF8qWxsrtIzwQbNATxSZrm4rBNGFkhYAmdc/V/r6XwZJBDqHDELngKHILDmChQc/xQ/7P8IPByZhVfJs3U1oUPQo+DgF6+Ol+5GsAeBo56QHI1tYXNk1OYiIiC5UvbQAmBMACbglAbB3dESZvz8OtGyJIqezBLtlZajdtAm1c+ZceNmxQy8Odja5rq5IiIsDPD11AmBOAswJwLUgA1DX/7oVJaWl6N2jE4IC/Yw9l69dm5bo2a0jdsUnYOfuCxhzcQVYWVmiWZCnLkQNkbQAqG8n5Jky1b0zdFU746Yzd2mT2XyGxNyPW5o/glC3WFRUlsOy1hodAwdgROyf0TagN6wsjYH7NRUoKDuuFwhj338iImpI6i0BkCDbnADIjCt2KhjPiorC/uholKntV1qxgwP2tG6NwtBQODo768W/5LmYWwCuRe2/qNIJwDZ4eXigQ1xr/Vzqi9T+DxnQBxUVlXqA8bUi76t0CSJqiJxs3GFZbYv80mw9LefpdM38ad8NsoDX2b4tXO29dFegEbGP4r52z+OeuL9hcMxoxPi0P2VmoMqaShSU58LBWiUANkwAiIio4aiXanEJACWwlVYAqXWXBMDJyQm27u440qIFEiIiUK4C8SulRAX6u5o3R1azZrBXiYc8tjwH87Sf1zIByMsvwJGUVISHBCI4sP5n62nbsgXcXJyw78AhvWAYEZ3KydZFBeEuKC4vQIkqZlLHL1300goSsT5pAVYc/E6Vmfjl0CxsTlmK6tq6wb9nag2wtrTViYBMEerp6K8ew1Wv/vubWpRXmVBoyoOthYNKAJyN7URERNdevSUA5m5AUusute8ShMvqu9ZeXtjVsSO2qESgtJ5bAuTPcr56nI1xcUhq0wZ2xnSf8tjyHMyDgM39/6+F/AKZHrUAIcGBKiGp/1lAXFTwHxEegmMZmSguMRlbichM5vN3tfNAjUUVCspyjK3y5ae+s6xskFGWiJVp3+Lno5+rMgU/H/kcW7J/gpWttGyq749L6Lsvk2JJwlFaUQx7KxfY21z+uB8iIqL6Ui9dgIS5G5A5AZBAXBIAKc6urjioAvTV7doh090dFSooP3MP2wsj55bZ2CDFxwdr27dHWkwMnNTjuKrHkSIJgNT+X+vuP0LmElcPrhORSr1mQmW9Fpl+08PNDaWl5XqtASI6ldTMuzn4wM7eFhmFSSem9Qx0jcCgyPvRN+Re3Bh096kl+G4MiRqD7qE3qQTi4lfwrawpR3ZJKqRRwMXOnVOAEhFRg3JZC4GdTC5z8srAJSUlenGw/Px8XWSlYLlfm5eHmMREhGdkwF0dY6eOt7zAp1CtkowyFUjnqeQiMSgISWFhsDZW+XVTQbC7Si6kSNIhXYAaQgtAfMJB/GH0n9Gze0f0u6GHrhmsS2Eun8xKIv+fPnOubmWY9dVHCPD3NfY2TvLOZGRkIT0jE82jI1Uy99t6EqbSUmzdsQcxkeH657t95x5jz6nkZ+3j46UTpPkLl6jPXhGGDx1g7K1jZ2eLtq1jceBQEgoKCo2tv4mJioC/X+N+L+k3O4+twvwDH8He0gUDIu9FqHuMCsw9dZ/9+vpukPn+y6pKUVh2HEm5e7DqyPeoqC7F4MgH0CV0kDri2nwHERHR9eWarwR8OkkAzEmA9Ec3mUw68D+5FBcXo1Rtd87JQUBmJrzUNk+VGDip422qq2GtzpciqlTgXmVlhQpViu3tcdzVFXmqpPr7o9zDQweB5lYGSQCk9l9u6/EHRvBvbgG4Vg4np+ChCc+ivKL8ij0P+RGGBgfivf+8rAcbN2by+fnym1lYuGQlPvjPP04Jwrds34VR4ybi47dfQ1SzcHw8ZbrenpaeiX37D6Fzh7Zwc3WBhfrctG3VQiWcJVj6yxqVgBboWZi8vTxV8hChPhdW6nPijNtvGYpn//GmXiQqLCRQX0scTj6q3s8gPP+XP+vjqPErqyzBysTZ2J61DIUlBYjyaYMQ11j4u4TB3d5Hz+4js/XYWtnB0tK6Lrk+B/mdk2k+ZVBxaWUxisvzkV+WhbTCwzhaEI/knHi4OnmivV8/9AofoWciIiIiqg8NLgEQEsDJ1JeVleqPY3m5TgKkNcDcAiAJgNwvVQGZ7LdQ/7qqF+Gsttmoc3QSoIo8qUoVvEsCUKmC+SJnZxSqAN/SmN3n5HEG5iItAbLdPPjXXPN/LRMAk6kUazduqUsArlANoPwEPT3c0LVTO/26GzOZNenVN9/T6xq89a8XjK11vp09H2+9PxlL5n2tX6/Z3B9/xsw5C/CvF59GZESYsbWObN+0ZQeysnMwoG9v/PH24br2X+zasw8vvfY//N9jf0Kfnl31NiHJxIOPPo133nhJvafGStXU6JVVmXAgeyvis35FWvEB5BRmws7WAZ7OfnC19YSjpZteM0Dm7LezdoCNpS2sVDJQNwbAAjW11br7UGV1hbpWCUoqClBUkQdTdQEKK3KRW5SpkgETfFwDEOwSg1ifroj2bgcn298+q0RERJerQSYAcjkp5iSgoqJCB/sS9EsxJwCSGMh22S/HSauBnGM+X0jgLkG8FAlszQuNmYN/KeZBv9IaYB74K8c1hOCfLp58Fu7500T07t4ZEx4ZY2yt8/Lr72DHrr2Y981kY0sdaQnYtTcBL/zlcb1A2skkAVj48wrdHejRcfejV7dO+rNRXV2DFavX4dMvvsErzz+F2OZRxhl1BtxyD554dCxuHtLf2CIDugvxxfRZeu2F7+YuhIv63I0bcw8SDhzCoiUr9DGREeG4+45b4O7mqsdn7Infj6++na33iXv/cBvat22lb//rvx+ge5f2WLN+s0p4itG1Y3vcNLif+izX9TlfsmK1LiLAzw8jhw9GRHionllqyrTvcMuwAfhuzkLkFeSr/b74o3rcoAB/ffzkqd9i/6FEfdvB3gETx4/RLSBi2cq1WLFqPSoqK+CmkuoX/zpBb28qisrzdP/8rKIUZJQkI6f0GI4Xp6PQlKsS0EpYWlmo7xE72Fip7xE9CFi+QyzU95JUbkgCUKkT+mr1nWVrbQdXR094OvnB2yEIvk5hulXB2ykIrnae/P4hIqJ6Vx8JgNXLinG7Xpz8B88cvJsDeHORAF0C9dOLBPdSpAZfigT05mDfPKhYuvlIdx9zlx9zAiDHybkM/hs3aQH44NOpKrgdiJioZsbWOv/7YLLuty9jKcwKi4p1gO/r7YkeXTv+bqalvfsOYPX6TfD388bAfr3hYwTBknj+vHwVjufk6iDf5aTVmaVlYMb3CzBm1B/g6+NlbAWOpqZh0ufTsHX7bvzp/j8iKjIcu9WxEvzf2Ku7CuY7YNWajdh/MBFdOrZDZVUl/vnGuwgLDcawQX31c12/aRtaxETprkrjn3gOiYeP4NabBsNVfbZltWgfby+Eq+Pll/u9j79QgfuDaKaCfpnmdcfueLRsEY2cnDx8+NmXKjlYg5sG9UOsut7KtRt1TXWbVi3w4+LlWL3uV51MdGrfFtt27dHvg7RyLF62EvMXLkXvHl3QvXMHbNq6Q19ncP8+xqu8/kntvoeDHwJcIxDmHosor3Zo5dcdrf17oLlPB0R4tUGQS5QK5kPg5RAIT/sA9W8AfBxDEeQchWYebdDKtxs6BPVD17Ah6Bg0EG38eiLGpxPCPWJV8B8Ie2tHfv8QEdEVIZWLZeXl6Nwhzthy8eplGtDTyR8+CcKl/7251t7cX18G6Xp6esLLywve3t4nio+Pzyn3z1bMx8k1JAmQa8q15TEkuWDw37htVAFy9vFc3Q3oxpvuOqXIgN2uHU/9sGdkZiHtWLr6XHjrz8CZHE1JU/+1gINKKs2qqqvU4+QgNChQBfnexlYgNS0dTz73T4y8ZShaRJ+agCQfTUVxsQl/e/JR3d0qMiIU8xYuQZ9e3XDz0AE66O/SuR02bN6mg/+a6ho9CHzX7n269n3cA3fjrxMfhr+vt0oidqGishJj778LA27shaEDb0RQoD927d2nEwwZB/G3J8bra/ZWgbsE6McysnAgMRlJR1NQUlKKcaPvxpCBfdA+rrVOfPIL6wYzp6v3ZKdKTFJSj6FDuzb4+zNPYPzYUdh/6DB+WrZKPd+uuHlwf33tm1WSsGT5avUeHdPnNiXSvUfm7/dyDECgazNEerdF28De6BoyBL0jRqJ/5D0YHD0aw5o/iGExYzE0ZgwGRo9Cn2Z3oFvYMMQF9UGUdzsEuUXq9QCcbd30AmJEREQN3RVJAIQ5CZBirvE31+ZL4O7h4aGTAAnofX19Tyl+fn6nFNkmx0mRwN88049cS1oK5NoS/F/rKT/p8m3csh1hIUFYv3QuViz49kSRAbmuLs4IDw0xjqwjteoy6FdaC862zoJ0LZNBvifX8kuXIAmSZ8xZgNjO/RDT4UZd+t78R0x45AE899Rj+jN1soOHk9GmdQtdQy9Wrd2oa9Bf+Od/0arLAH3+S6++pccbyCAWmcFo8vtv6IRg8G334e0PPtOfVfl92LpzD4L8/XDTkAHqcVSirFvGrHVXuDUbNqvPupcK/Lvox5EuKObXJvslQYpQyccNar9cS7qlFBeXwMPNVR8jrRM9unTAW+rxWnbujz17E3QCkqKC/IWLl+P5V/6DVl3rnu/4J1/QrS5y3aZOxujIlKESxMtgYGkpkJp8e2v1PWOjirot22TmIFkIzEodK+cQERE1NlcsATAzJwESTEnwY+7aI113pAuPBPOSDEhgb67ll8TA3EIg/8o+Oebkbj9S628O/iXwZ83/9SE1LQNxbVue+NyYi9T+S/edFjGRxpF1pFZcBvV6up99oKV8JlrFNofHScfIGAAJ+d554+84sG3liXJw+yrcMmzQ7z5HMrj9eHYuoiLCYKc+cyIz+zg6tmujzzn5/PVL5+jgPzPruE4WZNub/3wO381biGkz5uiB4fI6O3VseyJ8zDqeg7T0DN0KIP3LPdXvhXkBKhkTI4mOJDLSdehQYjIi1HXlsy9K1PWOqXNlALTcLigswuuvPIt9m5ejS4c4THjmH/hl9XqkHktH/z49sXzBN6c834QtK9BMJRRERETUNFzxBECYA3MJ5E7uFmROBqQmX2r0T+/jb95mru2XY0+v8Zdrmq9PjVtZWTm27ditu+WcTlY6btE86pSfswTEEvjW1NSeGDh7Jl6eHnA9qfZfyOAZGZDu5eFubDm3dJVopKgAOjoy4kTgLdeVPnhSIy9kkLD0tZeuRRK0D7/rQcycu0Dvu2lQX9w5YhiyVNIgAfqO3XuRk5uvX7Ms4Ba//6D+PEtLhrP6rMssSLLugVxHkpzlK9ciRL0vwSpByM7JQURYCGxtrPV+mbVIfkeahYdhwU/L8JfnX0Vi0hH9uJM/eEO3nKRnZuv3SMY+yPSoorikBDt3x6v3MFPfJyIioqbhqiQA4vQkwJwISDB1cjJwpiL7pMhxco75fPM1Tw4KqfE6mJiE3Lx8tGvT0thSRxbyklpvWeTs5J+1BNxpxzIRGR4KbxWMn01IcKAeXHuyzVt36s9WcGCAseXcpF+9paUFQkOCdJcdMbBvb70K81sffIoFi5fj869m4DNVEg4k6hmAZFaeHxYu0/tkUHF+fqEeeJuTm6dbB+T5f/3dXHw390esWb8JfXp01QlG397d9GPJQGAJ6L+dNV+9LwUYPrS/fn8KC4t1MmBlVddFSQYd+6rX5+3lgVaxMeqxa7B46Ur9uNNmzNVjFWTMggwIlkRBHk/2TflqJj6c/BV27InX1yEiIqKmod5nATofcwBnDtzNXTzMt83BvbmY95uPOb3Q9UOmhZWgfHD/G9S/vw3YlRpzFU/rKTz9/XxO/NylH7/UaMsg2PCwU8cGmEmNvLQUyCDak69ZYjLp4L9X987GlnMrV48jM/XIdKFOjnWrE9va2eqFxVKPZejZhOxt7TD63jv0TEXSb1+6B0mQL60UxSUmPQuPDOjdm3AA6zZuwesvP4M96rZMAdq5fRxG3jIEtirBlWQlOioCCfsP6a5Bzs5OuP/ukWgd21y/ZkcnB73omXmRstKycj07kMwW5OfjrROlNPWcZIC0tFA8OvY+vU+6QAUHBajt2cjIytZ9/8f/6T712G31dYiIiKjhq49ZgOp9HQCihkTWATh+PBePPTTa2HLtvTPpc2zfGY8vP37L2EJERER0YepjHYCr1gWIiOocOZqmZyUiIiIiuhaYABBdZU9PeBh/bkAtEkRERNS0MAEgusoCA/xOWXyMiIiI6GpiAkBERERE1IQwASAiIiIiakKYABARERERNSFMAIioUZC1Db6ZNR+r120ytjRuNTU1OHT4CL7+bt6JsnzlOpSWlhlHAJWVlXq1ZvP+Hbv26rUgiIiILgcTACJqFH74aRk++eJrfDj5S2RmZRtbGydZfGXnnn2YPPUbHE4+ipISky7f//ATps2coxevkwRh3/5DmDL9Oxw5moojKan4Qt3etHWH3k9ERHSpmAAQUaMwe95CDOjbSwfPm7ftqtvYWNXWYuHi5Xolx4mPjMFDY+7RZVC/GzBLvc6jqcd0Tf/CJSvg6OiAxx9+QJUxcHF1wZIVq1FWVm5ciIiI6OJxJWC6rjXElYDp4q3ZsAljH/srls3/Gp9Pm4mqqmr866Wnjb3Av//3Edq0bI5pM+bo+8FB/hjcvw+2bN+Fnbv3wc3VFa//4xl4erijorISi5eu1F1qzLp16YAx994JdzdX3PXAY8bW3wwf0h8jhg+Bs5Mj/v7vt5Gw/5De3iGuNR5+8F593sq1G7Hw5xWIax2LBT8tg7W1FW7o0VXvP11NTS3+/PSLOsj/7P03jK3QrQDSItAsIgz2dna61t/OzhZBAf56/zuTpiAx6Qj+9eLTcHVx1tuIiKhp4UrARNQkLFi8HANu7IWQ4EAMGXAjdu6Jx8bN2429wKHEZPz9tf9h4vgH8fKz/4fSsnJ8OPkrtG7ZAu++8TIsLS0w9ZvZ+tjtO/fii+mz8Ni4+/W+O0YMw8/LVmHbjj26241sMxfZV1VdjaBAf10T/8Kr/8XBxCS9729PPopEFax/9Nk0FBQWISc3D2vWb0JK2jG9X2rsl/6yBj+pZON08nyGDx6A9b9uQa/Bt+Op519F8tEUOKkEo02rFnBSj2VlZYlm4aEngv/d8QlYv3ELenfvDAd7e72NiIjoUjABIKIG7UhKmg58Rw4fDAsLCwT6+8LH20sF8nuMI+pIsN6ja0eEqiShRXQz9W8Qeqr7/n4+OqiWQcTS3unt5YG533yK3j26wNfHS7ccSEAtLQNCjpeSk5eva/Jvv2Uo+t7QA9t37NaJwkt/naj3t2/bCvffPRJJR1IQn3BQnysJxAQV+Mv+ZhGhaNE8ChlnGa8wdNCNWDBzikouAvTjDBpxH6Lb98F0YwyAWXFxCf773qe4fdQjsLa2RpeO7WBjY23sJSIiunhMAIioQZOuNRKgR0c1Q2paOkylpbpWfPuuvUg+mmocdX6Z2cfVf2sRHhqsryMzCvUYOBJj//wM9h9KRLbaL11zpE/ksfRMTJ8xRycRwwb21edLQiABfouYSH1fyPOS2vwSk0nf91WJiYW6byZ99QsKiox7vxcZEYaZX3yAA9tW6nLbzYPx6n8+0K0RZs7OTvjLhIf0/hFq/6NPvoCMzMY9CJqIiK4tJgBE1GCZTKVYt2Ez7FWg/ezLb+CvL/0b/3zzfezem4DUY+k4dDjZOPLCyew7I0c9rKfX/OTdf2Pye/9GTGSEsRcqYC/EV99+j7yCAjw85h64u7vq7TbWdbXukoCYSUIgrQpWVlbGlgsjQ6+27dyDvPwCY0udN//5HKKbhWNvwgHdCpBwIPGUFoSuHdvpc2WcABER0aViAkBEDdavW7Yj63gOXnn+SXzz+XsnypuvPgdvT0/sid9/SkB+IZatXIu2rVroYLtFdCR2q2scz80z9gLfzV2IrSo4/9P9f9RjDswiwkLg6+ONWXMW6vuSnMg0nXa2NvBT2y+GBPGvvPGuHrQsCYfZ0ZQ0PdZAHktmCJr0+TR89uUMFBYV6/179u2Hg72dHnRMRER0qZgAEFGDJIG9dP8JDQnU3XZOJl2A2se10t2AUlLTja0XRvrQS3ceGST8/idTsXffAVhaWuokYG/Cfnwy5Ws9g8+vW3boY6QsWvILvLw89MDhWfMX6W3vfjwFazdu1oOTZbDuxZCxDOPHjsLhpCN4+6PPTzzO5K9moE/PrujZrTPs7Oxw67CBOK4SoHeMYxYvW4nbhg/RXYeIiIguldXLinGb6LojwZ3U1ErQR41LdXWNDoKl20twUKCeFcfM1tZG97eXAbSREaEIDPBD69gY+Pv56j75Ls7OiI4MR5hKHGTgrEzfGRMVgYiwUD1A19vLE5YWlnB1dUGfXt3QuUMcoiIj4KrOi1DBvLQMODo4nCje3h7GYzSHn6+37vbj4e6mA3UJ2O3t7fR4AAnMo9V1JKGQ4uXpgebqWqe3EEgCEB4Womv65XWaHydGPedbbxqkp/6U84ODAhASHKTHJsj+ju3a6LUQ5DYRETVN0votrcTyt+tScR0Auq5xHQAiIiK6nnAdACIiIiIiuihMAIiIiIiImhAmAERERERETQgTACIiIiKiJoQJABFdlyorKxGfcBAHDh1Wt6uMrfVj/8FE7Nqzz7h3cUpKTDiek2vcIyIiuvqYABDRdanEVIrpM+fi+/mL1G2TsbV+yGJhskDXxSoqKsbUr2frlYyJiIiuFSYARERXSW5eAb6a8b1xj4iI6NpgAkBE17Ws47l4/e2P8PjTL+mSkZmttycdScGnU785pSuPzK086fPpxj1gzfpNJ857/pX/oLCwyNjzm4OHk/HGO5P0qsL5BYV625Tp35047+Mp03WXn9y8fHz21QwUFZfgky++wfJV6/SxREREVxsTACK6rq1a9ys6t4/DuNF3w8HRAU89/6pOAvLyC7B1x25kZh83jgT27NuPLdt36dvy7xcqkO/RtaM+V1Yffl0F+ieTJGLSZ9P0YnO9unWCk6MjPlL3f1y8XJ9z7x9uU8F/nkoqpqFYBf6yiq+DvR0G9euNtq1aGFchIiK6upgAENF17eZB/dCnVze0bR2Lvz8zEdkqWF+7cbOx98wKCouwcs0GNI+OxB233qTPfXriw/jDbTcbRwDHMrLw3sdfoKKiAg+PuRdxbVoiXW2bMn0mnv/L4/qcrp3aYaAK+nNy85GRlY3wkGBYW1sjIiwEPt5expWIiIiuLiYARHRdCwjwg6Ojvb4tNfRtWjVHutEN6GxMpaVIOpoKHx8v2NhY622ODg5op4J8UVVdjZ174rFoyS8ICw1GZLMwWFpaqutmoqy0HKPGTUBs535o2aU/Hhj/FDZs2gaTqUyfS0REdK0xASCi61pNTQ1qa407itTYW6lg3dLCQgftJ6tWgb2wUP+T/XLumVioEtc6Fq+++Bfs3BWPpb+sRVVVNaysrPTObasXYd/mFSfKryvm48be3epOJiIiusaYABDRde3Q4WQ9/aY4mpKGhAOJaBETCUdHB9jb26G4xKQDfxngm5h0RB/n4GCPoMAAdfwxFBrnSheeTVt36NsS6Af6+6F/n55o1TIGs+b+iOSjKfoc6drz9Xfz9HEi+3gOdu7Zp7sVERERNQRMAIjourZv/yHMX7gEs+ctwj//854O2vvd0AOeHu7w9/XRM/3I7D8z5/yokoC6YN/N1QUjbhqogvZCPYuPnPvf9z7F7PmL9H4zucaImwbrNQfmqcdwcXbEnx8aje9/WKTPkTJ56reYoa4vMwE5q/3eXh5Yt3GLTgqIiIiuBauXFeM20XVn774DMKngrEvHdsYWakpkwG37uFYoL69ATm4e/Hy88dTjD+l90gIQFOCvuwTJjECeHm46MZD+/C2iI1Wg7omgQH+kpqXrqTslKZg4fizsbG31+eGhwYiODIePt6c+t7S0VA8a7hDXGl6eHjiSkqrP81NJxsjhQ9AsPFSPI/Bwd9MJg6f6NywkSF+LiIjoQu2J34+y8nJ07hBnbLl4FrWKcZvoujNzzgI9ReNjD402thARERE1XtJqnV9QgPFj7zO2XDx2ASIiIiIiakKYABARERERNSFMAIiIiIiImhAmAERERERETQgTACIiIiKiJoQJABERERFRE8IEgIiIiIioCWECQERERETUhDABICIiIiJqQpgAEBERERE1IUwAiIiIiIiaECYARERERERNCBMAIiIiIqImhAkAEREREVETwgSAiIiIiKgJYQJARERERNSEMAEgIiIiImpCLGoV4zbRdWfmnAX46LNpCArwN7YQERERNV7Zx3Mw8pYhGD/2PmPLxWMCQNe1khIT8vILjHtEREREjZ+rqwtcXZyNexePCQARERERURPCMQBERERERE0IEwAiIiIioiaECQARERERURPCBICIiIiIqAlhAkBERERE1IQwASAiIiIiakKYABARERERNSFMAIiIiIiImhAmAERERERETQgTACIiIiKiJoQJABERERFRkwH8P94lsA75k00lAAAAAElFTkSuQmCC;" vertex="1" parent="1">
          <mxGeometry x="21.5" y="270" width="768" height="365" as="geometry" />
        </mxCell>
        <mxCell id="FOwUjEchJwJAMd38yOZP-19" value="&lt;b&gt;&lt;font color=&quot;#0000ff&quot; style=&quot;font-size: 20px;&quot;&gt;#1 - Upload&lt;/font&gt;&lt;/b&gt;" style="text;html=1;strokeColor=none;fillColor=none;align=left;verticalAlign=middle;whiteSpace=wrap;rounded=0;" vertex="1" parent="1">
          <mxGeometry x="20" y="10" width="130" height="30" as="geometry" />
        </mxCell>
        <mxCell id="FOwUjEchJwJAMd38yOZP-21" value="&lt;b&gt;&lt;font color=&quot;#0000ff&quot; style=&quot;font-size: 20px;&quot;&gt;#1 - Upload (necessário ver as politicas do banco)&lt;/font&gt;&lt;/b&gt;" style="text;html=1;strokeColor=none;fillColor=none;align=left;verticalAlign=middle;whiteSpace=wrap;rounded=0;" vertex="1" parent="1">
          <mxGeometry x="21.5" y="240" width="608.5" height="30" as="geometry" />
        </mxCell>
        <mxCell id="FOwUjEchJwJAMd38yOZP-23" value="&lt;b&gt;&lt;font color=&quot;#0000ff&quot; style=&quot;font-size: 20px;&quot;&gt;#2 - Processamento&lt;/font&gt;&lt;/b&gt;" style="text;html=1;strokeColor=none;fillColor=none;align=left;verticalAlign=middle;whiteSpace=wrap;rounded=0;" vertex="1" parent="1">
          <mxGeometry x="334" y="10" width="196" height="30" as="geometry" />
        </mxCell>
        <mxCell id="FOwUjEchJwJAMd38yOZP-24" value="&lt;b&gt;&lt;font color=&quot;#0000ff&quot; style=&quot;font-size: 20px;&quot;&gt;#2 - Processamento (mesma estratégia para validação do arquivo)&lt;/font&gt;&lt;/b&gt;" style="text;html=1;strokeColor=none;fillColor=none;align=left;verticalAlign=middle;whiteSpace=wrap;rounded=0;" vertex="1" parent="1">
          <mxGeometry x="21.5" y="670" width="638.5" height="30" as="geometry" />
        </mxCell>
        <mxCell id="FOwUjEchJwJAMd38yOZP-26" value="callback upload" style="text;html=1;align=center;verticalAlign=middle;resizable=0;points=[];autosize=1;strokeColor=none;fillColor=none;" vertex="1" parent="1">
          <mxGeometry x="377" y="50" width="110" height="30" as="geometry" />
        </mxCell>
        <mxCell id="FOwUjEchJwJAMd38yOZP-27" value="Fluxo de Onboarding" style="rounded=0;whiteSpace=wrap;html=1;" vertex="1" parent="1">
          <mxGeometry x="580" y="95" width="120" height="60" as="geometry" />
        </mxCell>
        <mxCell id="FOwUjEchJwJAMd38yOZP-30" style="edgeStyle=orthogonalEdgeStyle;rounded=0;orthogonalLoop=1;jettySize=auto;html=1;entryX=0;entryY=0.5;entryDx=0;entryDy=0;entryPerimeter=0;" edge="1" parent="1" source="FOwUjEchJwJAMd38yOZP-28" target="FOwUjEchJwJAMd38yOZP-29">
          <mxGeometry relative="1" as="geometry" />
        </mxCell>
        <mxCell id="FOwUjEchJwJAMd38yOZP-28" value="" style="sketch=0;outlineConnect=0;fontColor=#232F3E;gradientColor=none;fillColor=#3F8624;strokeColor=none;dashed=0;verticalLabelPosition=bottom;verticalAlign=top;align=center;html=1;fontSize=12;fontStyle=0;aspect=fixed;pointerEvents=1;shape=mxgraph.aws4.bucket_with_objects;" vertex="1" parent="1">
          <mxGeometry x="21.5" y="720" width="48.08" height="50" as="geometry" />
        </mxCell>
        <mxCell id="FOwUjEchJwJAMd38yOZP-32" style="edgeStyle=orthogonalEdgeStyle;rounded=0;orthogonalLoop=1;jettySize=auto;html=1;exitX=1;exitY=0.5;exitDx=0;exitDy=0;exitPerimeter=0;" edge="1" parent="1" source="FOwUjEchJwJAMd38yOZP-29" target="FOwUjEchJwJAMd38yOZP-31">
          <mxGeometry relative="1" as="geometry" />
        </mxCell>
        <mxCell id="FOwUjEchJwJAMd38yOZP-29" value="" style="sketch=0;points=[[0,0,0],[0.25,0,0],[0.5,0,0],[0.75,0,0],[1,0,0],[0,1,0],[0.25,1,0],[0.5,1,0],[0.75,1,0],[1,1,0],[0,0.25,0],[0,0.5,0],[0,0.75,0],[1,0.25,0],[1,0.5,0],[1,0.75,0]];outlineConnect=0;fontColor=#232F3E;gradientColor=#FF4F8B;gradientDirection=north;fillColor=#BC1356;strokeColor=#ffffff;dashed=0;verticalLabelPosition=bottom;verticalAlign=top;align=center;html=1;fontSize=12;fontStyle=0;aspect=fixed;shape=mxgraph.aws4.resourceIcon;resIcon=mxgraph.aws4.eventbridge;" vertex="1" parent="1">
          <mxGeometry x="185" y="721" width="48" height="48" as="geometry" />
        </mxCell>
        <mxCell id="FOwUjEchJwJAMd38yOZP-37" style="edgeStyle=orthogonalEdgeStyle;rounded=0;orthogonalLoop=1;jettySize=auto;html=1;entryX=0;entryY=0.5;entryDx=0;entryDy=0;entryPerimeter=0;" edge="1" parent="1" source="FOwUjEchJwJAMd38yOZP-31" target="FOwUjEchJwJAMd38yOZP-36">
          <mxGeometry relative="1" as="geometry" />
        </mxCell>
        <mxCell id="FOwUjEchJwJAMd38yOZP-59" style="edgeStyle=orthogonalEdgeStyle;rounded=0;orthogonalLoop=1;jettySize=auto;html=1;exitX=0.5;exitY=1;exitDx=0;exitDy=0;exitPerimeter=0;" edge="1" parent="1" source="FOwUjEchJwJAMd38yOZP-31" target="FOwUjEchJwJAMd38yOZP-58">
          <mxGeometry relative="1" as="geometry" />
        </mxCell>
        <mxCell id="FOwUjEchJwJAMd38yOZP-31" value="" style="sketch=0;points=[[0,0,0],[0.25,0,0],[0.5,0,0],[0.75,0,0],[1,0,0],[0,1,0],[0.25,1,0],[0.5,1,0],[0.75,1,0],[1,1,0],[0,0.25,0],[0,0.5,0],[0,0.75,0],[1,0.25,0],[1,0.5,0],[1,0.75,0]];outlineConnect=0;fontColor=#232F3E;gradientColor=#FF4F8B;gradientDirection=north;fillColor=#BC1356;strokeColor=#ffffff;dashed=0;verticalLabelPosition=bottom;verticalAlign=top;align=center;html=1;fontSize=12;fontStyle=0;aspect=fixed;shape=mxgraph.aws4.resourceIcon;resIcon=mxgraph.aws4.step_functions;" vertex="1" parent="1">
          <mxGeometry x="355" y="715" width="60" height="60" as="geometry" />
        </mxCell>
        <mxCell id="FOwUjEchJwJAMd38yOZP-34" value="" style="verticalLabelPosition=bottom;html=1;verticalAlign=top;align=center;strokeColor=none;fillColor=#00BEF2;shape=mxgraph.azure.cloud_services_configuration_file;pointerEvents=1;" vertex="1" parent="1">
          <mxGeometry x="112" y="750" width="30" height="40" as="geometry" />
        </mxCell>
        <mxCell id="FOwUjEchJwJAMd38yOZP-35" value="upload.csv" style="text;html=1;align=center;verticalAlign=middle;resizable=0;points=[];autosize=1;strokeColor=none;fillColor=none;" vertex="1" parent="1">
          <mxGeometry x="86" y="785" width="80" height="30" as="geometry" />
        </mxCell>
        <mxCell id="FOwUjEchJwJAMd38yOZP-39" style="edgeStyle=orthogonalEdgeStyle;rounded=0;orthogonalLoop=1;jettySize=auto;html=1;exitX=1;exitY=0.5;exitDx=0;exitDy=0;exitPerimeter=0;" edge="1" parent="1" source="FOwUjEchJwJAMd38yOZP-36" target="FOwUjEchJwJAMd38yOZP-38">
          <mxGeometry relative="1" as="geometry" />
        </mxCell>
        <mxCell id="FOwUjEchJwJAMd38yOZP-36" value="" style="outlineConnect=0;dashed=0;verticalLabelPosition=bottom;verticalAlign=top;align=center;html=1;shape=mxgraph.aws3.sqs;fillColor=#D9A741;gradientColor=none;" vertex="1" parent="1">
          <mxGeometry x="504" y="721" width="46.5" height="48" as="geometry" />
        </mxCell>
        <mxCell id="FOwUjEchJwJAMd38yOZP-38" value="Fluxo de Onboarding&lt;br&gt;(Já existente)" style="rounded=0;whiteSpace=wrap;html=1;" vertex="1" parent="1">
          <mxGeometry x="634" y="715" width="120" height="60" as="geometry" />
        </mxCell>
        <mxCell id="FOwUjEchJwJAMd38yOZP-40" value="path arquivo &lt;br&gt;a ser processado" style="text;html=1;align=center;verticalAlign=middle;resizable=0;points=[];autosize=1;strokeColor=none;fillColor=none;" vertex="1" parent="1">
          <mxGeometry x="233" y="710" width="120" height="40" as="geometry" />
        </mxCell>
        <mxCell id="FOwUjEchJwJAMd38yOZP-41" value="Trigger para cada &lt;br&gt;arquivo carregado" style="text;html=1;align=center;verticalAlign=middle;resizable=0;points=[];autosize=1;strokeColor=none;fillColor=none;" vertex="1" parent="1">
          <mxGeometry x="65" y="710" width="120" height="40" as="geometry" />
        </mxCell>
        <mxCell id="FOwUjEchJwJAMd38yOZP-42" value="envia parceiro" style="text;html=1;align=center;verticalAlign=middle;resizable=0;points=[];autosize=1;strokeColor=none;fillColor=none;" vertex="1" parent="1">
          <mxGeometry x="405" y="720" width="100" height="30" as="geometry" />
        </mxCell>
        <mxCell id="FOwUjEchJwJAMd38yOZP-43" value="processa &lt;br&gt;parceiro" style="text;html=1;align=center;verticalAlign=middle;resizable=0;points=[];autosize=1;strokeColor=none;fillColor=none;" vertex="1" parent="1">
          <mxGeometry x="555" y="710" width="70" height="40" as="geometry" />
        </mxCell>
        <mxCell id="FOwUjEchJwJAMd38yOZP-51" style="edgeStyle=orthogonalEdgeStyle;rounded=0;orthogonalLoop=1;jettySize=auto;html=1;exitX=0.5;exitY=1;exitDx=0;exitDy=0;" edge="1" parent="1" source="FOwUjEchJwJAMd38yOZP-45" target="FOwUjEchJwJAMd38yOZP-46">
          <mxGeometry relative="1" as="geometry" />
        </mxCell>
        <mxCell id="FOwUjEchJwJAMd38yOZP-45" value="Start" style="ellipse;whiteSpace=wrap;html=1;aspect=fixed;fillColor=#fff2cc;strokeColor=#d6b656;" vertex="1" parent="1">
          <mxGeometry x="259" y="842" width="40" height="40" as="geometry" />
        </mxCell>
        <mxCell id="FOwUjEchJwJAMd38yOZP-49" style="edgeStyle=orthogonalEdgeStyle;rounded=0;orthogonalLoop=1;jettySize=auto;html=1;exitX=0.25;exitY=1;exitDx=0;exitDy=0;entryX=0.25;entryY=0;entryDx=0;entryDy=0;" edge="1" parent="1" source="FOwUjEchJwJAMd38yOZP-46" target="FOwUjEchJwJAMd38yOZP-47">
          <mxGeometry relative="1" as="geometry" />
        </mxCell>
        <mxCell id="FOwUjEchJwJAMd38yOZP-46" value="Import" style="rounded=1;whiteSpace=wrap;html=1;fillColor=#d5e8d4;strokeColor=#82b366;" vertex="1" parent="1">
          <mxGeometry x="236" y="912" width="86" height="40" as="geometry" />
        </mxCell>
        <mxCell id="FOwUjEchJwJAMd38yOZP-50" style="edgeStyle=orthogonalEdgeStyle;rounded=0;orthogonalLoop=1;jettySize=auto;html=1;exitX=0.75;exitY=0;exitDx=0;exitDy=0;entryX=0.75;entryY=1;entryDx=0;entryDy=0;" edge="1" parent="1" source="FOwUjEchJwJAMd38yOZP-47" target="FOwUjEchJwJAMd38yOZP-46">
          <mxGeometry relative="1" as="geometry" />
        </mxCell>
        <mxCell id="FOwUjEchJwJAMd38yOZP-53" style="edgeStyle=orthogonalEdgeStyle;rounded=0;orthogonalLoop=1;jettySize=auto;html=1;exitX=0.25;exitY=1;exitDx=0;exitDy=0;entryX=0.5;entryY=0;entryDx=0;entryDy=0;" edge="1" parent="1" source="FOwUjEchJwJAMd38yOZP-47" target="FOwUjEchJwJAMd38yOZP-52">
          <mxGeometry relative="1" as="geometry" />
        </mxCell>
        <mxCell id="FOwUjEchJwJAMd38yOZP-55" style="edgeStyle=orthogonalEdgeStyle;rounded=0;orthogonalLoop=1;jettySize=auto;html=1;exitX=0.75;exitY=1;exitDx=0;exitDy=0;entryX=0.5;entryY=0;entryDx=0;entryDy=0;" edge="1" parent="1" source="FOwUjEchJwJAMd38yOZP-47" target="FOwUjEchJwJAMd38yOZP-54">
          <mxGeometry relative="1" as="geometry" />
        </mxCell>
        <mxCell id="FOwUjEchJwJAMd38yOZP-47" value="HasLineToProcess" style="rounded=1;whiteSpace=wrap;html=1;fillColor=#d5e8d4;strokeColor=#82b366;" vertex="1" parent="1">
          <mxGeometry x="223" y="992" width="113" height="40" as="geometry" />
        </mxCell>
        <mxCell id="FOwUjEchJwJAMd38yOZP-52" value="CommitSucess" style="rounded=1;whiteSpace=wrap;html=1;fillColor=#d5e8d4;strokeColor=#82b366;" vertex="1" parent="1">
          <mxGeometry x="110" y="1072" width="113" height="40" as="geometry" />
        </mxCell>
        <mxCell id="FOwUjEchJwJAMd38yOZP-56" style="edgeStyle=orthogonalEdgeStyle;rounded=0;orthogonalLoop=1;jettySize=auto;html=1;" edge="1" parent="1" source="FOwUjEchJwJAMd38yOZP-54">
          <mxGeometry relative="1" as="geometry">
            <mxPoint x="539" y="1092" as="targetPoint" />
          </mxGeometry>
        </mxCell>
        <mxCell id="FOwUjEchJwJAMd38yOZP-54" value="Fail" style="rounded=1;whiteSpace=wrap;html=1;fillColor=#f8cecc;strokeColor=#b85450;" vertex="1" parent="1">
          <mxGeometry x="316" y="1072" width="113" height="40" as="geometry" />
        </mxCell>
        <mxCell id="FOwUjEchJwJAMd38yOZP-57" value="Fluxo Retry ou Apuração" style="rounded=0;whiteSpace=wrap;html=1;" vertex="1" parent="1">
          <mxGeometry x="538" y="1062" width="120" height="60" as="geometry" />
        </mxCell>
        <mxCell id="FOwUjEchJwJAMd38yOZP-61" value="" style="sketch=0;points=[[0,0,0],[0.25,0,0],[0.5,0,0],[0.75,0,0],[1,0,0],[0,1,0],[0.25,1,0],[0.5,1,0],[0.75,1,0],[1,1,0],[0,0.25,0],[0,0.5,0],[0,0.75,0],[1,0.25,0],[1,0.5,0],[1,0.75,0]];outlineConnect=0;fontColor=#232F3E;gradientColor=#F78E04;gradientDirection=north;fillColor=#D05C17;strokeColor=#ffffff;dashed=0;verticalLabelPosition=bottom;verticalAlign=top;align=center;html=1;fontSize=12;fontStyle=0;aspect=fixed;shape=mxgraph.aws4.resourceIcon;resIcon=mxgraph.aws4.lambda;" vertex="1" parent="1">
          <mxGeometry x="210" y="900" width="38" height="38" as="geometry" />
        </mxCell>
        <mxCell id="FOwUjEchJwJAMd38yOZP-62" value="Choice: Acabou as Linhas?" style="rounded=1;whiteSpace=wrap;html=1;fillColor=#fff2cc;strokeColor=#d6b656;" vertex="1" parent="1">
          <mxGeometry x="330" y="950" width="120" height="60" as="geometry" />
        </mxCell>
        <mxCell id="FOwUjEchJwJAMd38yOZP-68" style="edgeStyle=orthogonalEdgeStyle;rounded=0;orthogonalLoop=1;jettySize=auto;html=1;exitX=0;exitY=0.25;exitDx=0;exitDy=0;exitPerimeter=0;" edge="1" parent="1" source="FOwUjEchJwJAMd38yOZP-64" target="FOwUjEchJwJAMd38yOZP-65">
          <mxGeometry relative="1" as="geometry">
            <Array as="points">
              <mxPoint x="120" y="1244" />
              <mxPoint x="120" y="1244" />
            </Array>
          </mxGeometry>
        </mxCell>
        <mxCell id="FOwUjEchJwJAMd38yOZP-74" style="edgeStyle=orthogonalEdgeStyle;rounded=0;orthogonalLoop=1;jettySize=auto;html=1;exitX=1;exitY=0.5;exitDx=0;exitDy=0;exitPerimeter=0;entryX=0;entryY=0.5;entryDx=0;entryDy=0;entryPerimeter=0;" edge="1" parent="1" source="FOwUjEchJwJAMd38yOZP-64" target="FOwUjEchJwJAMd38yOZP-73">
          <mxGeometry relative="1" as="geometry" />
        </mxCell>
        <mxCell id="FOwUjEchJwJAMd38yOZP-64" value="" style="sketch=0;points=[[0,0,0],[0.25,0,0],[0.5,0,0],[0.75,0,0],[1,0,0],[0,1,0],[0.25,1,0],[0.5,1,0],[0.75,1,0],[1,1,0],[0,0.25,0],[0,0.5,0],[0,0.75,0],[1,0.25,0],[1,0.5,0],[1,0.75,0]];outlineConnect=0;fontColor=#232F3E;gradientColor=#F78E04;gradientDirection=north;fillColor=#D05C17;strokeColor=#ffffff;dashed=0;verticalLabelPosition=bottom;verticalAlign=top;align=center;html=1;fontSize=12;fontStyle=0;aspect=fixed;shape=mxgraph.aws4.resourceIcon;resIcon=mxgraph.aws4.lambda;" vertex="1" parent="1">
          <mxGeometry x="310" y="1234" width="38" height="38" as="geometry" />
        </mxCell>
        <mxCell id="FOwUjEchJwJAMd38yOZP-65" value="" style="sketch=0;outlineConnect=0;fontColor=#232F3E;gradientColor=none;fillColor=#3F8624;strokeColor=none;dashed=0;verticalLabelPosition=bottom;verticalAlign=top;align=center;html=1;fontSize=12;fontStyle=0;aspect=fixed;pointerEvents=1;shape=mxgraph.aws4.bucket_with_objects;" vertex="1" parent="1">
          <mxGeometry x="20" y="1228" width="48.08" height="50" as="geometry" />
        </mxCell>
        <mxCell id="FOwUjEchJwJAMd38yOZP-69" value="chunk-file : Start - End" style="text;html=1;align=center;verticalAlign=middle;resizable=0;points=[];autosize=1;strokeColor=none;fillColor=none;" vertex="1" parent="1">
          <mxGeometry x="105" y="1220" width="140" height="30" as="geometry" />
        </mxCell>
        <mxCell id="FOwUjEchJwJAMd38yOZP-70" value="" style="endArrow=classic;html=1;rounded=0;entryX=0;entryY=0.75;entryDx=0;entryDy=0;entryPerimeter=0;" edge="1" parent="1" target="FOwUjEchJwJAMd38yOZP-64">
          <mxGeometry width="50" height="50" relative="1" as="geometry">
            <mxPoint x="80" y="1263" as="sourcePoint" />
            <mxPoint x="440" y="1130" as="targetPoint" />
          </mxGeometry>
        </mxCell>
        <mxCell id="FOwUjEchJwJAMd38yOZP-71" value="" style="verticalLabelPosition=bottom;html=1;verticalAlign=top;align=center;strokeColor=none;fillColor=#00BEF2;shape=mxgraph.azure.cloud_services_configuration_file;pointerEvents=1;" vertex="1" parent="1">
          <mxGeometry x="172" y="1270" width="30" height="40" as="geometry" />
        </mxCell>
        <mxCell id="FOwUjEchJwJAMd38yOZP-72" value="chunk (0 - 250)" style="text;html=1;align=center;verticalAlign=middle;resizable=0;points=[];autosize=1;strokeColor=none;fillColor=none;" vertex="1" parent="1">
          <mxGeometry x="137" y="1305" width="100" height="30" as="geometry" />
        </mxCell>
        <mxCell id="FOwUjEchJwJAMd38yOZP-73" value="" style="outlineConnect=0;dashed=0;verticalLabelPosition=bottom;verticalAlign=top;align=center;html=1;shape=mxgraph.aws3.sqs;fillColor=#D9A741;gradientColor=none;" vertex="1" parent="1">
          <mxGeometry x="508.5" y="1229" width="46.5" height="48" as="geometry" />
        </mxCell>
        <mxCell id="FOwUjEchJwJAMd38yOZP-75" value="envia parcerio &lt;br&gt;para processar" style="text;html=1;align=center;verticalAlign=middle;resizable=0;points=[];autosize=1;strokeColor=none;fillColor=none;" vertex="1" parent="1">
          <mxGeometry x="368.5" y="1215" width="100" height="40" as="geometry" />
        </mxCell>
        <mxCell id="FOwUjEchJwJAMd38yOZP-76" value="&lt;font color=&quot;#0000ff&quot;&gt;&lt;span style=&quot;font-size: 20px;&quot;&gt;&lt;b&gt;#2.1 Lambda de processamento&lt;/b&gt;&lt;/span&gt;&lt;/font&gt;" style="text;html=1;strokeColor=none;fillColor=none;align=left;verticalAlign=middle;whiteSpace=wrap;rounded=0;" vertex="1" parent="1">
          <mxGeometry x="15.75" y="1185" width="638.5" height="30" as="geometry" />
        </mxCell>
        <mxCell id="FOwUjEchJwJAMd38yOZP-77" value="&lt;font color=&quot;#0000ff&quot;&gt;&lt;span style=&quot;font-size: 20px;&quot;&gt;&lt;b&gt;#2.2 Retry ou Apuração&lt;/b&gt;&lt;/span&gt;&lt;/font&gt;" style="text;html=1;strokeColor=none;fillColor=none;align=left;verticalAlign=middle;whiteSpace=wrap;rounded=0;" vertex="1" parent="1">
          <mxGeometry x="15.75" y="1362" width="638.5" height="30" as="geometry" />
        </mxCell>
        <mxCell id="FOwUjEchJwJAMd38yOZP-80" value="&lt;ul style=&quot;border-color: var(--border-color);&quot;&gt;&lt;li style=&quot;border-color: var(--border-color);&quot;&gt;&amp;nbsp;Dependendo do tipo de falha (não fatal / consistência dos dados) possível Start na SF passando os parâmetros de StartByte - EndByte da última execução&lt;/li&gt;&lt;/ul&gt;&lt;ul style=&quot;border-color: var(--border-color);&quot;&gt;&lt;li style=&quot;border-color: var(--border-color);&quot;&gt;Apuração manual / Notificação para o usuário.&lt;/li&gt;&lt;/ul&gt;" style="rounded=0;whiteSpace=wrap;html=1;align=left;spacing=2;spacingBottom=0;spacingTop=4;" vertex="1" parent="1">
          <mxGeometry x="20" y="1410" width="800" height="90" as="geometry" />
        </mxCell>
      </root>
    </mxGraphModel>
  </diagram>
  <diagram name="Proposta 2" id="g_HzB7pypP4fNBYuJ6hq">
    <mxGraphModel dx="1434" dy="788" grid="1" gridSize="10" guides="1" tooltips="1" connect="1" arrows="1" fold="1" page="1" pageScale="1" pageWidth="827" pageHeight="1169" math="0" shadow="0">
      <root>
        <mxCell id="kn2PToPJ3fIiRNNlNBkg-0" />
        <mxCell id="kn2PToPJ3fIiRNNlNBkg-1" parent="kn2PToPJ3fIiRNNlNBkg-0" />
        <mxCell id="7BkQ4cN82awM8Jo2i6cq-1" value="" style="rounded=1;whiteSpace=wrap;html=1;labelBackgroundColor=none;" vertex="1" parent="kn2PToPJ3fIiRNNlNBkg-1">
          <mxGeometry x="21" y="1163" width="315" height="95" as="geometry" />
        </mxCell>
        <mxCell id="kn2PToPJ3fIiRNNlNBkg-2" value="" style="rounded=0;whiteSpace=wrap;html=1;" vertex="1" parent="kn2PToPJ3fIiRNNlNBkg-1">
          <mxGeometry x="105.13" y="1602" width="559" height="310" as="geometry" />
        </mxCell>
        <mxCell id="kn2PToPJ3fIiRNNlNBkg-3" value="" style="rounded=0;whiteSpace=wrap;html=1;" vertex="1" parent="kn2PToPJ3fIiRNNlNBkg-1">
          <mxGeometry x="334" y="40" width="376" height="150" as="geometry" />
        </mxCell>
        <mxCell id="kn2PToPJ3fIiRNNlNBkg-4" value="" style="rounded=0;whiteSpace=wrap;html=1;" vertex="1" parent="kn2PToPJ3fIiRNNlNBkg-1">
          <mxGeometry x="20" y="40" width="310" height="150" as="geometry" />
        </mxCell>
        <mxCell id="kn2PToPJ3fIiRNNlNBkg-5" style="edgeStyle=orthogonalEdgeStyle;rounded=0;orthogonalLoop=1;jettySize=auto;html=1;" edge="1" parent="kn2PToPJ3fIiRNNlNBkg-1" source="kn2PToPJ3fIiRNNlNBkg-6" target="kn2PToPJ3fIiRNNlNBkg-13">
          <mxGeometry relative="1" as="geometry">
            <mxPoint x="310.00418869644477" y="125" as="targetPoint" />
          </mxGeometry>
        </mxCell>
        <mxCell id="kn2PToPJ3fIiRNNlNBkg-6" value="" style="image;aspect=fixed;html=1;points=[];align=center;fontSize=12;image=img/lib/azure2/general/Management_Portal.svg;" vertex="1" parent="kn2PToPJ3fIiRNNlNBkg-1">
          <mxGeometry x="172" y="101" width="60" height="48" as="geometry" />
        </mxCell>
        <mxCell id="kn2PToPJ3fIiRNNlNBkg-7" style="edgeStyle=orthogonalEdgeStyle;rounded=0;orthogonalLoop=1;jettySize=auto;html=1;" edge="1" parent="kn2PToPJ3fIiRNNlNBkg-1" source="kn2PToPJ3fIiRNNlNBkg-8" target="kn2PToPJ3fIiRNNlNBkg-6">
          <mxGeometry relative="1" as="geometry" />
        </mxCell>
        <mxCell id="kn2PToPJ3fIiRNNlNBkg-8" value="" style="sketch=0;pointerEvents=1;shadow=0;dashed=0;html=1;strokeColor=none;labelPosition=center;verticalLabelPosition=bottom;verticalAlign=top;align=center;fillColor=#505050;shape=mxgraph.mscae.intune.account_portal" vertex="1" parent="kn2PToPJ3fIiRNNlNBkg-1">
          <mxGeometry x="40" y="100" width="43" height="50" as="geometry" />
        </mxCell>
        <mxCell id="kn2PToPJ3fIiRNNlNBkg-9" style="edgeStyle=orthogonalEdgeStyle;rounded=0;orthogonalLoop=1;jettySize=auto;html=1;" edge="1" parent="kn2PToPJ3fIiRNNlNBkg-1" target="kn2PToPJ3fIiRNNlNBkg-12">
          <mxGeometry relative="1" as="geometry">
            <mxPoint x="361.9158113035551" y="125" as="sourcePoint" />
          </mxGeometry>
        </mxCell>
        <mxCell id="kn2PToPJ3fIiRNNlNBkg-10" style="edgeStyle=orthogonalEdgeStyle;rounded=0;orthogonalLoop=1;jettySize=auto;html=1;exitX=1;exitY=0.5;exitDx=0;exitDy=0;exitPerimeter=0;" edge="1" parent="kn2PToPJ3fIiRNNlNBkg-1" source="kn2PToPJ3fIiRNNlNBkg-12">
          <mxGeometry relative="1" as="geometry">
            <mxPoint x="580" y="125" as="targetPoint" />
          </mxGeometry>
        </mxCell>
        <mxCell id="kn2PToPJ3fIiRNNlNBkg-11" style="edgeStyle=orthogonalEdgeStyle;rounded=0;orthogonalLoop=1;jettySize=auto;html=1;entryX=0.5;entryY=0;entryDx=0;entryDy=0;entryPerimeter=0;" edge="1" parent="kn2PToPJ3fIiRNNlNBkg-1" source="kn2PToPJ3fIiRNNlNBkg-12" target="kn2PToPJ3fIiRNNlNBkg-6">
          <mxGeometry relative="1" as="geometry">
            <Array as="points">
              <mxPoint x="475" y="73" />
              <mxPoint x="202" y="73" />
            </Array>
          </mxGeometry>
        </mxCell>
        <mxCell id="kn2PToPJ3fIiRNNlNBkg-12" value="" style="outlineConnect=0;dashed=0;verticalLabelPosition=bottom;verticalAlign=top;align=center;html=1;shape=mxgraph.aws3.worker;fillColor=#D9A741;gradientColor=none;" vertex="1" parent="kn2PToPJ3fIiRNNlNBkg-1">
          <mxGeometry x="450" y="100" width="50" height="50" as="geometry" />
        </mxCell>
        <mxCell id="kn2PToPJ3fIiRNNlNBkg-13" value="" style="sketch=0;points=[[0,0,0],[0.25,0,0],[0.5,0,0],[0.75,0,0],[1,0,0],[0,1,0],[0.25,1,0],[0.5,1,0],[0.75,1,0],[1,1,0],[0,0.25,0],[0,0.5,0],[0,0.75,0],[1,0.25,0],[1,0.5,0],[1,0.75,0]];outlineConnect=0;fontColor=#232F3E;gradientColor=#60A337;gradientDirection=north;fillColor=#277116;strokeColor=#ffffff;dashed=0;verticalLabelPosition=bottom;verticalAlign=top;align=center;html=1;fontSize=12;fontStyle=0;aspect=fixed;shape=mxgraph.aws4.resourceIcon;resIcon=mxgraph.aws4.s3;" vertex="1" parent="kn2PToPJ3fIiRNNlNBkg-1">
          <mxGeometry x="310" y="100" width="50" height="50" as="geometry" />
        </mxCell>
        <mxCell id="kn2PToPJ3fIiRNNlNBkg-14" value="Operadaor" style="text;html=1;align=center;verticalAlign=middle;resizable=0;points=[];autosize=1;strokeColor=none;fillColor=none;" vertex="1" parent="kn2PToPJ3fIiRNNlNBkg-1">
          <mxGeometry x="21.5" y="150" width="80" height="30" as="geometry" />
        </mxCell>
        <mxCell id="kn2PToPJ3fIiRNNlNBkg-15" value="Portal Parcerias" style="text;html=1;align=center;verticalAlign=middle;resizable=0;points=[];autosize=1;strokeColor=none;fillColor=none;" vertex="1" parent="kn2PToPJ3fIiRNNlNBkg-1">
          <mxGeometry x="147" y="150" width="110" height="30" as="geometry" />
        </mxCell>
        <mxCell id="kn2PToPJ3fIiRNNlNBkg-16" value="&lt;span style=&quot;font-weight: normal;&quot;&gt;Bucket Upload&lt;/span&gt;" style="text;html=1;align=center;verticalAlign=middle;resizable=0;points=[];autosize=1;strokeColor=none;fillColor=none;fontStyle=1" vertex="1" parent="kn2PToPJ3fIiRNNlNBkg-1">
          <mxGeometry x="285" y="150" width="100" height="30" as="geometry" />
        </mxCell>
        <mxCell id="kn2PToPJ3fIiRNNlNBkg-17" value="&lt;span style=&quot;font-weight: 400;&quot;&gt;Processo de Carga&lt;/span&gt;" style="text;html=1;align=center;verticalAlign=middle;resizable=0;points=[];autosize=1;strokeColor=none;fillColor=none;fontStyle=1" vertex="1" parent="kn2PToPJ3fIiRNNlNBkg-1">
          <mxGeometry x="410" y="150" width="130" height="30" as="geometry" />
        </mxCell>
        <mxCell id="kn2PToPJ3fIiRNNlNBkg-19" value="&lt;b&gt;&lt;font color=&quot;#0000ff&quot; style=&quot;font-size: 20px;&quot;&gt;#1 - Upload&lt;/font&gt;&lt;/b&gt;" style="text;html=1;strokeColor=none;fillColor=none;align=left;verticalAlign=middle;whiteSpace=wrap;rounded=0;" vertex="1" parent="kn2PToPJ3fIiRNNlNBkg-1">
          <mxGeometry x="20" y="10" width="130" height="30" as="geometry" />
        </mxCell>
        <mxCell id="kn2PToPJ3fIiRNNlNBkg-20" value="&lt;b&gt;&lt;font color=&quot;#0000ff&quot; style=&quot;font-size: 20px;&quot;&gt;#1 - Upload&lt;/font&gt;&lt;/b&gt;" style="text;html=1;strokeColor=none;fillColor=none;align=left;verticalAlign=middle;whiteSpace=wrap;rounded=0;" vertex="1" parent="kn2PToPJ3fIiRNNlNBkg-1">
          <mxGeometry x="25.5" y="240" width="608.5" height="30" as="geometry" />
        </mxCell>
        <mxCell id="kn2PToPJ3fIiRNNlNBkg-21" value="&lt;b&gt;&lt;font color=&quot;#0000ff&quot; style=&quot;font-size: 20px;&quot;&gt;#2 - Processamento&lt;/font&gt;&lt;/b&gt;" style="text;html=1;strokeColor=none;fillColor=none;align=left;verticalAlign=middle;whiteSpace=wrap;rounded=0;" vertex="1" parent="kn2PToPJ3fIiRNNlNBkg-1">
          <mxGeometry x="334" y="10" width="196" height="30" as="geometry" />
        </mxCell>
        <mxCell id="kn2PToPJ3fIiRNNlNBkg-22" value="&lt;b&gt;&lt;font color=&quot;#0000ff&quot; style=&quot;font-size: 20px;&quot;&gt;#2 - Processamento (mesma estratégia para validação do arquivo)&lt;/font&gt;&lt;/b&gt;" style="text;html=1;strokeColor=none;fillColor=none;align=left;verticalAlign=middle;whiteSpace=wrap;rounded=0;" vertex="1" parent="kn2PToPJ3fIiRNNlNBkg-1">
          <mxGeometry x="21.63" y="1440" width="638.5" height="30" as="geometry" />
        </mxCell>
        <mxCell id="kn2PToPJ3fIiRNNlNBkg-23" value="callback upload" style="text;html=1;align=center;verticalAlign=middle;resizable=0;points=[];autosize=1;strokeColor=none;fillColor=none;" vertex="1" parent="kn2PToPJ3fIiRNNlNBkg-1">
          <mxGeometry x="377" y="50" width="110" height="30" as="geometry" />
        </mxCell>
        <mxCell id="kn2PToPJ3fIiRNNlNBkg-24" value="Fluxo de Onboarding" style="rounded=0;whiteSpace=wrap;html=1;" vertex="1" parent="kn2PToPJ3fIiRNNlNBkg-1">
          <mxGeometry x="580" y="95" width="120" height="60" as="geometry" />
        </mxCell>
        <mxCell id="kn2PToPJ3fIiRNNlNBkg-25" style="edgeStyle=orthogonalEdgeStyle;rounded=0;orthogonalLoop=1;jettySize=auto;html=1;entryX=0;entryY=0.5;entryDx=0;entryDy=0;entryPerimeter=0;" edge="1" parent="kn2PToPJ3fIiRNNlNBkg-1" source="kn2PToPJ3fIiRNNlNBkg-26" target="kn2PToPJ3fIiRNNlNBkg-28">
          <mxGeometry relative="1" as="geometry" />
        </mxCell>
        <mxCell id="kn2PToPJ3fIiRNNlNBkg-26" value="" style="sketch=0;outlineConnect=0;fontColor=#232F3E;gradientColor=none;fillColor=#3F8624;strokeColor=none;dashed=0;verticalLabelPosition=bottom;verticalAlign=top;align=center;html=1;fontSize=12;fontStyle=0;aspect=fixed;pointerEvents=1;shape=mxgraph.aws4.bucket_with_objects;" vertex="1" parent="kn2PToPJ3fIiRNNlNBkg-1">
          <mxGeometry x="21.63" y="1490" width="48.08" height="50" as="geometry" />
        </mxCell>
        <mxCell id="kn2PToPJ3fIiRNNlNBkg-27" style="edgeStyle=orthogonalEdgeStyle;rounded=0;orthogonalLoop=1;jettySize=auto;html=1;exitX=1;exitY=0.5;exitDx=0;exitDy=0;exitPerimeter=0;" edge="1" parent="kn2PToPJ3fIiRNNlNBkg-1" source="kn2PToPJ3fIiRNNlNBkg-28" target="kn2PToPJ3fIiRNNlNBkg-31">
          <mxGeometry relative="1" as="geometry" />
        </mxCell>
        <mxCell id="kn2PToPJ3fIiRNNlNBkg-28" value="" style="sketch=0;points=[[0,0,0],[0.25,0,0],[0.5,0,0],[0.75,0,0],[1,0,0],[0,1,0],[0.25,1,0],[0.5,1,0],[0.75,1,0],[1,1,0],[0,0.25,0],[0,0.5,0],[0,0.75,0],[1,0.25,0],[1,0.5,0],[1,0.75,0]];outlineConnect=0;fontColor=#232F3E;gradientColor=#FF4F8B;gradientDirection=north;fillColor=#BC1356;strokeColor=#ffffff;dashed=0;verticalLabelPosition=bottom;verticalAlign=top;align=center;html=1;fontSize=12;fontStyle=0;aspect=fixed;shape=mxgraph.aws4.resourceIcon;resIcon=mxgraph.aws4.eventbridge;" vertex="1" parent="kn2PToPJ3fIiRNNlNBkg-1">
          <mxGeometry x="185.13" y="1491" width="48" height="48" as="geometry" />
        </mxCell>
        <mxCell id="kn2PToPJ3fIiRNNlNBkg-29" style="edgeStyle=orthogonalEdgeStyle;rounded=0;orthogonalLoop=1;jettySize=auto;html=1;entryX=0;entryY=0.5;entryDx=0;entryDy=0;entryPerimeter=0;" edge="1" parent="kn2PToPJ3fIiRNNlNBkg-1" source="kn2PToPJ3fIiRNNlNBkg-31" target="kn2PToPJ3fIiRNNlNBkg-35">
          <mxGeometry relative="1" as="geometry" />
        </mxCell>
        <mxCell id="kn2PToPJ3fIiRNNlNBkg-30" style="edgeStyle=orthogonalEdgeStyle;rounded=0;orthogonalLoop=1;jettySize=auto;html=1;exitX=0.5;exitY=1;exitDx=0;exitDy=0;exitPerimeter=0;" edge="1" parent="kn2PToPJ3fIiRNNlNBkg-1" source="kn2PToPJ3fIiRNNlNBkg-31" target="kn2PToPJ3fIiRNNlNBkg-2">
          <mxGeometry relative="1" as="geometry" />
        </mxCell>
        <mxCell id="kn2PToPJ3fIiRNNlNBkg-31" value="" style="sketch=0;points=[[0,0,0],[0.25,0,0],[0.5,0,0],[0.75,0,0],[1,0,0],[0,1,0],[0.25,1,0],[0.5,1,0],[0.75,1,0],[1,1,0],[0,0.25,0],[0,0.5,0],[0,0.75,0],[1,0.25,0],[1,0.5,0],[1,0.75,0]];outlineConnect=0;fontColor=#232F3E;gradientColor=#FF4F8B;gradientDirection=north;fillColor=#BC1356;strokeColor=#ffffff;dashed=0;verticalLabelPosition=bottom;verticalAlign=top;align=center;html=1;fontSize=12;fontStyle=0;aspect=fixed;shape=mxgraph.aws4.resourceIcon;resIcon=mxgraph.aws4.step_functions;" vertex="1" parent="kn2PToPJ3fIiRNNlNBkg-1">
          <mxGeometry x="355.13" y="1485" width="60" height="60" as="geometry" />
        </mxCell>
        <mxCell id="kn2PToPJ3fIiRNNlNBkg-32" value="" style="verticalLabelPosition=bottom;html=1;verticalAlign=top;align=center;strokeColor=none;fillColor=#00BEF2;shape=mxgraph.azure.cloud_services_configuration_file;pointerEvents=1;" vertex="1" parent="kn2PToPJ3fIiRNNlNBkg-1">
          <mxGeometry x="112.13" y="1520" width="30" height="40" as="geometry" />
        </mxCell>
        <mxCell id="kn2PToPJ3fIiRNNlNBkg-33" value="upload.csv" style="text;html=1;align=center;verticalAlign=middle;resizable=0;points=[];autosize=1;strokeColor=none;fillColor=none;" vertex="1" parent="kn2PToPJ3fIiRNNlNBkg-1">
          <mxGeometry x="86.13" y="1555" width="80" height="30" as="geometry" />
        </mxCell>
        <mxCell id="kn2PToPJ3fIiRNNlNBkg-34" style="edgeStyle=orthogonalEdgeStyle;rounded=0;orthogonalLoop=1;jettySize=auto;html=1;exitX=1;exitY=0.5;exitDx=0;exitDy=0;exitPerimeter=0;" edge="1" parent="kn2PToPJ3fIiRNNlNBkg-1" source="kn2PToPJ3fIiRNNlNBkg-35" target="kn2PToPJ3fIiRNNlNBkg-36">
          <mxGeometry relative="1" as="geometry" />
        </mxCell>
        <mxCell id="kn2PToPJ3fIiRNNlNBkg-35" value="" style="outlineConnect=0;dashed=0;verticalLabelPosition=bottom;verticalAlign=top;align=center;html=1;shape=mxgraph.aws3.sqs;fillColor=#D9A741;gradientColor=none;" vertex="1" parent="kn2PToPJ3fIiRNNlNBkg-1">
          <mxGeometry x="504.13" y="1491" width="46.5" height="48" as="geometry" />
        </mxCell>
        <mxCell id="kn2PToPJ3fIiRNNlNBkg-36" value="Fluxo de Onboarding&lt;br&gt;(Já existente)" style="rounded=0;whiteSpace=wrap;html=1;" vertex="1" parent="kn2PToPJ3fIiRNNlNBkg-1">
          <mxGeometry x="634.13" y="1485" width="120" height="60" as="geometry" />
        </mxCell>
        <mxCell id="kn2PToPJ3fIiRNNlNBkg-37" value="path arquivo &lt;br&gt;a ser processado" style="text;html=1;align=center;verticalAlign=middle;resizable=0;points=[];autosize=1;strokeColor=none;fillColor=none;" vertex="1" parent="kn2PToPJ3fIiRNNlNBkg-1">
          <mxGeometry x="233.13" y="1480" width="120" height="40" as="geometry" />
        </mxCell>
        <mxCell id="kn2PToPJ3fIiRNNlNBkg-38" value="Trigger para cada &lt;br&gt;arquivo carregado" style="text;html=1;align=center;verticalAlign=middle;resizable=0;points=[];autosize=1;strokeColor=none;fillColor=none;" vertex="1" parent="kn2PToPJ3fIiRNNlNBkg-1">
          <mxGeometry x="65.13" y="1480" width="120" height="40" as="geometry" />
        </mxCell>
        <mxCell id="kn2PToPJ3fIiRNNlNBkg-39" value="envia parceiro" style="text;html=1;align=center;verticalAlign=middle;resizable=0;points=[];autosize=1;strokeColor=none;fillColor=none;" vertex="1" parent="kn2PToPJ3fIiRNNlNBkg-1">
          <mxGeometry x="405.13" y="1490" width="100" height="30" as="geometry" />
        </mxCell>
        <mxCell id="kn2PToPJ3fIiRNNlNBkg-40" value="processa &lt;br&gt;parceiro" style="text;html=1;align=center;verticalAlign=middle;resizable=0;points=[];autosize=1;strokeColor=none;fillColor=none;" vertex="1" parent="kn2PToPJ3fIiRNNlNBkg-1">
          <mxGeometry x="555.13" y="1480" width="70" height="40" as="geometry" />
        </mxCell>
        <mxCell id="kn2PToPJ3fIiRNNlNBkg-41" style="edgeStyle=orthogonalEdgeStyle;rounded=0;orthogonalLoop=1;jettySize=auto;html=1;exitX=0.5;exitY=1;exitDx=0;exitDy=0;" edge="1" parent="kn2PToPJ3fIiRNNlNBkg-1" source="kn2PToPJ3fIiRNNlNBkg-42" target="kn2PToPJ3fIiRNNlNBkg-44">
          <mxGeometry relative="1" as="geometry" />
        </mxCell>
        <mxCell id="kn2PToPJ3fIiRNNlNBkg-42" value="Start" style="ellipse;whiteSpace=wrap;html=1;aspect=fixed;fillColor=#fff2cc;strokeColor=#d6b656;" vertex="1" parent="kn2PToPJ3fIiRNNlNBkg-1">
          <mxGeometry x="259.13" y="1612" width="40" height="40" as="geometry" />
        </mxCell>
        <mxCell id="kn2PToPJ3fIiRNNlNBkg-43" style="edgeStyle=orthogonalEdgeStyle;rounded=0;orthogonalLoop=1;jettySize=auto;html=1;exitX=0.25;exitY=1;exitDx=0;exitDy=0;entryX=0.25;entryY=0;entryDx=0;entryDy=0;" edge="1" parent="kn2PToPJ3fIiRNNlNBkg-1" source="kn2PToPJ3fIiRNNlNBkg-44" target="kn2PToPJ3fIiRNNlNBkg-48">
          <mxGeometry relative="1" as="geometry" />
        </mxCell>
        <mxCell id="kn2PToPJ3fIiRNNlNBkg-44" value="Import" style="rounded=1;whiteSpace=wrap;html=1;fillColor=#d5e8d4;strokeColor=#82b366;" vertex="1" parent="kn2PToPJ3fIiRNNlNBkg-1">
          <mxGeometry x="236.13" y="1682" width="86" height="40" as="geometry" />
        </mxCell>
        <mxCell id="kn2PToPJ3fIiRNNlNBkg-45" style="edgeStyle=orthogonalEdgeStyle;rounded=0;orthogonalLoop=1;jettySize=auto;html=1;exitX=0.75;exitY=0;exitDx=0;exitDy=0;entryX=0.75;entryY=1;entryDx=0;entryDy=0;" edge="1" parent="kn2PToPJ3fIiRNNlNBkg-1" source="kn2PToPJ3fIiRNNlNBkg-48" target="kn2PToPJ3fIiRNNlNBkg-44">
          <mxGeometry relative="1" as="geometry" />
        </mxCell>
        <mxCell id="kn2PToPJ3fIiRNNlNBkg-46" style="edgeStyle=orthogonalEdgeStyle;rounded=0;orthogonalLoop=1;jettySize=auto;html=1;exitX=0.25;exitY=1;exitDx=0;exitDy=0;entryX=0.5;entryY=0;entryDx=0;entryDy=0;" edge="1" parent="kn2PToPJ3fIiRNNlNBkg-1" source="kn2PToPJ3fIiRNNlNBkg-48" target="kn2PToPJ3fIiRNNlNBkg-49">
          <mxGeometry relative="1" as="geometry" />
        </mxCell>
        <mxCell id="kn2PToPJ3fIiRNNlNBkg-47" style="edgeStyle=orthogonalEdgeStyle;rounded=0;orthogonalLoop=1;jettySize=auto;html=1;exitX=0.75;exitY=1;exitDx=0;exitDy=0;entryX=0.5;entryY=0;entryDx=0;entryDy=0;" edge="1" parent="kn2PToPJ3fIiRNNlNBkg-1" source="kn2PToPJ3fIiRNNlNBkg-48" target="kn2PToPJ3fIiRNNlNBkg-51">
          <mxGeometry relative="1" as="geometry" />
        </mxCell>
        <mxCell id="kn2PToPJ3fIiRNNlNBkg-48" value="HasLineToProcess" style="rounded=1;whiteSpace=wrap;html=1;fillColor=#d5e8d4;strokeColor=#82b366;" vertex="1" parent="kn2PToPJ3fIiRNNlNBkg-1">
          <mxGeometry x="223.13" y="1762" width="113" height="40" as="geometry" />
        </mxCell>
        <mxCell id="kn2PToPJ3fIiRNNlNBkg-49" value="CommitSucess" style="rounded=1;whiteSpace=wrap;html=1;fillColor=#d5e8d4;strokeColor=#82b366;" vertex="1" parent="kn2PToPJ3fIiRNNlNBkg-1">
          <mxGeometry x="110.13" y="1842" width="113" height="40" as="geometry" />
        </mxCell>
        <mxCell id="kn2PToPJ3fIiRNNlNBkg-50" style="edgeStyle=orthogonalEdgeStyle;rounded=0;orthogonalLoop=1;jettySize=auto;html=1;" edge="1" parent="kn2PToPJ3fIiRNNlNBkg-1" source="kn2PToPJ3fIiRNNlNBkg-51">
          <mxGeometry relative="1" as="geometry">
            <mxPoint x="539.13" y="1862" as="targetPoint" />
          </mxGeometry>
        </mxCell>
        <mxCell id="kn2PToPJ3fIiRNNlNBkg-51" value="Fail" style="rounded=1;whiteSpace=wrap;html=1;fillColor=#f8cecc;strokeColor=#b85450;" vertex="1" parent="kn2PToPJ3fIiRNNlNBkg-1">
          <mxGeometry x="316.13" y="1842" width="113" height="40" as="geometry" />
        </mxCell>
        <mxCell id="kn2PToPJ3fIiRNNlNBkg-52" value="Fluxo Retry ou Apuração" style="rounded=0;whiteSpace=wrap;html=1;" vertex="1" parent="kn2PToPJ3fIiRNNlNBkg-1">
          <mxGeometry x="538.13" y="1832" width="120" height="60" as="geometry" />
        </mxCell>
        <mxCell id="kn2PToPJ3fIiRNNlNBkg-53" value="" style="sketch=0;points=[[0,0,0],[0.25,0,0],[0.5,0,0],[0.75,0,0],[1,0,0],[0,1,0],[0.25,1,0],[0.5,1,0],[0.75,1,0],[1,1,0],[0,0.25,0],[0,0.5,0],[0,0.75,0],[1,0.25,0],[1,0.5,0],[1,0.75,0]];outlineConnect=0;fontColor=#232F3E;gradientColor=#F78E04;gradientDirection=north;fillColor=#D05C17;strokeColor=#ffffff;dashed=0;verticalLabelPosition=bottom;verticalAlign=top;align=center;html=1;fontSize=12;fontStyle=0;aspect=fixed;shape=mxgraph.aws4.resourceIcon;resIcon=mxgraph.aws4.lambda;" vertex="1" parent="kn2PToPJ3fIiRNNlNBkg-1">
          <mxGeometry x="210.13" y="1670" width="38" height="38" as="geometry" />
        </mxCell>
        <mxCell id="kn2PToPJ3fIiRNNlNBkg-54" value="Choice: Acabou as Linhas?" style="rounded=1;whiteSpace=wrap;html=1;fillColor=#fff2cc;strokeColor=#d6b656;" vertex="1" parent="kn2PToPJ3fIiRNNlNBkg-1">
          <mxGeometry x="330.13" y="1720" width="120" height="60" as="geometry" />
        </mxCell>
        <mxCell id="kn2PToPJ3fIiRNNlNBkg-55" style="edgeStyle=orthogonalEdgeStyle;rounded=0;orthogonalLoop=1;jettySize=auto;html=1;exitX=0;exitY=0.25;exitDx=0;exitDy=0;exitPerimeter=0;" edge="1" parent="kn2PToPJ3fIiRNNlNBkg-1" source="kn2PToPJ3fIiRNNlNBkg-57" target="kn2PToPJ3fIiRNNlNBkg-58">
          <mxGeometry relative="1" as="geometry">
            <Array as="points">
              <mxPoint x="120.13" y="2014" />
              <mxPoint x="120.13" y="2014" />
            </Array>
          </mxGeometry>
        </mxCell>
        <mxCell id="kn2PToPJ3fIiRNNlNBkg-56" style="edgeStyle=orthogonalEdgeStyle;rounded=0;orthogonalLoop=1;jettySize=auto;html=1;exitX=1;exitY=0.5;exitDx=0;exitDy=0;exitPerimeter=0;entryX=0;entryY=0.5;entryDx=0;entryDy=0;entryPerimeter=0;" edge="1" parent="kn2PToPJ3fIiRNNlNBkg-1" source="kn2PToPJ3fIiRNNlNBkg-57" target="kn2PToPJ3fIiRNNlNBkg-63">
          <mxGeometry relative="1" as="geometry" />
        </mxCell>
        <mxCell id="kn2PToPJ3fIiRNNlNBkg-57" value="" style="sketch=0;points=[[0,0,0],[0.25,0,0],[0.5,0,0],[0.75,0,0],[1,0,0],[0,1,0],[0.25,1,0],[0.5,1,0],[0.75,1,0],[1,1,0],[0,0.25,0],[0,0.5,0],[0,0.75,0],[1,0.25,0],[1,0.5,0],[1,0.75,0]];outlineConnect=0;fontColor=#232F3E;gradientColor=#F78E04;gradientDirection=north;fillColor=#D05C17;strokeColor=#ffffff;dashed=0;verticalLabelPosition=bottom;verticalAlign=top;align=center;html=1;fontSize=12;fontStyle=0;aspect=fixed;shape=mxgraph.aws4.resourceIcon;resIcon=mxgraph.aws4.lambda;" vertex="1" parent="kn2PToPJ3fIiRNNlNBkg-1">
          <mxGeometry x="310.13" y="2004" width="38" height="38" as="geometry" />
        </mxCell>
        <mxCell id="kn2PToPJ3fIiRNNlNBkg-58" value="" style="sketch=0;outlineConnect=0;fontColor=#232F3E;gradientColor=none;fillColor=#3F8624;strokeColor=none;dashed=0;verticalLabelPosition=bottom;verticalAlign=top;align=center;html=1;fontSize=12;fontStyle=0;aspect=fixed;pointerEvents=1;shape=mxgraph.aws4.bucket_with_objects;" vertex="1" parent="kn2PToPJ3fIiRNNlNBkg-1">
          <mxGeometry x="20.13" y="1998" width="48.08" height="50" as="geometry" />
        </mxCell>
        <mxCell id="kn2PToPJ3fIiRNNlNBkg-59" value="chunk-file : Start - End" style="text;html=1;align=center;verticalAlign=middle;resizable=0;points=[];autosize=1;strokeColor=none;fillColor=none;" vertex="1" parent="kn2PToPJ3fIiRNNlNBkg-1">
          <mxGeometry x="105.13" y="1990" width="140" height="30" as="geometry" />
        </mxCell>
        <mxCell id="kn2PToPJ3fIiRNNlNBkg-60" value="" style="endArrow=classic;html=1;rounded=0;entryX=0;entryY=0.75;entryDx=0;entryDy=0;entryPerimeter=0;" edge="1" parent="kn2PToPJ3fIiRNNlNBkg-1" target="kn2PToPJ3fIiRNNlNBkg-57">
          <mxGeometry width="50" height="50" relative="1" as="geometry">
            <mxPoint x="80.13" y="2033" as="sourcePoint" />
            <mxPoint x="440.13" y="1900" as="targetPoint" />
          </mxGeometry>
        </mxCell>
        <mxCell id="kn2PToPJ3fIiRNNlNBkg-61" value="" style="verticalLabelPosition=bottom;html=1;verticalAlign=top;align=center;strokeColor=none;fillColor=#00BEF2;shape=mxgraph.azure.cloud_services_configuration_file;pointerEvents=1;" vertex="1" parent="kn2PToPJ3fIiRNNlNBkg-1">
          <mxGeometry x="172.13" y="2040" width="30" height="40" as="geometry" />
        </mxCell>
        <mxCell id="kn2PToPJ3fIiRNNlNBkg-62" value="chunk (0 - 250)" style="text;html=1;align=center;verticalAlign=middle;resizable=0;points=[];autosize=1;strokeColor=none;fillColor=none;" vertex="1" parent="kn2PToPJ3fIiRNNlNBkg-1">
          <mxGeometry x="137.13" y="2075" width="100" height="30" as="geometry" />
        </mxCell>
        <mxCell id="kn2PToPJ3fIiRNNlNBkg-63" value="" style="outlineConnect=0;dashed=0;verticalLabelPosition=bottom;verticalAlign=top;align=center;html=1;shape=mxgraph.aws3.sqs;fillColor=#D9A741;gradientColor=none;" vertex="1" parent="kn2PToPJ3fIiRNNlNBkg-1">
          <mxGeometry x="508.63" y="1999" width="46.5" height="48" as="geometry" />
        </mxCell>
        <mxCell id="kn2PToPJ3fIiRNNlNBkg-64" value="envia parcerio &lt;br&gt;para processar" style="text;html=1;align=center;verticalAlign=middle;resizable=0;points=[];autosize=1;strokeColor=none;fillColor=none;" vertex="1" parent="kn2PToPJ3fIiRNNlNBkg-1">
          <mxGeometry x="368.63" y="1985" width="100" height="40" as="geometry" />
        </mxCell>
        <mxCell id="kn2PToPJ3fIiRNNlNBkg-65" value="&lt;font color=&quot;#0000ff&quot;&gt;&lt;span style=&quot;font-size: 20px;&quot;&gt;&lt;b&gt;#2.1 Lambda de processamento&lt;/b&gt;&lt;/span&gt;&lt;/font&gt;" style="text;html=1;strokeColor=none;fillColor=none;align=left;verticalAlign=middle;whiteSpace=wrap;rounded=0;" vertex="1" parent="kn2PToPJ3fIiRNNlNBkg-1">
          <mxGeometry x="15.88" y="1955" width="638.5" height="30" as="geometry" />
        </mxCell>
        <mxCell id="kn2PToPJ3fIiRNNlNBkg-66" value="&lt;font color=&quot;#0000ff&quot;&gt;&lt;span style=&quot;font-size: 20px;&quot;&gt;&lt;b&gt;#2.2 Retry ou Apuração&lt;/b&gt;&lt;/span&gt;&lt;/font&gt;" style="text;html=1;strokeColor=none;fillColor=none;align=left;verticalAlign=middle;whiteSpace=wrap;rounded=0;" vertex="1" parent="kn2PToPJ3fIiRNNlNBkg-1">
          <mxGeometry x="15.88" y="2132" width="638.5" height="30" as="geometry" />
        </mxCell>
        <mxCell id="kn2PToPJ3fIiRNNlNBkg-67" value="&lt;ul style=&quot;border-color: var(--border-color);&quot;&gt;&lt;li style=&quot;border-color: var(--border-color);&quot;&gt;&amp;nbsp;Dependendo do tipo de falha (não fatal / consistência dos dados) possível Start na SF passando os parâmetros de StartByte - EndByte da última execução&lt;/li&gt;&lt;/ul&gt;&lt;ul style=&quot;border-color: var(--border-color);&quot;&gt;&lt;li style=&quot;border-color: var(--border-color);&quot;&gt;Apuração manual / Notificação para o usuário.&lt;/li&gt;&lt;/ul&gt;" style="rounded=0;whiteSpace=wrap;html=1;align=left;spacing=2;spacingBottom=0;spacingTop=4;" vertex="1" parent="kn2PToPJ3fIiRNNlNBkg-1">
          <mxGeometry x="20.13" y="2180" width="800" height="90" as="geometry" />
        </mxCell>
        <mxCell id="5_6Aqb_gzdtU2ZP1iRoe-3" style="edgeStyle=orthogonalEdgeStyle;rounded=0;orthogonalLoop=1;jettySize=auto;html=1;" edge="1" parent="kn2PToPJ3fIiRNNlNBkg-1" source="5_6Aqb_gzdtU2ZP1iRoe-0" target="5_6Aqb_gzdtU2ZP1iRoe-1">
          <mxGeometry relative="1" as="geometry" />
        </mxCell>
        <mxCell id="5_6Aqb_gzdtU2ZP1iRoe-0" value="" style="image;aspect=fixed;html=1;points=[];align=center;fontSize=12;image=img/lib/azure2/general/Management_Portal.svg;" vertex="1" parent="kn2PToPJ3fIiRNNlNBkg-1">
          <mxGeometry x="44" y="740" width="60" height="48" as="geometry" />
        </mxCell>
        <mxCell id="5_6Aqb_gzdtU2ZP1iRoe-4" style="edgeStyle=orthogonalEdgeStyle;rounded=0;orthogonalLoop=1;jettySize=auto;html=1;exitX=1;exitY=0.25;exitDx=0;exitDy=0;exitPerimeter=0;entryX=0;entryY=0.25;entryDx=0;entryDy=0;entryPerimeter=0;" edge="1" parent="kn2PToPJ3fIiRNNlNBkg-1" source="5_6Aqb_gzdtU2ZP1iRoe-1" target="5_6Aqb_gzdtU2ZP1iRoe-7">
          <mxGeometry relative="1" as="geometry">
            <mxPoint x="387" y="764.5" as="targetPoint" />
          </mxGeometry>
        </mxCell>
        <mxCell id="5_6Aqb_gzdtU2ZP1iRoe-1" value="" style="sketch=0;points=[[0,0,0],[0.25,0,0],[0.5,0,0],[0.75,0,0],[1,0,0],[0,1,0],[0.25,1,0],[0.5,1,0],[0.75,1,0],[1,1,0],[0,0.25,0],[0,0.5,0],[0,0.75,0],[1,0.25,0],[1,0.5,0],[1,0.75,0]];outlineConnect=0;fontColor=#232F3E;gradientColor=#FF4F8B;gradientDirection=north;fillColor=#BC1356;strokeColor=#ffffff;dashed=0;verticalLabelPosition=bottom;verticalAlign=top;align=center;html=1;fontSize=12;fontStyle=0;aspect=fixed;shape=mxgraph.aws4.resourceIcon;resIcon=mxgraph.aws4.api_gateway;" vertex="1" parent="kn2PToPJ3fIiRNNlNBkg-1">
          <mxGeometry x="270" y="736.5" width="55" height="55" as="geometry" />
        </mxCell>
        <mxCell id="5_6Aqb_gzdtU2ZP1iRoe-5" value="Portal Parcerias" style="text;html=1;align=center;verticalAlign=middle;resizable=0;points=[];autosize=1;strokeColor=none;fillColor=none;" vertex="1" parent="kn2PToPJ3fIiRNNlNBkg-1">
          <mxGeometry x="19" y="788" width="110" height="30" as="geometry" />
        </mxCell>
        <mxCell id="5_6Aqb_gzdtU2ZP1iRoe-6" value="API Gateway" style="text;html=1;align=center;verticalAlign=middle;resizable=0;points=[];autosize=1;strokeColor=none;fillColor=none;" vertex="1" parent="kn2PToPJ3fIiRNNlNBkg-1">
          <mxGeometry x="250" y="791.5" width="90" height="30" as="geometry" />
        </mxCell>
        <mxCell id="aGq3AhmRjfHbYoCVY4Ft-3" style="edgeStyle=orthogonalEdgeStyle;rounded=0;orthogonalLoop=1;jettySize=auto;html=1;exitX=0;exitY=0.75;exitDx=0;exitDy=0;exitPerimeter=0;entryX=1;entryY=0.75;entryDx=0;entryDy=0;entryPerimeter=0;" edge="1" parent="kn2PToPJ3fIiRNNlNBkg-1" source="5_6Aqb_gzdtU2ZP1iRoe-7" target="5_6Aqb_gzdtU2ZP1iRoe-1">
          <mxGeometry relative="1" as="geometry" />
        </mxCell>
        <mxCell id="5_6Aqb_gzdtU2ZP1iRoe-7" value="" style="sketch=0;points=[[0,0,0],[0.25,0,0],[0.5,0,0],[0.75,0,0],[1,0,0],[0,1,0],[0.25,1,0],[0.5,1,0],[0.75,1,0],[1,1,0],[0,0.25,0],[0,0.5,0],[0,0.75,0],[1,0.25,0],[1,0.5,0],[1,0.75,0]];outlineConnect=0;fontColor=#232F3E;gradientColor=#F78E04;gradientDirection=north;fillColor=#D05C17;strokeColor=#ffffff;dashed=0;verticalLabelPosition=bottom;verticalAlign=top;align=center;html=1;fontSize=12;fontStyle=0;aspect=fixed;shape=mxgraph.aws4.resourceIcon;resIcon=mxgraph.aws4.lambda;" vertex="1" parent="kn2PToPJ3fIiRNNlNBkg-1">
          <mxGeometry x="509.75" y="736.5" width="55" height="55" as="geometry" />
        </mxCell>
        <mxCell id="5_6Aqb_gzdtU2ZP1iRoe-8" value="Lambda &lt;br&gt;MultiPart &lt;br&gt;Initialize" style="text;html=1;align=center;verticalAlign=middle;resizable=0;points=[];autosize=1;strokeColor=none;fillColor=none;" vertex="1" parent="kn2PToPJ3fIiRNNlNBkg-1">
          <mxGeometry x="506" y="788" width="70" height="60" as="geometry" />
        </mxCell>
        <mxCell id="5_6Aqb_gzdtU2ZP1iRoe-11" value="" style="outlineConnect=0;dashed=0;verticalLabelPosition=bottom;verticalAlign=top;align=center;html=1;shape=mxgraph.aws3.android;fillColor=#EE472A;gradientColor=none;" vertex="1" parent="kn2PToPJ3fIiRNNlNBkg-1">
          <mxGeometry x="552" y="710" width="40" height="44" as="geometry" />
        </mxCell>
        <mxCell id="5_6Aqb_gzdtU2ZP1iRoe-12" value="AWS SDK" style="text;html=1;align=center;verticalAlign=middle;resizable=0;points=[];autosize=1;strokeColor=none;fillColor=none;" vertex="1" parent="kn2PToPJ3fIiRNNlNBkg-1">
          <mxGeometry x="580" y="710" width="80" height="30" as="geometry" />
        </mxCell>
        <mxCell id="5_6Aqb_gzdtU2ZP1iRoe-23" value="Request MultiPart" style="text;html=1;align=center;verticalAlign=middle;resizable=0;points=[];autosize=1;strokeColor=none;fillColor=none;" vertex="1" parent="kn2PToPJ3fIiRNNlNBkg-1">
          <mxGeometry x="351" y="724" width="120" height="30" as="geometry" />
        </mxCell>
        <mxCell id="5_6Aqb_gzdtU2ZP1iRoe-26" value="" style="shape=image;verticalLabelPosition=bottom;labelBackgroundColor=default;verticalAlign=top;aspect=fixed;imageAspect=0;image=https://d2908q01vomqb2.cloudfront.net/1b6453892473a467d07372d45eb05abc2031647a/2023/02/22/multipartupload.png;" vertex="1" parent="kn2PToPJ3fIiRNNlNBkg-1">
          <mxGeometry x="23" y="300" width="344.08" height="355" as="geometry" />
        </mxCell>
        <mxCell id="aGq3AhmRjfHbYoCVY4Ft-0" value="Start MultiPart" style="text;html=1;align=center;verticalAlign=middle;resizable=0;points=[];autosize=1;strokeColor=none;fillColor=none;" vertex="1" parent="kn2PToPJ3fIiRNNlNBkg-1">
          <mxGeometry x="137.5" y="740" width="100" height="30" as="geometry" />
        </mxCell>
        <mxCell id="aGq3AhmRjfHbYoCVY4Ft-1" value="&lt;font size=&quot;1&quot; color=&quot;#0000ff&quot;&gt;&lt;b style=&quot;font-size: 21px;&quot;&gt;PASSO 1&lt;/b&gt;&lt;/font&gt;" style="text;html=1;align=center;verticalAlign=middle;resizable=0;points=[];autosize=1;strokeColor=none;fillColor=none;" vertex="1" parent="kn2PToPJ3fIiRNNlNBkg-1">
          <mxGeometry x="21.25" y="689" width="110" height="40" as="geometry" />
        </mxCell>
        <mxCell id="aGq3AhmRjfHbYoCVY4Ft-4" value="&lt;div style=&quot;text-align: justify;&quot;&gt;&lt;font color=&quot;#ff8000&quot;&gt;&lt;span style=&quot;background-color: initial;&quot;&gt;multipartUpload&lt;/span&gt;&lt;span style=&quot;background-color: initial; box-sizing: border-box; text-align: start;&quot; class=&quot;pl-kos&quot;&gt;.&lt;/span&gt;&lt;span style=&quot;background-color: initial; box-sizing: border-box; text-align: start;&quot; class=&quot;pl-c1&quot;&gt;UploadId&lt;/span&gt;&lt;/font&gt;&lt;/div&gt;&lt;span style=&quot;box-sizing: border-box; text-align: start;&quot; class=&quot;pl-c1&quot;&gt;&lt;div style=&quot;text-align: justify;&quot;&gt;&lt;font color=&quot;#ff8000&quot;&gt;&lt;span style=&quot;background-color: initial;&quot;&gt;multipartUpload&lt;/span&gt;&lt;span style=&quot;background-color: initial; box-sizing: border-box;&quot; class=&quot;pl-kos&quot;&gt;.&lt;/span&gt;&lt;span style=&quot;background-color: initial; box-sizing: border-box;&quot; class=&quot;pl-c1&quot;&gt;Key&lt;/span&gt;&lt;/font&gt;&lt;/div&gt;&lt;/span&gt;" style="text;html=1;align=center;verticalAlign=middle;resizable=0;points=[];autosize=1;strokeColor=none;fillColor=none;labelBackgroundColor=none;" vertex="1" parent="kn2PToPJ3fIiRNNlNBkg-1">
          <mxGeometry x="338" y="778" width="160" height="40" as="geometry" />
        </mxCell>
        <mxCell id="aGq3AhmRjfHbYoCVY4Ft-5" style="edgeStyle=orthogonalEdgeStyle;rounded=0;orthogonalLoop=1;jettySize=auto;html=1;" edge="1" parent="kn2PToPJ3fIiRNNlNBkg-1" source="aGq3AhmRjfHbYoCVY4Ft-6" target="aGq3AhmRjfHbYoCVY4Ft-8">
          <mxGeometry relative="1" as="geometry" />
        </mxCell>
        <mxCell id="aGq3AhmRjfHbYoCVY4Ft-6" value="" style="image;aspect=fixed;html=1;points=[];align=center;fontSize=12;image=img/lib/azure2/general/Management_Portal.svg;" vertex="1" parent="kn2PToPJ3fIiRNNlNBkg-1">
          <mxGeometry x="46.25" y="899" width="60" height="48" as="geometry" />
        </mxCell>
        <mxCell id="aGq3AhmRjfHbYoCVY4Ft-7" style="edgeStyle=orthogonalEdgeStyle;rounded=0;orthogonalLoop=1;jettySize=auto;html=1;exitX=1;exitY=0.25;exitDx=0;exitDy=0;exitPerimeter=0;entryX=0;entryY=0.25;entryDx=0;entryDy=0;entryPerimeter=0;" edge="1" parent="kn2PToPJ3fIiRNNlNBkg-1" source="aGq3AhmRjfHbYoCVY4Ft-8" target="aGq3AhmRjfHbYoCVY4Ft-12">
          <mxGeometry relative="1" as="geometry">
            <mxPoint x="389.25" y="923.5" as="targetPoint" />
          </mxGeometry>
        </mxCell>
        <mxCell id="aGq3AhmRjfHbYoCVY4Ft-8" value="" style="sketch=0;points=[[0,0,0],[0.25,0,0],[0.5,0,0],[0.75,0,0],[1,0,0],[0,1,0],[0.25,1,0],[0.5,1,0],[0.75,1,0],[1,1,0],[0,0.25,0],[0,0.5,0],[0,0.75,0],[1,0.25,0],[1,0.5,0],[1,0.75,0]];outlineConnect=0;fontColor=#232F3E;gradientColor=#FF4F8B;gradientDirection=north;fillColor=#BC1356;strokeColor=#ffffff;dashed=0;verticalLabelPosition=bottom;verticalAlign=top;align=center;html=1;fontSize=12;fontStyle=0;aspect=fixed;shape=mxgraph.aws4.resourceIcon;resIcon=mxgraph.aws4.api_gateway;" vertex="1" parent="kn2PToPJ3fIiRNNlNBkg-1">
          <mxGeometry x="272.25" y="895.5" width="55" height="55" as="geometry" />
        </mxCell>
        <mxCell id="aGq3AhmRjfHbYoCVY4Ft-9" value="Portal Parcerias" style="text;html=1;align=center;verticalAlign=middle;resizable=0;points=[];autosize=1;strokeColor=none;fillColor=none;" vertex="1" parent="kn2PToPJ3fIiRNNlNBkg-1">
          <mxGeometry x="21.25" y="947" width="110" height="30" as="geometry" />
        </mxCell>
        <mxCell id="aGq3AhmRjfHbYoCVY4Ft-10" value="API Gateway" style="text;html=1;align=center;verticalAlign=middle;resizable=0;points=[];autosize=1;strokeColor=none;fillColor=none;" vertex="1" parent="kn2PToPJ3fIiRNNlNBkg-1">
          <mxGeometry x="252.25" y="950.5" width="90" height="30" as="geometry" />
        </mxCell>
        <mxCell id="aGq3AhmRjfHbYoCVY4Ft-11" style="edgeStyle=orthogonalEdgeStyle;rounded=0;orthogonalLoop=1;jettySize=auto;html=1;exitX=0;exitY=0.75;exitDx=0;exitDy=0;exitPerimeter=0;entryX=1;entryY=0.75;entryDx=0;entryDy=0;entryPerimeter=0;" edge="1" parent="kn2PToPJ3fIiRNNlNBkg-1" source="aGq3AhmRjfHbYoCVY4Ft-12" target="aGq3AhmRjfHbYoCVY4Ft-8">
          <mxGeometry relative="1" as="geometry" />
        </mxCell>
        <mxCell id="aGq3AhmRjfHbYoCVY4Ft-12" value="" style="sketch=0;points=[[0,0,0],[0.25,0,0],[0.5,0,0],[0.75,0,0],[1,0,0],[0,1,0],[0.25,1,0],[0.5,1,0],[0.75,1,0],[1,1,0],[0,0.25,0],[0,0.5,0],[0,0.75,0],[1,0.25,0],[1,0.5,0],[1,0.75,0]];outlineConnect=0;fontColor=#232F3E;gradientColor=#F78E04;gradientDirection=north;fillColor=#D05C17;strokeColor=#ffffff;dashed=0;verticalLabelPosition=bottom;verticalAlign=top;align=center;html=1;fontSize=12;fontStyle=0;aspect=fixed;shape=mxgraph.aws4.resourceIcon;resIcon=mxgraph.aws4.lambda;" vertex="1" parent="kn2PToPJ3fIiRNNlNBkg-1">
          <mxGeometry x="512" y="895.5" width="55" height="55" as="geometry" />
        </mxCell>
        <mxCell id="aGq3AhmRjfHbYoCVY4Ft-13" value="Lambda &lt;br&gt;getPresignedUrls" style="text;html=1;align=center;verticalAlign=middle;resizable=0;points=[];autosize=1;strokeColor=none;fillColor=none;" vertex="1" parent="kn2PToPJ3fIiRNNlNBkg-1">
          <mxGeometry x="483.25" y="957" width="120" height="40" as="geometry" />
        </mxCell>
        <mxCell id="aGq3AhmRjfHbYoCVY4Ft-14" value="" style="outlineConnect=0;dashed=0;verticalLabelPosition=bottom;verticalAlign=top;align=center;html=1;shape=mxgraph.aws3.android;fillColor=#EE472A;gradientColor=none;" vertex="1" parent="kn2PToPJ3fIiRNNlNBkg-1">
          <mxGeometry x="554.25" y="869" width="40" height="44" as="geometry" />
        </mxCell>
        <mxCell id="aGq3AhmRjfHbYoCVY4Ft-15" value="AWS SDK" style="text;html=1;align=center;verticalAlign=middle;resizable=0;points=[];autosize=1;strokeColor=none;fillColor=none;" vertex="1" parent="kn2PToPJ3fIiRNNlNBkg-1">
          <mxGeometry x="582.25" y="869" width="80" height="30" as="geometry" />
        </mxCell>
        <mxCell id="aGq3AhmRjfHbYoCVY4Ft-16" value="getLIstPresignedUrls" style="text;html=1;align=center;verticalAlign=middle;resizable=0;points=[];autosize=1;strokeColor=none;fillColor=none;" vertex="1" parent="kn2PToPJ3fIiRNNlNBkg-1">
          <mxGeometry x="348.25" y="883" width="130" height="30" as="geometry" />
        </mxCell>
        <mxCell id="aGq3AhmRjfHbYoCVY4Ft-17" value="get PresignedURLs" style="text;html=1;align=center;verticalAlign=middle;resizable=0;points=[];autosize=1;strokeColor=none;fillColor=none;" vertex="1" parent="kn2PToPJ3fIiRNNlNBkg-1">
          <mxGeometry x="124.75" y="899" width="130" height="30" as="geometry" />
        </mxCell>
        <mxCell id="aGq3AhmRjfHbYoCVY4Ft-18" value="&lt;font size=&quot;1&quot; color=&quot;#0000ff&quot;&gt;&lt;b style=&quot;font-size: 21px;&quot;&gt;PASSO 2&lt;/b&gt;&lt;/font&gt;" style="text;html=1;align=center;verticalAlign=middle;resizable=0;points=[];autosize=1;strokeColor=none;fillColor=none;" vertex="1" parent="kn2PToPJ3fIiRNNlNBkg-1">
          <mxGeometry x="18" y="848" width="110" height="40" as="geometry" />
        </mxCell>
        <mxCell id="aGq3AhmRjfHbYoCVY4Ft-19" value="&lt;div style=&quot;text-align: justify;&quot;&gt;&lt;font color=&quot;#ff8000&quot;&gt;Lista com as Urls para Upload&lt;/font&gt;&lt;/div&gt;" style="text;html=1;align=center;verticalAlign=middle;resizable=0;points=[];autosize=1;strokeColor=none;fillColor=none;labelBackgroundColor=none;" vertex="1" parent="kn2PToPJ3fIiRNNlNBkg-1">
          <mxGeometry x="330.25" y="942" width="180" height="30" as="geometry" />
        </mxCell>
        <mxCell id="aGq3AhmRjfHbYoCVY4Ft-20" value="&lt;font color=&quot;#ff8000&quot;&gt;Uploader &lt;/font&gt;precisa calcular o numero de partes com base na divisão do&lt;br&gt;&lt;br&gt;&amp;nbsp;&lt;font color=&quot;#cc0066&quot;&gt;TAMANHO_ARQUIVO / TAMANHO DA PARTIÇÃO&lt;/font&gt;" style="rounded=0;whiteSpace=wrap;html=1;" vertex="1" parent="kn2PToPJ3fIiRNNlNBkg-1">
          <mxGeometry x="40" y="977" width="158.5" height="119.5" as="geometry" />
        </mxCell>
        <mxCell id="aGq3AhmRjfHbYoCVY4Ft-41" style="edgeStyle=orthogonalEdgeStyle;rounded=0;orthogonalLoop=1;jettySize=auto;html=1;entryX=0;entryY=0.5;entryDx=0;entryDy=0;entryPerimeter=0;" edge="1" parent="kn2PToPJ3fIiRNNlNBkg-1" source="aGq3AhmRjfHbYoCVY4Ft-37" target="aGq3AhmRjfHbYoCVY4Ft-40">
          <mxGeometry relative="1" as="geometry" />
        </mxCell>
        <mxCell id="aGq3AhmRjfHbYoCVY4Ft-37" value="" style="image;aspect=fixed;html=1;points=[];align=center;fontSize=12;image=img/lib/azure2/general/Management_Portal.svg;" vertex="1" parent="kn2PToPJ3fIiRNNlNBkg-1">
          <mxGeometry x="43" y="1180" width="60" height="48" as="geometry" />
        </mxCell>
        <mxCell id="aGq3AhmRjfHbYoCVY4Ft-38" value="&lt;font size=&quot;1&quot; color=&quot;#0000ff&quot;&gt;&lt;b style=&quot;font-size: 21px;&quot;&gt;PASSO 3&lt;/b&gt;&lt;/font&gt;" style="text;html=1;align=center;verticalAlign=middle;resizable=0;points=[];autosize=1;strokeColor=none;fillColor=none;" vertex="1" parent="kn2PToPJ3fIiRNNlNBkg-1">
          <mxGeometry x="18" y="1129" width="110" height="40" as="geometry" />
        </mxCell>
        <mxCell id="aGq3AhmRjfHbYoCVY4Ft-39" value="Portal Parcerias" style="text;html=1;align=center;verticalAlign=middle;resizable=0;points=[];autosize=1;strokeColor=none;fillColor=none;" vertex="1" parent="kn2PToPJ3fIiRNNlNBkg-1">
          <mxGeometry x="14.75" y="1228" width="110" height="30" as="geometry" />
        </mxCell>
        <mxCell id="aGq3AhmRjfHbYoCVY4Ft-40" value="" style="sketch=0;points=[[0,0,0],[0.25,0,0],[0.5,0,0],[0.75,0,0],[1,0,0],[0,1,0],[0.25,1,0],[0.5,1,0],[0.75,1,0],[1,1,0],[0,0.25,0],[0,0.5,0],[0,0.75,0],[1,0.25,0],[1,0.5,0],[1,0.75,0]];outlineConnect=0;fontColor=#232F3E;gradientColor=#60A337;gradientDirection=north;fillColor=#277116;strokeColor=#ffffff;dashed=0;verticalLabelPosition=bottom;verticalAlign=top;align=center;html=1;fontSize=12;fontStyle=0;aspect=fixed;shape=mxgraph.aws4.resourceIcon;resIcon=mxgraph.aws4.s3;" vertex="1" parent="kn2PToPJ3fIiRNNlNBkg-1">
          <mxGeometry x="268" y="1179" width="50" height="50" as="geometry" />
        </mxCell>
        <mxCell id="7BkQ4cN82awM8Jo2i6cq-0" value="Upload c/ PreSignedURL" style="text;html=1;align=center;verticalAlign=middle;resizable=0;points=[];autosize=1;strokeColor=none;fillColor=none;" vertex="1" parent="kn2PToPJ3fIiRNNlNBkg-1">
          <mxGeometry x="105" y="1180" width="160" height="30" as="geometry" />
        </mxCell>
        <mxCell id="7BkQ4cN82awM8Jo2i6cq-2" value="&lt;b&gt;&lt;font style=&quot;font-size: 14px;&quot;&gt;LOOP&lt;/font&gt;&lt;/b&gt;" style="text;html=1;align=center;verticalAlign=middle;resizable=0;points=[];autosize=1;strokeColor=none;fillColor=none;fontColor=#FF8000;labelBackgroundColor=default;" vertex="1" parent="kn2PToPJ3fIiRNNlNBkg-1">
          <mxGeometry x="295" y="1148" width="60" height="30" as="geometry" />
        </mxCell>
        <mxCell id="7BkQ4cN82awM8Jo2i6cq-3" value="&lt;div style=&quot;text-align: justify;&quot;&gt;&lt;font color=&quot;#ff8000&quot;&gt;&lt;span style=&quot;background-color: initial;&quot;&gt;multipartUpload&lt;/span&gt;&lt;span style=&quot;background-color: initial; box-sizing: border-box; text-align: start;&quot; class=&quot;pl-kos&quot;&gt;.&lt;/span&gt;&lt;span style=&quot;background-color: initial; box-sizing: border-box; text-align: start;&quot; class=&quot;pl-c1&quot;&gt;UploadId&lt;/span&gt;&lt;/font&gt;&lt;/div&gt;&lt;span style=&quot;box-sizing: border-box; text-align: start;&quot; class=&quot;pl-c1&quot;&gt;&lt;div style=&quot;text-align: justify;&quot;&gt;&lt;font color=&quot;#ff8000&quot;&gt;&lt;span style=&quot;background-color: initial;&quot;&gt;multipartUpload&lt;/span&gt;&lt;span style=&quot;background-color: initial; box-sizing: border-box;&quot; class=&quot;pl-kos&quot;&gt;.&lt;/span&gt;&lt;span style=&quot;background-color: initial; box-sizing: border-box;&quot; class=&quot;pl-c1&quot;&gt;Key&lt;/span&gt;&lt;/font&gt;&lt;/div&gt;&lt;/span&gt;" style="text;html=1;align=center;verticalAlign=middle;resizable=0;points=[];autosize=1;strokeColor=none;fillColor=none;labelBackgroundColor=none;" vertex="1" parent="kn2PToPJ3fIiRNNlNBkg-1">
          <mxGeometry x="107" y="1200" width="160" height="40" as="geometry" />
        </mxCell>
        <mxCell id="7BkQ4cN82awM8Jo2i6cq-7" value="&lt;font size=&quot;1&quot; color=&quot;#0000ff&quot;&gt;&lt;b style=&quot;font-size: 21px;&quot;&gt;PASSO 4&lt;/b&gt;&lt;/font&gt;" style="text;html=1;align=center;verticalAlign=middle;resizable=0;points=[];autosize=1;strokeColor=none;fillColor=none;" vertex="1" parent="kn2PToPJ3fIiRNNlNBkg-1">
          <mxGeometry x="20.25" y="1287" width="110" height="40" as="geometry" />
        </mxCell>
        <mxCell id="7BkQ4cN82awM8Jo2i6cq-13" style="edgeStyle=orthogonalEdgeStyle;rounded=0;orthogonalLoop=1;jettySize=auto;html=1;" edge="1" parent="kn2PToPJ3fIiRNNlNBkg-1" source="7BkQ4cN82awM8Jo2i6cq-14" target="7BkQ4cN82awM8Jo2i6cq-16">
          <mxGeometry relative="1" as="geometry" />
        </mxCell>
        <mxCell id="7BkQ4cN82awM8Jo2i6cq-14" value="" style="image;aspect=fixed;html=1;points=[];align=center;fontSize=12;image=img/lib/azure2/general/Management_Portal.svg;" vertex="1" parent="kn2PToPJ3fIiRNNlNBkg-1">
          <mxGeometry x="43" y="1327" width="60" height="48" as="geometry" />
        </mxCell>
        <mxCell id="7BkQ4cN82awM8Jo2i6cq-15" style="edgeStyle=orthogonalEdgeStyle;rounded=0;orthogonalLoop=1;jettySize=auto;html=1;exitX=1;exitY=0.25;exitDx=0;exitDy=0;exitPerimeter=0;entryX=0;entryY=0.25;entryDx=0;entryDy=0;entryPerimeter=0;" edge="1" parent="kn2PToPJ3fIiRNNlNBkg-1" source="7BkQ4cN82awM8Jo2i6cq-16" target="7BkQ4cN82awM8Jo2i6cq-20">
          <mxGeometry relative="1" as="geometry">
            <mxPoint x="386" y="1351.5" as="targetPoint" />
          </mxGeometry>
        </mxCell>
        <mxCell id="7BkQ4cN82awM8Jo2i6cq-16" value="" style="sketch=0;points=[[0,0,0],[0.25,0,0],[0.5,0,0],[0.75,0,0],[1,0,0],[0,1,0],[0.25,1,0],[0.5,1,0],[0.75,1,0],[1,1,0],[0,0.25,0],[0,0.5,0],[0,0.75,0],[1,0.25,0],[1,0.5,0],[1,0.75,0]];outlineConnect=0;fontColor=#232F3E;gradientColor=#FF4F8B;gradientDirection=north;fillColor=#BC1356;strokeColor=#ffffff;dashed=0;verticalLabelPosition=bottom;verticalAlign=top;align=center;html=1;fontSize=12;fontStyle=0;aspect=fixed;shape=mxgraph.aws4.resourceIcon;resIcon=mxgraph.aws4.api_gateway;" vertex="1" parent="kn2PToPJ3fIiRNNlNBkg-1">
          <mxGeometry x="269" y="1323.5" width="55" height="55" as="geometry" />
        </mxCell>
        <mxCell id="7BkQ4cN82awM8Jo2i6cq-17" value="Portal Parcerias" style="text;html=1;align=center;verticalAlign=middle;resizable=0;points=[];autosize=1;strokeColor=none;fillColor=none;" vertex="1" parent="kn2PToPJ3fIiRNNlNBkg-1">
          <mxGeometry x="18" y="1375" width="110" height="30" as="geometry" />
        </mxCell>
        <mxCell id="7BkQ4cN82awM8Jo2i6cq-18" value="API Gateway" style="text;html=1;align=center;verticalAlign=middle;resizable=0;points=[];autosize=1;strokeColor=none;fillColor=none;" vertex="1" parent="kn2PToPJ3fIiRNNlNBkg-1">
          <mxGeometry x="249" y="1378.5" width="90" height="30" as="geometry" />
        </mxCell>
        <mxCell id="7BkQ4cN82awM8Jo2i6cq-19" style="edgeStyle=orthogonalEdgeStyle;rounded=0;orthogonalLoop=1;jettySize=auto;html=1;exitX=0;exitY=0.75;exitDx=0;exitDy=0;exitPerimeter=0;entryX=1;entryY=0.75;entryDx=0;entryDy=0;entryPerimeter=0;" edge="1" parent="kn2PToPJ3fIiRNNlNBkg-1" source="7BkQ4cN82awM8Jo2i6cq-20" target="7BkQ4cN82awM8Jo2i6cq-16">
          <mxGeometry relative="1" as="geometry" />
        </mxCell>
        <mxCell id="7BkQ4cN82awM8Jo2i6cq-20" value="" style="sketch=0;points=[[0,0,0],[0.25,0,0],[0.5,0,0],[0.75,0,0],[1,0,0],[0,1,0],[0.25,1,0],[0.5,1,0],[0.75,1,0],[1,1,0],[0,0.25,0],[0,0.5,0],[0,0.75,0],[1,0.25,0],[1,0.5,0],[1,0.75,0]];outlineConnect=0;fontColor=#232F3E;gradientColor=#F78E04;gradientDirection=north;fillColor=#D05C17;strokeColor=#ffffff;dashed=0;verticalLabelPosition=bottom;verticalAlign=top;align=center;html=1;fontSize=12;fontStyle=0;aspect=fixed;shape=mxgraph.aws4.resourceIcon;resIcon=mxgraph.aws4.lambda;" vertex="1" parent="kn2PToPJ3fIiRNNlNBkg-1">
          <mxGeometry x="508.75" y="1323.5" width="55" height="55" as="geometry" />
        </mxCell>
        <mxCell id="7BkQ4cN82awM8Jo2i6cq-21" value="" style="outlineConnect=0;dashed=0;verticalLabelPosition=bottom;verticalAlign=top;align=center;html=1;shape=mxgraph.aws3.android;fillColor=#EE472A;gradientColor=none;" vertex="1" parent="kn2PToPJ3fIiRNNlNBkg-1">
          <mxGeometry x="551" y="1297" width="40" height="44" as="geometry" />
        </mxCell>
        <mxCell id="7BkQ4cN82awM8Jo2i6cq-22" value="AWS SDK" style="text;html=1;align=center;verticalAlign=middle;resizable=0;points=[];autosize=1;strokeColor=none;fillColor=none;" vertex="1" parent="kn2PToPJ3fIiRNNlNBkg-1">
          <mxGeometry x="579" y="1297" width="80" height="30" as="geometry" />
        </mxCell>
        <mxCell id="7BkQ4cN82awM8Jo2i6cq-24" value="Finaliza o processo de Upload" style="text;html=1;align=center;verticalAlign=middle;resizable=0;points=[];autosize=1;strokeColor=none;fillColor=none;" vertex="1" parent="kn2PToPJ3fIiRNNlNBkg-1">
          <mxGeometry x="96.5" y="1327" width="180" height="30" as="geometry" />
        </mxCell>
        <mxCell id="7BkQ4cN82awM8Jo2i6cq-25" value="&lt;div style=&quot;text-align: justify;&quot;&gt;&lt;font color=&quot;#ff8000&quot;&gt;send OK / Fail&lt;/font&gt;&lt;/div&gt;" style="text;html=1;align=center;verticalAlign=middle;resizable=0;points=[];autosize=1;strokeColor=none;fillColor=none;labelBackgroundColor=none;" vertex="1" parent="kn2PToPJ3fIiRNNlNBkg-1">
          <mxGeometry x="367" y="1367" width="100" height="30" as="geometry" />
        </mxCell>
        <mxCell id="7BkQ4cN82awM8Jo2i6cq-27" value="&lt;div style=&quot;text-align: justify;&quot;&gt;&lt;font color=&quot;#ff8000&quot;&gt;&lt;span style=&quot;background-color: initial; box-sizing: border-box; text-align: start;&quot; class=&quot;pl-c1&quot;&gt;UploadId&lt;/span&gt;&lt;/font&gt;&lt;/div&gt;&lt;div style=&quot;text-align: justify;&quot;&gt;&lt;span style=&quot;background-color: initial; color: rgb(255, 128, 0);&quot;&gt;Key&lt;/span&gt;&lt;/div&gt;&lt;div style=&quot;text-align: justify;&quot;&gt;&lt;font color=&quot;#ff8000&quot;&gt;UploadedParts&lt;/font&gt;&lt;/div&gt;&lt;span style=&quot;box-sizing: border-box; text-align: start;&quot; class=&quot;pl-c1&quot;&gt;&lt;div style=&quot;text-align: justify;&quot;&gt;&lt;font color=&quot;#ff8000&quot;&gt;&lt;span style=&quot;background-color: initial; box-sizing: border-box;&quot; class=&quot;pl-c1&quot;&gt;&lt;br&gt;&lt;/span&gt;&lt;/font&gt;&lt;/div&gt;&lt;/span&gt;" style="text;html=1;align=center;verticalAlign=middle;resizable=0;points=[];autosize=1;strokeColor=none;fillColor=none;labelBackgroundColor=none;" vertex="1" parent="kn2PToPJ3fIiRNNlNBkg-1">
          <mxGeometry x="138.75" y="1355" width="100" height="70" as="geometry" />
        </mxCell>
        <mxCell id="7BkQ4cN82awM8Jo2i6cq-28" value="Solicita Final Upload" style="text;html=1;align=center;verticalAlign=middle;resizable=0;points=[];autosize=1;strokeColor=none;fillColor=none;" vertex="1" parent="kn2PToPJ3fIiRNNlNBkg-1">
          <mxGeometry x="344" y="1312" width="130" height="30" as="geometry" />
        </mxCell>
        <mxCell id="7BkQ4cN82awM8Jo2i6cq-29" value="Lambda &lt;br&gt;finalizaUpload" style="text;html=1;align=center;verticalAlign=middle;resizable=0;points=[];autosize=1;strokeColor=none;fillColor=none;" vertex="1" parent="kn2PToPJ3fIiRNNlNBkg-1">
          <mxGeometry x="486.25" y="1373.5" width="100" height="40" as="geometry" />
        </mxCell>
      </root>
    </mxGraphModel>
  </diagram>
</mxfile>
